<svg width="203" height="59" viewBox="0 0 203 59" fill="none" xmlns="http://www.w3.org/2000/svg">
<path d="M0 50.6423C0 49.8339 0.158789 49.1266 0.476366 48.5203C0.803567 47.9044 1.25106 47.4328 1.81885 47.1056C2.39626 46.7688 3.04585 46.6004 3.76762 46.6004C4.51826 46.6004 5.16304 46.7736 5.70196 47.1201C6.2505 47.4665 6.64506 47.9092 6.88565 48.4481V46.7159H7.89613V54.5976H6.88565V52.8509C6.63544 53.3898 6.23606 53.8373 5.68752 54.1934C5.1486 54.5398 4.50382 54.713 3.75319 54.713C3.04104 54.713 2.39626 54.5446 1.81885 54.2078C1.25106 53.871 0.803567 53.3946 0.476366 52.7787C0.158789 52.1628 0 51.4507 0 50.6423ZM6.88565 50.6567C6.88565 50.0216 6.75573 49.4634 6.4959 48.9822C6.23606 48.501 5.87999 48.1305 5.42768 47.8707C4.985 47.6109 4.4942 47.4809 3.95528 47.4809C3.39711 47.4809 2.89669 47.606 2.45401 47.8563C2.01132 48.1065 1.66006 48.4722 1.40023 48.9533C1.15001 49.4249 1.02491 49.9879 1.02491 50.6423C1.02491 51.2871 1.15001 51.8548 1.40023 52.3456C1.66006 52.8268 2.01132 53.1973 2.45401 53.4572C2.89669 53.7074 3.39711 53.8325 3.95528 53.8325C4.4942 53.8325 4.985 53.7026 5.42768 53.4427C5.87999 53.1829 6.23606 52.8124 6.4959 52.3312C6.75573 51.85 6.88565 51.2919 6.88565 50.6567Z" fill="#EEEEEE"/>
<path d="M23.3968 48.4481C23.6471 47.9188 24.0416 47.4809 24.5805 47.1345C25.1291 46.7784 25.7787 46.6004 26.5293 46.6004C27.2415 46.6004 27.8814 46.7688 28.4492 47.1056C29.0266 47.4328 29.4741 47.9044 29.7917 48.5203C30.1189 49.1266 30.2825 49.8339 30.2825 50.6423C30.2825 51.4507 30.1189 52.1628 29.7917 52.7787C29.4741 53.3946 29.0266 53.871 28.4492 54.2078C27.8814 54.5446 27.2415 54.713 26.5293 54.713C25.7883 54.713 25.1435 54.5398 24.595 54.1934C24.0464 53.8373 23.6471 53.3946 23.3968 52.8653V58.3219H22.4008V46.7159H23.3968V48.4481ZM29.2576 50.6423C29.2576 49.9879 29.1277 49.4249 28.8678 48.9533C28.6176 48.4722 28.2712 48.1065 27.8285 47.8563C27.3858 47.606 26.8854 47.4809 26.3272 47.4809C25.7883 47.4809 25.2927 47.6109 24.8404 47.8707C24.3977 48.1305 24.0464 48.501 23.7866 48.9822C23.5268 49.4634 23.3968 50.0216 23.3968 50.6567C23.3968 51.2919 23.5268 51.85 23.7866 52.3312C24.0464 52.8124 24.3977 53.1829 24.8404 53.4427C25.2927 53.7026 25.7883 53.8325 26.3272 53.8325C26.8854 53.8325 27.3858 53.7074 27.8285 53.4572C28.2712 53.1973 28.6176 52.8268 28.8678 52.3456C29.1277 51.8548 29.2576 51.2871 29.2576 50.6423Z" fill="#EEEEEE"/>
<path d="M45.3357 48.4481C45.5859 47.9188 45.9805 47.4809 46.5194 47.1345C47.068 46.7784 47.7176 46.6004 48.4682 46.6004C49.1803 46.6004 49.8203 46.7688 50.3881 47.1056C50.9655 47.4328 51.413 47.9044 51.7306 48.5203C52.0578 49.1266 52.2214 49.8339 52.2214 50.6423C52.2214 51.4507 52.0578 52.1628 51.7306 52.7787C51.413 53.3946 50.9655 53.871 50.3881 54.2078C49.8203 54.5446 49.1803 54.713 48.4682 54.713C47.7272 54.713 47.0824 54.5398 46.5339 54.1934C45.9853 53.8373 45.5859 53.3946 45.3357 52.8653V58.3219H44.3397V46.7159H45.3357V48.4481ZM51.1965 50.6423C51.1965 49.9879 51.0666 49.4249 50.8067 48.9533C50.5565 48.4722 50.2101 48.1065 49.7674 47.8563C49.3247 47.606 48.8243 47.4809 48.2661 47.4809C47.7272 47.4809 47.2316 47.6109 46.7793 47.8707C46.3366 48.1305 45.9853 48.501 45.7255 48.9822C45.4656 49.4634 45.3357 50.0216 45.3357 50.6567C45.3357 51.2919 45.4656 51.85 45.7255 52.3312C45.9853 52.8124 46.3366 53.1829 46.7793 53.4427C47.2316 53.7026 47.7272 53.8325 48.2661 53.8325C48.8243 53.8325 49.3247 53.7074 49.7674 53.4572C50.2101 53.1973 50.5565 52.8268 50.8067 52.3456C51.0666 51.8548 51.1965 51.2871 51.1965 50.6423Z" fill="#EEEEEE"/>
<path d="M67.289 43.9154V54.5976H66.2786V43.9154H67.289Z" fill="#EEEEEE"/>
<path d="M82.2804 45.229C82.0783 45.229 81.905 45.1568 81.7607 45.0125C81.6163 44.8681 81.5442 44.6901 81.5442 44.4784C81.5442 44.2667 81.6163 44.0934 81.7607 43.9587C81.905 43.8144 82.0783 43.7422 82.2804 43.7422C82.4825 43.7422 82.6557 43.8144 82.8 43.9587C82.9444 44.0934 83.0166 44.2667 83.0166 44.4784C83.0166 44.6901 82.9444 44.8681 82.8 45.0125C82.6557 45.1568 82.4825 45.229 82.2804 45.229ZM82.7856 46.7159V54.5976H81.7751V46.7159H82.7856Z" fill="#EEEEEE"/>
<path d="M96.8097 50.6567C96.8097 49.8387 96.9733 49.1266 97.3005 48.5203C97.6277 47.9044 98.0801 47.4328 98.6575 47.1056C99.2349 46.7688 99.8941 46.6004 100.635 46.6004C101.607 46.6004 102.406 46.841 103.031 47.3221C103.667 47.8033 104.076 48.4577 104.258 49.2854H103.176C103.041 48.7176 102.747 48.2749 102.295 47.9573C101.852 47.6301 101.299 47.4665 100.635 47.4665C100.106 47.4665 99.6294 47.5868 99.206 47.8274C98.7826 48.068 98.4457 48.4289 98.1955 48.91C97.9549 49.3816 97.8347 49.9638 97.8347 50.6567C97.8347 51.3496 97.9549 51.9366 98.1955 52.4178C98.4457 52.899 98.7826 53.2599 99.206 53.5005C99.6294 53.7411 100.106 53.8614 100.635 53.8614C101.299 53.8614 101.852 53.7026 102.295 53.385C102.747 53.0578 103.041 52.6055 103.176 52.0281H104.258C104.076 52.8364 103.667 53.486 103.031 53.9768C102.396 54.4676 101.597 54.713 100.635 54.713C99.8941 54.713 99.2349 54.5494 98.6575 54.2222C98.0801 53.8854 97.6277 53.4139 97.3005 52.8076C96.9733 52.1917 96.8097 51.4747 96.8097 50.6567Z" fill="#EEEEEE"/>
<path d="M117.861 50.6423C117.861 49.8339 118.019 49.1266 118.337 48.5203C118.664 47.9044 119.112 47.4328 119.679 47.1056C120.257 46.7688 120.906 46.6004 121.628 46.6004C122.379 46.6004 123.024 46.7736 123.562 47.1201C124.111 47.4665 124.506 47.9092 124.746 48.4481V46.7159H125.757V54.5976H124.746V52.8509C124.496 53.3898 124.097 53.8373 123.548 54.1934C123.009 54.5398 122.364 54.713 121.614 54.713C120.902 54.713 120.257 54.5446 119.679 54.2078C119.112 53.871 118.664 53.3946 118.337 52.7787C118.019 52.1628 117.861 51.4507 117.861 50.6423ZM124.746 50.6567C124.746 50.0216 124.616 49.4634 124.356 48.9822C124.097 48.501 123.741 48.1305 123.288 47.8707C122.846 47.6109 122.355 47.4809 121.816 47.4809C121.258 47.4809 120.757 47.606 120.315 47.8563C119.872 48.1065 119.521 48.4722 119.261 48.9533C119.011 49.4249 118.885 49.9879 118.885 50.6423C118.885 51.2871 119.011 51.8548 119.261 52.3456C119.521 52.8268 119.872 53.1973 120.315 53.4572C120.757 53.7074 121.258 53.8325 121.816 53.8325C122.355 53.8325 122.846 53.7026 123.288 53.4427C123.741 53.1829 124.097 52.8124 124.356 52.3312C124.616 51.85 124.746 51.2919 124.746 50.6567Z" fill="#EEEEEE"/>
<path d="M141.575 47.5676V52.4611C141.575 52.9423 141.666 53.2743 141.849 53.4572C142.032 53.64 142.354 53.7314 142.816 53.7314H143.74V54.5976H142.658C141.945 54.5976 141.416 54.434 141.07 54.1068C140.723 53.7699 140.55 53.2214 140.55 52.4611V47.5676H139.453V46.7159H140.55V44.7382H141.575V46.7159H143.74V47.5676H141.575Z" fill="#EEEEEE"/>
<path d="M158.11 45.229C157.908 45.229 157.734 45.1568 157.59 45.0125C157.446 44.8681 157.374 44.6901 157.374 44.4784C157.374 44.2667 157.446 44.0934 157.59 43.9587C157.734 43.8144 157.908 43.7422 158.11 43.7422C158.312 43.7422 158.485 43.8144 158.629 43.9587C158.774 44.0934 158.846 44.2667 158.846 44.4784C158.846 44.6901 158.774 44.8681 158.629 45.0125C158.485 45.1568 158.312 45.229 158.11 45.229ZM158.615 46.7159V54.5976H157.605V46.7159H158.615Z" fill="#EEEEEE"/>
<path d="M176.551 54.713C175.81 54.713 175.141 54.5494 174.545 54.2222C173.958 53.8854 173.491 53.4139 173.144 52.8076C172.808 52.1917 172.639 51.4747 172.639 50.6567C172.639 49.8387 172.812 49.1266 173.159 48.5203C173.505 47.9044 173.977 47.4328 174.574 47.1056C175.17 46.7688 175.839 46.6004 176.58 46.6004C177.321 46.6004 177.99 46.7688 178.587 47.1056C179.193 47.4328 179.664 47.9044 180.001 48.5203C180.348 49.1266 180.521 49.8387 180.521 50.6567C180.521 51.4651 180.348 52.1772 180.001 52.7931C179.655 53.409 179.178 53.8854 178.572 54.2222C177.966 54.5494 177.292 54.713 176.551 54.713ZM176.551 53.8325C177.071 53.8325 177.552 53.717 177.995 53.486C178.437 53.2454 178.793 52.8894 179.063 52.4178C179.342 51.9366 179.482 51.3496 179.482 50.6567C179.482 49.9638 179.347 49.3816 179.077 48.91C178.808 48.4289 178.452 48.0728 178.009 47.8418C177.566 47.6012 177.085 47.4809 176.566 47.4809C176.046 47.4809 175.565 47.6012 175.122 47.8418C174.679 48.0728 174.323 48.4289 174.054 48.91C173.794 49.3816 173.664 49.9638 173.664 50.6567C173.664 51.3496 173.794 51.9366 174.054 52.4178C174.323 52.8894 174.675 53.2454 175.108 53.486C175.55 53.717 176.032 53.8325 176.551 53.8325Z" fill="#EEEEEE"/>
<path d="M198.256 46.5715C199.199 46.5715 199.969 46.865 200.566 47.4521C201.162 48.0295 201.461 48.8715 201.461 49.9783V54.5976H200.465V50.0937C200.465 49.2372 200.248 48.5828 199.815 48.1305C199.392 47.6782 198.81 47.4521 198.069 47.4521C197.308 47.4521 196.702 47.6927 196.25 48.1738C195.797 48.655 195.571 49.3623 195.571 50.2958V54.5976H194.561V46.7159H195.571V48.0584C195.821 47.5772 196.182 47.2115 196.654 46.9613C197.125 46.7014 197.66 46.5715 198.256 46.5715Z" fill="#EEEEEE"/>
<path d="M29.3584 38.5455C28.024 38.5455 27.0317 38.152 26.3816 37.365C25.7314 36.5781 25.4064 35.6371 25.4064 34.5421C25.4064 33.7551 25.5261 32.9682 25.7657 32.1812C26.0052 31.3942 26.2447 30.6243 26.4842 29.8715C26.7237 29.0845 26.8435 28.3831 26.8435 27.7672C26.8435 27.1855 26.7237 26.792 26.4842 26.5867C26.2789 26.3471 26.0052 26.2274 25.663 26.2274C24.876 26.2274 23.9521 26.8262 22.8914 28.0238C21.8649 29.2214 20.5818 30.9665 19.042 33.259C18.4945 34.0802 17.9813 34.9527 17.5022 35.8766C17.0232 36.7662 16.5955 37.519 16.2191 38.1349C15.9111 38.1349 15.5005 38.0836 14.9873 37.981C14.5082 37.8783 14.0805 37.7243 13.7041 37.519C13.3277 37.3479 13.1395 37.1084 13.1395 36.8005C13.1395 36.4925 13.3106 35.8937 13.6528 35.0041C13.995 34.1144 14.3885 33.0879 14.8333 31.9245C15.2781 30.7269 15.6716 29.5636 16.0138 28.4344C16.356 27.271 16.527 26.2958 16.527 25.5088C16.527 24.4823 16.1678 23.9691 15.4492 23.9691C14.7306 23.9691 13.8581 24.3968 12.8316 25.2522C11.8393 26.1076 10.7786 27.2368 9.64941 28.6397C8.55446 30.0084 7.51084 31.5481 6.51854 33.259C5.56047 34.9356 4.77347 36.6294 4.15757 38.3402C3.78118 38.3402 3.31925 38.2547 2.77177 38.0836C2.2243 37.9467 1.74526 37.7585 1.33466 37.519C0.924052 37.3137 0.71875 37.1255 0.71875 36.9544C0.71875 36.9202 0.83851 36.4412 1.07803 35.5173C1.31755 34.5592 1.60839 33.3788 1.95056 31.9759C2.29274 30.573 2.65201 29.1358 3.0284 27.6645C3.40479 26.1932 3.72985 24.91 4.00359 23.8151C4.10624 23.4387 4.48263 23.1136 5.13275 22.8399C5.78288 22.5319 6.34746 22.378 6.8265 22.378C7.30554 22.378 7.71614 22.5319 8.05831 22.8399C8.40048 23.1479 8.57157 23.5585 8.57157 24.0717C8.57157 24.4139 8.50314 24.91 8.36627 25.5602C8.2294 26.2103 8.05831 26.9459 7.85301 27.7672C8.81109 26.4669 9.8376 25.218 10.9325 24.0204C12.0617 22.8228 13.208 21.8476 14.3714 21.0948C15.569 20.3078 16.7323 19.9143 17.8615 19.9143C19.1275 19.9143 19.983 20.3763 20.4278 21.3001C20.8726 22.1898 21.095 23.165 21.095 24.2257C21.095 24.91 21.0095 25.5602 20.8384 26.1761C20.7015 26.7578 20.4962 27.4763 20.2225 28.3317C21.2148 26.8946 22.3268 25.6628 23.5586 24.6363C24.8247 23.5756 26.1934 23.0452 27.6647 23.0452C28.9992 23.0452 29.923 23.4558 30.4363 24.277C30.9495 25.064 31.2062 25.9365 31.2062 26.8946C31.2062 27.7843 31.0522 28.7252 30.7442 29.7175C30.4705 30.6756 30.1797 31.5995 29.8717 32.4891C29.598 33.3445 29.4611 34.0802 29.4611 34.6961C29.4611 35.0383 29.5466 35.3634 29.7177 35.6713C29.8888 35.945 30.231 36.0819 30.7442 36.0819C31.6681 36.0819 32.5577 35.6542 33.4132 34.7988C34.2686 33.9433 35.0556 32.8997 35.7741 31.6679C36.5269 30.4019 37.1599 29.2043 37.6732 28.0751L38.5457 29.153C37.9983 30.5559 37.2797 31.993 36.3901 33.4643C35.5346 34.9014 34.5252 36.099 33.3618 37.0571C32.1985 38.0494 30.864 38.5455 29.3584 38.5455Z" fill="#181818"/>
<path d="M42.3518 39.2128C40.162 39.2128 38.4682 38.614 37.2706 37.4164C36.1072 36.253 35.5255 34.7817 35.5255 33.0024C35.5255 31.4968 35.9019 29.9057 36.6547 28.2291C37.4417 26.5182 38.4853 24.9271 39.7856 23.4558C41.0858 21.9503 42.5229 20.7355 44.0969 19.8117C45.6709 18.8878 47.2449 18.4259 48.8189 18.4259C49.7085 18.4259 50.5468 18.6654 51.3338 19.1445C52.155 19.5893 52.5656 20.496 52.5656 21.8647C52.5656 23.165 52.1893 24.3797 51.4365 25.5088C50.6837 26.638 49.6743 27.6474 48.4083 28.537C47.1422 29.4267 45.7393 30.1624 44.1996 30.744C42.694 31.2915 41.1714 31.6508 39.6316 31.8219C39.5974 31.9587 39.5632 32.1127 39.5289 32.2838C39.5289 32.4207 39.5289 32.6602 39.5289 33.0024C39.5289 33.1735 39.546 33.4814 39.5803 33.9262C39.6487 34.3368 39.8027 34.7817 40.0422 35.2607C40.2817 35.7397 40.6752 36.1503 41.2227 36.4925C41.7702 36.8347 42.5229 37.0058 43.481 37.0058C44.9181 37.0058 46.3552 36.6123 47.7924 35.8253C49.2637 35.0041 50.6324 33.9262 51.8984 32.5918C53.1987 31.2573 54.2765 29.7689 55.1319 28.1264L56.1584 28.9476C55.2346 31.0007 54.037 32.7971 52.5656 34.3368C51.1285 35.8766 49.5203 37.0742 47.741 37.9296C45.996 38.7851 44.1996 39.2128 42.3518 39.2128ZM40.1962 29.9228C41.0858 29.8202 42.0781 29.5122 43.1731 28.999C44.268 28.4857 45.3116 27.8356 46.3039 27.0486C47.3304 26.2616 48.1687 25.4062 48.8189 24.4823C49.469 23.5242 49.7941 22.5662 49.7941 21.6081C49.7941 21.2317 49.7256 20.9751 49.5888 20.8382C49.4519 20.7013 49.2295 20.6329 48.9215 20.6329C48.1345 20.6329 47.3133 20.9237 46.4579 21.5054C45.6025 22.0529 44.7641 22.7886 43.9429 23.7124C43.1217 24.6021 42.3861 25.5944 41.7359 26.6893C41.0858 27.7843 40.5726 28.8621 40.1962 29.9228Z" fill="#181818"/>
<path d="M57.4324 38.4942C56.7822 38.4942 56.115 38.3231 55.4307 37.981C54.7805 37.673 54.2331 37.1769 53.7882 36.4925C53.3092 35.8082 53.0697 34.9356 53.0697 33.8749C53.0697 32.7457 53.3434 31.4797 53.8909 30.0768C54.4384 28.6739 55.174 27.271 56.0979 25.8681C57.056 24.4652 58.1509 23.1821 59.3827 22.0187C60.6488 20.8553 61.9832 19.9143 63.3861 19.1958C64.789 18.4772 66.209 18.1179 67.6461 18.1179C68.4331 18.1179 69.049 18.2548 69.4939 18.5285C69.9387 18.7681 70.1611 19.1787 70.1611 19.7604C70.1611 19.9314 70.1269 20.1368 70.0585 20.3763C69.99 20.5816 69.8189 20.7698 69.5452 20.9409C69.4083 20.7355 69.1688 20.5987 68.8266 20.5302C68.4845 20.4276 68.1252 20.3763 67.7488 20.3763C66.6196 20.3763 65.5418 20.7013 64.5153 21.3515C63.4888 21.9674 62.5478 22.7715 61.6924 23.7638C60.837 24.7561 60.0842 25.8339 59.4341 26.9973C58.8181 28.1607 58.3391 29.2898 57.9969 30.3848C57.6548 31.4455 57.4837 32.3694 57.4837 33.1563C57.4837 34.5935 58.0311 35.312 59.1261 35.312C60.05 35.312 61.1449 34.7817 62.4109 33.7209C63.7112 32.626 65.0285 31.0691 66.363 29.0503C67.7317 26.9973 68.9635 24.5508 70.0585 21.7107C70.8112 19.7604 71.5982 17.7758 72.4194 15.757C73.2406 13.7039 74.0619 11.7365 74.8831 9.85452C75.7043 7.97258 76.5084 6.29594 77.2954 4.82461C78.1166 3.35327 78.8865 2.18989 79.605 1.33447C80.3578 0.444822 81.0421 0 81.658 0C82.0344 0 82.3595 0.153977 82.6332 0.461931C82.9412 0.735668 83.0952 1.09495 83.0952 1.53977C83.0952 2.12146 82.8043 3.06243 82.2226 4.36268C81.6751 5.62871 80.9566 7.15137 80.067 8.93066C79.2115 10.7099 78.2706 12.6432 77.244 14.7305C76.2517 16.7835 75.3108 18.9049 74.4211 21.0948C73.5657 23.2505 72.8471 25.3891 72.2655 27.5105C71.718 29.5978 71.4442 31.5653 71.4442 33.413C71.4442 34.2342 71.5127 34.7988 71.6495 35.1067C71.8206 35.3805 72.0944 35.5173 72.4708 35.5173C73.5657 35.5173 74.866 34.8672 76.3715 33.567C77.9113 32.2325 79.2628 30.3505 80.4262 27.9211L81.4014 28.7423C80.6486 30.6243 79.6906 32.2838 78.5272 33.7209C77.3638 35.158 76.1149 36.2701 74.7804 37.0571C73.4459 37.8783 72.1286 38.2889 70.8283 38.2889C69.4254 38.2889 68.4502 37.8441 67.9028 36.9544C67.3553 36.0648 67.0816 35.0212 67.0816 33.8236C67.0816 33.2761 67.1158 32.7286 67.1842 32.1812C67.2869 31.5995 67.3895 31.0349 67.4922 30.4874C65.884 32.8142 64.1731 34.7303 62.3596 36.2359C60.5803 37.7414 58.9379 38.4942 57.4324 38.4942Z" fill="#181818"/>
<path d="M89.2651 15.3464C88.6149 15.3464 88.0161 15.1924 87.4687 14.8844C86.9554 14.5423 86.6988 14.029 86.6988 13.3447C86.6988 12.5235 87.1436 11.822 88.0332 11.2403C88.9229 10.6586 89.8467 10.3678 90.8048 10.3678C91.4207 10.3678 91.934 10.5046 92.3446 10.7784C92.7894 11.0521 93.0118 11.5483 93.0118 12.2668C93.0118 12.9854 92.6183 13.6868 91.8313 14.3712C91.0443 15.0213 90.1889 15.3464 89.2651 15.3464ZM83.2086 38.4942C81.7031 38.4942 80.5739 38.0494 79.8211 37.1597C79.0684 36.2701 78.692 35.1923 78.692 33.9262C78.692 33.1392 78.8288 32.1469 79.1026 30.9493C79.3763 29.7518 79.7527 28.5028 80.2318 27.2026C80.745 25.8681 81.3267 24.6192 81.9768 23.4558C82.6269 22.2924 83.3284 21.3515 84.0812 20.6329C84.8339 19.8801 85.5867 19.5037 86.3395 19.5037C86.7501 19.5037 87.1094 19.6406 87.4173 19.9143C87.7253 20.1539 87.8793 20.5131 87.8793 20.9922C87.8793 21.437 87.6055 22.1042 87.0581 22.9939C86.5448 23.8835 85.9289 24.91 85.2103 26.0734C84.526 27.2368 83.9101 28.4515 83.3626 29.7175C82.8494 30.9493 82.5927 32.1298 82.5927 33.259C82.5927 34.3539 82.7809 35.0896 83.1573 35.466C83.5679 35.8082 84.1496 35.9793 84.9024 35.9793C86.0658 35.9793 87.3318 35.3976 88.7005 34.2342C90.0692 33.0708 91.4892 31.0349 92.9605 28.1264L93.7304 28.9476C92.5328 31.9588 91.0101 34.3026 89.1624 35.9793C87.3147 37.6559 85.3301 38.4942 83.2086 38.4942Z" fill="#181818"/>
<path d="M96.3039 39.3154C94.7983 39.3154 93.5836 38.8706 92.6598 37.981C91.7359 37.0913 91.274 35.7397 91.274 33.9262C91.274 32.5233 91.5306 30.7783 92.0439 28.691C92.5913 26.6038 93.2757 24.4481 94.0969 22.224C93.8574 22.1556 93.5665 22.1042 93.2243 22.07C92.9164 22.0016 92.6084 21.8989 92.3005 21.7621V20.171C92.848 20.2394 93.2928 20.2907 93.635 20.3249C94.0113 20.3592 94.3877 20.3934 94.7641 20.4276C95.4827 18.6141 96.2526 16.869 97.0738 15.1924C97.9292 13.4815 98.7675 11.9589 99.5887 10.6244C100.444 9.28994 101.248 8.24632 102.001 7.49354C102.754 6.70655 103.421 6.31305 104.003 6.31305C104.345 6.31305 104.67 6.44992 104.978 6.72365C105.286 6.96318 105.44 7.32245 105.44 7.80149C105.44 8.48583 105.081 9.46102 104.362 10.7271C103.678 11.9931 102.822 13.4815 101.796 15.1924C100.769 16.869 99.7769 18.6654 98.8188 20.5816H100.41C101.915 20.5816 103.267 20.5645 104.465 20.5302C105.696 20.4618 106.945 20.3592 108.211 20.2223V21.916C106.329 22.0871 104.602 22.224 103.028 22.3266C101.454 22.4293 99.948 22.4977 98.5109 22.5319H97.895C97.1764 24.2086 96.5434 25.9365 95.9959 27.7158C95.4827 29.4609 95.226 31.1718 95.226 32.8484C95.226 34.2513 95.4485 35.2436 95.8933 35.8253C96.3381 36.407 97.0396 36.6978 97.9976 36.6978C99.7085 36.6978 101.454 35.9279 103.233 34.3882C105.046 32.8142 106.62 30.6927 107.955 28.0238L108.673 28.537C107.784 30.5558 106.672 32.3865 105.337 34.0289C104.037 35.6713 102.617 36.9544 101.077 37.8783C99.5374 38.8364 97.9463 39.3154 96.3039 39.3154Z" fill="#181818"/>
<path d="M109.294 39.3667C108.165 39.3667 107.189 38.9904 106.368 38.2376C105.513 37.4848 105.085 36.3556 105.085 34.8501C105.085 33.6525 105.359 32.3522 105.906 30.9493C106.454 29.5464 107.206 28.1607 108.165 26.792C109.123 25.4233 110.218 24.1915 111.449 23.0965C112.681 21.9674 113.999 21.0606 115.401 20.3763C116.804 19.6919 118.207 19.3498 119.61 19.3498C121.081 19.3498 122.33 19.7261 123.357 20.4789C124.383 21.2317 124.897 22.224 124.897 23.4558C124.897 24.3797 124.572 25.0469 123.921 25.4575C123.271 25.8681 122.501 25.9879 121.612 25.8168C121.68 25.5088 121.732 25.2009 121.766 24.8929C121.834 24.585 121.868 24.2599 121.868 23.9177C121.868 23.2334 121.732 22.6175 121.458 22.07C121.184 21.5225 120.602 21.2488 119.713 21.2488C118.755 21.2488 117.78 21.5739 116.787 22.224C115.795 22.8741 114.837 23.7295 113.913 24.7903C113.023 25.8168 112.219 26.9631 111.501 28.2291C110.782 29.4609 110.218 30.6756 109.807 31.8732C109.396 33.0708 109.191 34.1486 109.191 35.1067C109.191 36.2017 109.585 36.7491 110.372 36.7491C111.159 36.7491 112.031 36.3728 112.989 35.62C113.947 34.833 114.905 33.8578 115.863 32.6944C116.856 31.531 117.797 30.3505 118.686 29.153C119.576 27.9211 120.346 26.8775 120.996 26.0221C121.099 25.851 121.235 25.7655 121.407 25.7655C121.543 25.7997 121.8 25.8852 122.176 26.0221C122.587 26.1247 122.963 26.2958 123.306 26.5353C123.648 26.7749 123.819 27.0828 123.819 27.4592C123.819 27.904 123.579 28.5199 123.1 29.3069C122.621 30.0597 122.125 30.8809 121.612 31.7706C121.133 32.6602 120.893 33.4814 120.893 34.2342C120.893 34.679 121.013 35.1067 121.253 35.5173C121.492 35.8937 121.886 36.0819 122.433 36.0819C123.254 36.0819 124.401 35.4831 125.872 34.2855C127.377 33.0537 128.9 30.9836 130.44 28.0751L131.415 29.0503C130.149 31.8561 128.575 34.1315 126.693 35.8766C124.811 37.6217 122.912 38.4942 120.996 38.4942C119.593 38.4942 118.549 38.0494 117.865 37.1597C117.181 36.2701 116.804 35.312 116.736 34.2855V34.0289C115.367 35.6713 114.101 36.9716 112.938 37.9296C111.809 38.8877 110.594 39.3667 109.294 39.3667Z" fill="#181818"/>
<path d="M133.896 39.3154C132.39 39.3154 131.176 38.8706 130.252 37.981C129.328 37.0913 128.866 35.7397 128.866 33.9262C128.866 32.5233 129.123 30.7783 129.636 28.691C130.183 26.6038 130.868 24.4481 131.689 22.224C131.449 22.1556 131.159 22.1042 130.816 22.07C130.508 22.0016 130.2 21.8989 129.892 21.7621V20.171C130.44 20.2394 130.885 20.2907 131.227 20.3249C131.603 20.3592 131.98 20.3934 132.356 20.4276C133.075 18.6141 133.845 16.869 134.666 15.1924C135.521 13.4815 136.36 11.9589 137.181 10.6244C138.036 9.28994 138.84 8.24632 139.593 7.49354C140.346 6.70655 141.013 6.31305 141.595 6.31305C141.937 6.31305 142.262 6.44992 142.57 6.72365C142.878 6.96318 143.032 7.32245 143.032 7.80149C143.032 8.48583 142.673 9.46102 141.954 10.7271C141.27 11.9931 140.414 13.4815 139.388 15.1924C138.361 16.869 137.369 18.6654 136.411 20.5816H138.002C139.507 20.5816 140.859 20.5645 142.057 20.5302C143.288 20.4618 144.537 20.3592 145.803 20.2223V21.916C143.921 22.0871 142.194 22.224 140.62 22.3266C139.046 22.4293 137.54 22.4977 136.103 22.5319H135.487C134.768 24.2086 134.135 25.9365 133.588 27.7158C133.075 29.4609 132.818 31.1718 132.818 32.8484C132.818 34.2513 133.04 35.2436 133.485 35.8253C133.93 36.407 134.632 36.6978 135.59 36.6978C137.3 36.6978 139.046 35.9279 140.825 34.3882C142.638 32.8142 144.212 30.6927 145.547 28.0238L146.265 28.537C145.376 30.5558 144.264 32.3865 142.929 34.0289C141.629 35.6713 140.209 36.9544 138.669 37.8783C137.129 38.8364 135.538 39.3154 133.896 39.3154Z" fill="#181818"/>
<path d="M154.174 15.3464C153.524 15.3464 152.925 15.1924 152.378 14.8844C151.864 14.5423 151.608 14.029 151.608 13.3447C151.608 12.5235 152.052 11.822 152.942 11.2403C153.832 10.6586 154.756 10.3678 155.714 10.3678C156.33 10.3678 156.843 10.5046 157.253 10.7784C157.698 11.0521 157.921 11.5483 157.921 12.2668C157.921 12.9854 157.527 13.6868 156.74 14.3712C155.953 15.0213 155.098 15.3464 154.174 15.3464ZM148.117 38.4942C146.612 38.4942 145.483 38.0494 144.73 37.1597C143.977 36.2701 143.601 35.1923 143.601 33.9262C143.601 33.1392 143.738 32.1469 144.011 30.9493C144.285 29.7518 144.662 28.5028 145.141 27.2026C145.654 25.8681 146.236 24.6192 146.886 23.4558C147.536 22.2924 148.237 21.3515 148.99 20.6329C149.743 19.8801 150.496 19.5037 151.248 19.5037C151.659 19.5037 152.018 19.6406 152.326 19.9143C152.634 20.1539 152.788 20.5131 152.788 20.9922C152.788 21.437 152.514 22.1042 151.967 22.9939C151.454 23.8835 150.838 24.91 150.119 26.0734C149.435 27.2368 148.819 28.4515 148.271 29.7175C147.758 30.9493 147.502 32.1298 147.502 33.259C147.502 34.3539 147.69 35.0896 148.066 35.466C148.477 35.8082 149.058 35.9793 149.811 35.9793C150.975 35.9793 152.241 35.3976 153.609 34.2342C154.978 33.0708 156.398 31.0349 157.869 28.1264L158.639 28.9476C157.442 31.9588 155.919 34.3026 154.071 35.9793C152.224 37.6559 150.239 38.4942 148.117 38.4942Z" fill="#181818"/>
<path d="M159.93 38.5969C158.39 38.5969 157.329 38.0836 156.747 37.0571C156.2 36.0648 155.926 34.9699 155.926 33.7723C155.926 32.6773 156.097 31.5653 156.439 30.4361C156.782 29.2727 157.244 28.1949 157.825 27.2026C158.441 26.2103 159.108 25.4233 159.827 24.8416C160.58 24.2257 161.332 23.9177 162.085 23.9177C162.325 23.9177 162.599 23.9691 162.906 24.0717C163.249 24.1401 163.488 24.2599 163.625 24.431C163.078 25.1153 162.513 26.005 161.931 27.0999C161.384 28.1607 160.922 29.2727 160.546 30.4361C160.203 31.5995 160.032 32.6602 160.032 33.6183C160.032 34.3026 160.152 34.8672 160.392 35.312C160.665 35.7568 161.127 35.9793 161.777 35.9793C162.427 35.9793 163.197 35.62 164.087 34.9014C165.011 34.1486 165.883 33.2932 166.705 32.3351C165.61 31.3428 164.823 30.265 164.344 29.1016C163.865 27.904 163.625 26.4669 163.625 24.7903C163.625 24.0717 163.796 23.2505 164.138 22.3266C164.515 21.4028 165.096 20.5987 165.883 19.9143C166.705 19.23 167.8 18.8878 169.168 18.8878C170.64 18.8878 171.666 19.2984 172.248 20.1196C172.864 20.9409 173.172 21.916 173.172 23.0452C173.172 24.3112 172.829 25.7312 172.145 27.3052C171.495 28.8792 170.708 30.3677 169.784 31.7706C170.195 31.9759 170.674 32.0785 171.221 32.0785C171.735 32.0785 172.35 31.9588 173.069 31.7192C173.788 31.4797 174.489 31.0862 175.173 30.5387C175.858 29.9571 176.405 29.1872 176.816 28.2291L177.74 28.8963C176.987 30.6414 175.977 31.9245 174.711 32.7457C173.48 33.5327 172.265 33.9262 171.067 33.9262C170.622 33.9262 170.178 33.892 169.733 33.8236C169.288 33.7209 168.877 33.6012 168.501 33.4643C167.338 34.833 166.003 36.0306 164.498 37.0571C162.992 38.0836 161.469 38.5969 159.93 38.5969ZM168.039 30.6927C168.86 29.4951 169.562 28.212 170.143 26.8433C170.725 25.4746 171.016 24.2086 171.016 23.0452C171.016 21.5396 170.537 20.7869 169.579 20.7869C168.929 20.7869 168.261 21.2488 167.577 22.1727C166.893 23.0965 166.551 24.2599 166.551 25.6628C166.551 26.3814 166.67 27.2539 166.91 28.2804C167.184 29.3069 167.56 30.111 168.039 30.6927Z" fill="#181818"/>
<path d="M192.936 37.981C191.601 37.981 190.575 37.6388 189.856 36.9544C189.172 36.3043 188.83 35.466 188.83 34.4395C188.83 33.7551 188.949 33.0366 189.189 32.2838C189.428 31.4968 189.668 30.7098 189.907 29.9228C190.147 29.1358 190.267 28.3831 190.267 27.6645C190.267 26.9117 190.078 26.3985 189.702 26.1247C189.36 25.8168 188.949 25.6628 188.47 25.6628C187.444 25.6628 186.383 26.0905 185.288 26.9459C184.227 27.7672 183.184 28.8108 182.157 30.0768C181.165 31.3428 180.224 32.6602 179.334 34.0289C178.445 35.3976 177.675 36.6294 177.025 37.7243C176.375 37.7243 175.759 37.6046 175.177 37.365C174.595 37.1597 174.099 36.7834 173.688 36.2359C173.723 36.0648 173.928 35.5515 174.304 34.6961C174.647 33.8065 175.04 32.7629 175.485 31.5653C175.93 30.3334 176.323 29.0503 176.665 27.7158C177.008 26.3814 177.179 25.1667 177.179 24.0717C177.418 23.798 177.777 23.5242 178.256 23.2505C178.77 22.9768 179.3 22.8399 179.848 22.8399C181.045 22.8399 181.644 23.3532 181.644 24.3797C181.644 25.3035 181.353 26.8262 180.771 28.9476C181.661 27.75 182.636 26.6209 183.697 25.5602C184.758 24.4994 185.853 23.644 186.982 22.9939C188.145 22.3095 189.309 21.9674 190.472 21.9674C191.943 21.9674 193.021 22.4635 193.705 23.4558C194.424 24.4481 194.783 25.543 194.783 26.7406C194.783 27.7672 194.612 28.7252 194.27 29.6149C193.928 30.5045 193.586 31.3428 193.244 32.1298C192.936 32.9168 192.782 33.6867 192.782 34.4395C192.782 34.987 192.901 35.3805 193.141 35.62C193.415 35.8253 193.705 35.9279 194.013 35.9279C194.835 35.9279 195.69 35.5344 196.58 34.7474C197.469 33.9605 198.308 32.9682 199.095 31.7706C199.916 30.5387 200.634 29.3069 201.25 28.0751L202.123 28.7937C201.404 30.4703 200.583 32.0101 199.659 33.413C198.77 34.7817 197.76 35.8937 196.631 36.7491C195.536 37.5704 194.304 37.981 192.936 37.981Z" fill="#181818"/>
</svg>
