<svg width="382" height="386" viewBox="0 0 382 386" fill="none" xmlns="http://www.w3.org/2000/svg">
<path d="M172.722 386C166.242 386 159.802 385.675 153.407 385.014H192.39C185.827 385.669 179.261 386 172.722 386ZM29.0596 309.702C-9.28066 247.72 -11.0989 158.016 32.1285 91.3292C69.412 33.8112 135.545 0.609656 199.191 0.609656C200.751 0.609656 202.304 0.628967 203.86 0.668946C217.874 1.02875 271.584 3.24688 318.786 42.1681C325.719 47.885 341.01 61.4694 354.79 83.0206C387.15 133.625 389.932 204.129 365.792 260.972C362.94 267.684 359.72 274.177 356.173 280.425V248.821C356.173 245.743 353.679 243.249 350.6 243.249H310.08C342.482 198.736 335.287 139.099 330.006 113.171C329.216 109.293 325.859 106.982 322.398 106.982C320.498 106.982 318.568 107.678 317.012 109.191C293.773 131.808 274.044 161.813 258.268 191.092V189.872C258.268 186.794 255.773 184.299 252.696 184.299H162.876H146.889C145.75 163.824 142.82 143.082 136.962 124.493C136.067 121.654 133.513 120.07 130.918 120.07C129.169 120.07 127.402 120.791 126.114 122.335C112.131 139.119 83.3564 179.997 90.5111 225.162C74.5363 193.142 54.8125 160.583 31.714 135.405C30.0017 133.538 27.8467 132.675 25.7535 132.675C22.2592 132.675 18.9354 135.08 18.1197 139.239C13.0818 164.928 6.32075 220.678 29.0596 268.838V309.702" fill="url(#paint0_linear_38_128)"/>
<path d="M138.457 347.589C138.457 347.589 99.7064 209.52 31.7142 135.405C27.1436 130.423 19.4243 132.587 18.1199 139.239C9.39836 183.713 -4.47971 318.29 138.457 347.589Z" fill="#BDD0FB"/>
<path d="M59.8019 243.249H54.947C46.4898 224.423 38.7564 202.687 32.7494 177.872C32.7016 177.675 32.8444 177.546 32.988 177.546C33.0821 177.546 33.1765 177.602 33.218 177.727C36.8822 188.878 45.7883 214.225 59.8019 243.249" fill="#DEE8FD"/>
<path d="M139.149 297.209C139.149 297.209 159.263 195.267 136.962 124.493C135.464 119.737 129.308 118.504 126.114 122.335C104.764 147.961 48.9353 229.757 139.149 297.209Z" fill="#BDD0FB"/>
<path d="M122.047 243.249H118.783C115.088 220.056 114.358 189.029 123.142 152.148C123.167 152.044 123.248 151.999 123.33 151.999C123.436 151.999 123.54 152.077 123.521 152.214C121.606 165.109 116.907 203.623 122.047 243.249" fill="#DEE8FD"/>
<path d="M214.075 294.798C214.075 294.798 251.672 172.782 317.012 109.191C321.404 104.916 328.783 107.166 330.006 113.171C338.186 153.33 350.964 274.345 214.075 294.798" fill="#BDD0FB"/>
<path d="M271.265 243.249H266.214C293.531 204.198 310.12 161.687 315.416 147.012C315.454 146.905 315.54 146.859 315.625 146.859C315.767 146.859 315.91 146.981 315.864 147.16C304.741 188.995 287.669 220.578 271.265 243.249Z" fill="#DEE8FD"/>
<path d="M243.527 385.014H232.621V189.872C232.621 186.794 230.126 184.299 227.048 184.299H162.877H252.696C255.773 184.299 258.268 186.794 258.268 189.872V191.092V243.249H249.099C246.022 243.249 243.527 245.743 243.527 248.821V385.014" fill="url(#paint1_linear_38_128)"/>
<path d="M232.621 385.014H141.706V248.821C141.706 245.743 139.212 243.249 136.134 243.249H131.656V189.872C131.656 186.794 134.151 184.299 137.23 184.299H146.889H162.876H227.048C230.126 184.299 232.621 186.794 232.621 189.872V385.014V385.014ZM138.426 229.687C138.04 229.687 137.726 230 137.726 230.386V236.188C137.726 236.574 138.04 236.887 138.426 236.887C138.812 236.887 139.125 236.574 139.125 236.188V230.386C139.125 230 138.812 229.687 138.426 229.687ZM150.15 193.082C143.299 193.082 137.726 199.258 137.726 206.849V221.089C137.726 221.475 138.04 221.787 138.426 221.787C138.812 221.787 139.125 221.475 139.125 221.089V206.849C139.125 200.028 144.07 194.479 150.15 194.479H169.539C169.925 194.479 170.238 194.166 170.238 193.78C170.238 193.394 169.925 193.082 169.539 193.082H150.15" fill="url(#paint2_linear_38_128)"/>
<path d="M138.426 221.787C138.04 221.787 137.726 221.475 137.726 221.089V206.849C137.726 199.258 143.299 193.082 150.15 193.082H169.539C169.925 193.082 170.238 193.394 170.238 193.78C170.238 194.166 169.925 194.479 169.539 194.479H150.15C144.07 194.479 139.125 200.028 139.125 206.849V221.089C139.125 221.475 138.812 221.787 138.426 221.787Z" fill="url(#paint3_linear_38_128)"/>
<path d="M138.426 236.887C138.04 236.887 137.726 236.574 137.726 236.188V230.386C137.726 230 138.04 229.687 138.426 229.687C138.812 229.687 139.125 230 139.125 230.386V236.188C139.125 236.574 138.812 236.887 138.426 236.887Z" fill="url(#paint4_linear_38_128)"/>
<path d="M141.706 385.014H116.059V248.821C116.059 245.743 113.564 243.249 110.485 243.249H60.28H95.3486H118.783H122.047H131.656H136.134C139.212 243.249 141.706 245.743 141.706 248.821V385.014" fill="url(#paint5_linear_38_128)"/>
<path d="M116.059 385.014H29.0596V248.821C29.0596 245.743 31.5545 243.249 34.6323 243.249H54.9468H59.8017H60.2799H110.485C113.564 243.249 116.059 245.743 116.059 248.821V385.014ZM36.2412 293.2C35.8554 293.2 35.5422 293.513 35.5422 293.899V300.744C35.5422 301.13 35.8554 301.443 36.2412 301.443C36.6274 301.443 36.9404 301.13 36.9404 300.744V293.899C36.9404 293.513 36.6274 293.2 36.2412 293.2ZM50.0742 250.011C42.061 250.011 35.5422 257.242 35.5422 266.129V282.93C35.5422 283.316 35.8554 283.629 36.2412 283.629C36.6274 283.629 36.9404 283.316 36.9404 282.93V266.129C36.9404 258.012 42.832 251.41 50.0742 251.41H72.9499C73.3355 251.41 73.6485 251.097 73.6485 250.711C73.6485 250.325 73.3355 250.011 72.9499 250.011H50.0742" fill="url(#paint6_linear_38_128)"/>
<path d="M36.2413 283.629C35.8554 283.629 35.5422 283.316 35.5422 282.93V266.129C35.5422 257.242 42.0611 250.011 50.0743 250.011H72.95C73.3356 250.011 73.6485 250.325 73.6485 250.711C73.6485 251.097 73.3356 251.41 72.95 251.41H50.0743C42.8321 251.41 36.9405 258.012 36.9405 266.129V282.93C36.9405 283.316 36.6274 283.629 36.2413 283.629Z" fill="url(#paint7_linear_38_128)"/>
<path d="M36.2413 301.443C35.8554 301.443 35.5422 301.13 35.5422 300.744V293.899C35.5422 293.513 35.8554 293.2 36.2413 293.2C36.6274 293.2 36.9405 293.513 36.9405 293.899V300.744C36.9405 301.13 36.6274 301.443 36.2413 301.443Z" fill="url(#paint8_linear_38_128)"/>
<path d="M356.173 385.014H330.526V248.821C330.526 245.743 328.031 243.249 324.954 243.249H274.748H310.08H350.601C353.679 243.249 356.173 245.743 356.173 248.821V280.425V385.014" fill="url(#paint9_linear_38_128)"/>
<path d="M330.526 385.014H243.527V248.821C243.527 245.743 246.022 243.249 249.099 243.249H258.268H266.214H271.265H274.748H324.954C328.031 243.249 330.526 245.743 330.526 248.821V385.014V385.014ZM250.708 293.2C250.322 293.2 250.009 293.513 250.009 293.899V300.744C250.009 301.13 250.322 301.443 250.708 301.443C251.094 301.443 251.408 301.13 251.408 300.744V293.899C251.408 293.513 251.094 293.2 250.708 293.2ZM264.542 250.011C256.528 250.011 250.009 257.242 250.009 266.129V282.93C250.009 283.316 250.322 283.629 250.708 283.629C251.094 283.629 251.408 283.316 251.408 282.93V266.129C251.408 258.012 257.299 251.41 264.542 251.41H287.417C287.803 251.41 288.117 251.097 288.117 250.711C288.117 250.325 287.803 250.011 287.417 250.011H264.542Z" fill="url(#paint10_linear_38_128)"/>
<path d="M250.708 283.629C250.322 283.629 250.009 283.316 250.009 282.93V266.129C250.009 257.242 256.528 250.011 264.542 250.011H287.417C287.803 250.011 288.117 250.325 288.117 250.711C288.117 251.097 287.803 251.41 287.417 251.41H264.542C257.299 251.41 251.408 258.012 251.408 266.129V282.93C251.408 283.316 251.094 283.629 250.708 283.629Z" fill="url(#paint11_linear_38_128)"/>
<path d="M250.708 301.443C250.322 301.443 250.009 301.13 250.009 300.744V293.899C250.009 293.513 250.322 293.2 250.708 293.2C251.094 293.2 251.408 293.513 251.408 293.899V300.744C251.408 301.13 251.094 301.443 250.708 301.443Z" fill="url(#paint12_linear_38_128)"/>
<path d="M239.888 357.359L311.298 220.551H296.667C293.969 220.551 292.486 217.415 294.196 215.329L370.306 122.568C373.604 118.546 380.12 121.097 379.814 126.288L374.464 216.998C374.158 222.19 369.553 226.061 364.385 225.47L354.185 224.302L283.331 377.745C281.487 381.739 277.488 384.297 273.089 384.297H248.531L239.888 357.359" fill="url(#paint13_linear_38_128)"/>
<path d="M180.846 261.409L231.261 373.399C234.246 380.031 240.844 384.297 248.119 384.297H274.109C277.557 384.297 280.735 382.427 282.407 379.41L283.33 377.745C280.539 377.745 277.982 376.179 276.713 373.692L209.541 242.08L180.846 261.409" fill="url(#paint14_linear_38_128)"/>
<path d="M216.326 255.374C211.271 251.383 203.885 252.556 200.316 257.918L126.193 369.282C120.255 378.201 110.251 383.56 99.5368 383.56H89.1065L80.6187 359.108C80.6187 359.108 149.528 253.449 167.288 237.466C167.288 237.466 184.976 221.526 202.415 233.578C207.023 236.761 210.521 241.307 212.657 246.483L216.326 255.374Z" fill="url(#paint15_linear_38_128)"/>
<path d="M0 293.345C0 293.345 12.4075 277.836 36.4511 275.424C36.4511 275.424 47.8707 279.315 70.6208 320.081C93.3718 360.847 108.473 379.435 126.193 369.282L124.726 371.718C119.89 379.745 111.204 384.655 101.833 384.655H92.0332C81.2418 384.655 71.8718 368.033 65.5705 359.274C47.864 334.659 10.8771 297.166 0 293.345Z" fill="url(#paint16_linear_38_128)"/>
<path d="M371.227 154.963C371.201 154.963 371.173 154.961 371.147 154.957C370.764 154.914 370.488 154.568 370.531 154.184L371.033 149.754C371.077 149.371 371.423 149.095 371.806 149.14C372.191 149.182 372.466 149.528 372.422 149.913L371.92 154.341C371.88 154.698 371.577 154.963 371.227 154.963Z" fill="#91B3FA"/>
<path d="M307.693 210.872C307.544 210.872 307.393 210.825 307.267 210.727C306.961 210.491 306.903 210.052 307.138 209.747L369.986 128.085C370.726 127.124 371.931 126.797 373.053 127.252C374.178 127.707 374.817 128.778 374.68 129.983L373.57 139.772C373.528 140.155 373.179 140.43 372.798 140.388C372.414 140.344 372.138 139.998 372.182 139.615L373.291 129.826C373.368 129.142 372.949 128.717 372.53 128.548C372.11 128.378 371.514 128.392 371.094 128.938L308.247 210.599C308.109 210.778 307.902 210.872 307.693 210.872" fill="#91B3FA"/>
<path d="M165.117 296.481C164.982 296.481 164.847 296.443 164.727 296.361C164.407 296.145 164.321 295.711 164.538 295.391L197.042 247.212C198.205 245.486 200.139 244.552 202.216 244.706C204.292 244.863 206.063 246.082 206.954 247.964C207.119 248.313 206.97 248.729 206.622 248.894C206.273 249.061 205.856 248.911 205.691 248.562C205.018 247.139 203.68 246.22 202.111 246.101C200.541 245.981 199.081 246.69 198.2 247.994L165.697 296.172C165.562 296.372 165.342 296.481 165.117 296.481Z" fill="#91B3FA"/>
<path d="M156.67 309C156.535 309 156.4 308.961 156.28 308.88C155.96 308.665 155.875 308.231 156.091 307.91L158.176 304.822C158.392 304.5 158.828 304.416 159.146 304.633C159.466 304.848 159.551 305.283 159.335 305.603L157.25 308.693C157.115 308.892 156.895 309 156.67 309" fill="#91B3FA"/>
<path d="M239.38 8.79566C254.854 4.21054 269.61 5.44712 276.977 7.39504C285.687 9.69863 288.576 11.426 296.286 12.2959C303.139 13.0692 321.353 7.52463 319.02 11.6948C315.982 17.1319 316.813 38.4253 321.352 47.3033C322.012 48.5936 300.443 51.7905 287.374 49.4028C269.357 46.1108 263.556 40.591 251.727 43.1028C246.269 44.2608 242.122 46.5781 239.473 48.3537C240.679 35.2256 238.173 21.9224 239.38 8.79566" fill="url(#paint17_linear_38_128)"/>
<path d="M239.575 185.422C239.189 185.422 238.876 185.108 238.876 184.722V4.57443C238.876 4.18843 239.189 3.87548 239.575 3.87548C239.961 3.87548 240.274 4.18843 240.274 4.57443V184.722C240.274 185.108 239.961 185.422 239.575 185.422Z" fill="#26264F"/>
<path d="M162.114 185.443C162.113 185.349 162.118 185.254 162.143 185.159C163.556 179.554 169.337 176.681 169.337 176.681L172.117 176.898C173.716 181.839 174.747 184.25 174.491 185.6C174.484 185.639 174.472 185.674 174.462 185.71C172.168 185.916 167.447 186.049 162.114 185.443Z" fill="url(#paint18_linear_38_128)"/>
<path d="M174.495 185.71C174.372 186.161 174.039 186.513 173.613 186.601C170.351 187.287 165.165 186.736 162.987 186.451C162.507 186.389 162.155 185.943 162.147 185.443C167.481 186.049 172.202 185.916 174.495 185.71Z" fill="url(#paint19_linear_38_128)"/>
<path d="M167.048 172.353L168.265 178.215C168.354 178.644 168.684 178.965 169.084 179.004C169.574 179.049 170.27 179.075 170.97 178.973C171.599 178.881 172.036 178.243 171.924 177.557L171.078 172.353H167.048Z" fill="url(#paint20_linear_38_128)"/>
<path d="M198.051 185.662C195.081 185.579 193.546 185.229 192.75 184.904C192.749 185.2 192.75 185.501 192.76 185.811C192.771 186.145 193.016 186.409 193.32 186.408L209.625 186.303C210.146 186.299 210.45 185.695 210.225 185.218C208.087 185.395 202.641 185.79 198.051 185.662Z" fill="url(#paint21_linear_38_128)"/>
<path d="M210.262 185.218C210.241 185.177 210.225 185.134 210.197 185.095C208.757 183.084 205.09 179.077 197.842 177.34L194.366 177.229C194.366 177.229 192.818 179.92 192.789 184.904C193.583 185.229 195.118 185.579 198.088 185.662C202.678 185.79 208.124 185.395 210.262 185.218" fill="url(#paint22_linear_38_128)"/>
<path d="M193.721 171.96C193.759 172.22 194.236 176.158 194.421 177.686C194.464 178.048 194.727 178.329 195.059 178.369C195.651 178.44 196.609 178.505 197.447 178.332C197.899 178.24 198.226 177.806 198.226 177.3V171.117L193.721 171.96" fill="url(#paint23_linear_38_128)"/>
<path d="M169.371 95.3932C169.371 95.3932 163.807 144.845 166.898 175.753C166.898 175.753 170.608 175.753 172.462 175.135C172.462 175.135 178.244 126.783 180.113 112.948C180.183 112.425 180.928 112.402 181.031 112.919C183.337 124.558 192.401 170.207 193.479 174.518C193.479 174.518 196.57 175.753 199.042 174.518C199.042 174.518 194.097 108.375 190.389 96.6298L169.371 95.3932" fill="url(#paint24_linear_38_128)"/>
<path d="M158.245 37.9055C158.245 37.9055 176.948 35.38 194.014 37.9551C198.238 38.5934 201.18 42.4824 200.608 46.7146L199.042 58.3042C199.042 58.3042 194.097 84.8844 190.389 96.6299C190.389 96.6299 176.17 99.103 169.371 95.3933C169.371 95.3933 163.807 62.0126 160.716 57.0676C160.716 57.0676 157.626 44.087 158.245 37.9055" fill="url(#paint25_linear_38_128)"/>
<path d="M174.563 21.0139L172.222 36.8385C172.222 36.8385 178.76 39.8424 183.337 36.7103L182.352 25.5425L174.563 21.0139" fill="url(#paint26_linear_38_128)"/>
<path d="M184.637 10.7104C184.712 10.8441 186.122 18.8233 186.989 23.7627C187.349 25.803 185.848 27.6999 183.78 27.8212L181.886 27.9343C178.405 28.1397 175.34 25.6624 174.812 22.216L173.443 13.2677C173.443 13.2677 182.848 7.46388 184.637 10.7104" fill="url(#paint27_linear_38_128)"/>
<path d="M171.4 13.2898C170.675 12.3868 170.041 10.9269 171.588 9.39117C173.154 7.83614 174.929 8.22353 176.057 8.74601C176.555 8.97623 177.169 8.8742 177.525 8.45374C177.682 8.26763 177.917 8.14083 178.264 8.17943C178.919 8.25387 179.503 7.821 179.582 7.16618C179.716 6.04402 180.313 4.72335 182.296 4.34011C185.936 3.63704 187.751 7.27782 187.687 9.83783C187.622 12.3978 183.632 12.9355 181.37 12.5109C179.707 12.1993 178.271 13.6592 177.624 14.4574C177.39 14.7469 177.302 15.126 177.387 15.4886L177.962 17.9618C177.564 18.7296 177.172 19.5154 176.613 20.1716C176.21 20.6431 175.767 20.9036 175.299 21.0139C174.621 19.7511 172.724 19.5375 171.841 19.5085C171.504 19.4975 171.189 19.35 170.967 19.0949C170.301 18.3326 169.261 16.6301 171.254 14.9578C171.749 14.5429 171.805 13.7943 171.4 13.2898" fill="url(#paint28_linear_38_128)"/>
<path d="M175.955 23.6621C175.955 23.6621 175.878 19.1969 174.071 18.7778C172.263 18.3574 170.314 19.6643 171.859 22.3373C173.781 25.6624 175.955 23.6621 175.955 23.6621" fill="url(#paint29_linear_38_128)"/>
<path d="M168.817 59.2499C168.817 59.2499 115.741 44.8025 142.095 7.64728L143.879 10.1715C143.879 10.1715 135.938 35.3373 162.241 37.7291C162.241 37.7291 169.054 55.299 168.817 59.2499" fill="url(#paint30_linear_38_128)"/>
<path d="M141.915 7.83886C141.915 7.83886 141.318 0.6648 144.906 0.0665002C148.493 -0.531799 149.688 3.05522 150.285 4.84874C150.883 6.64226 144.906 10.2293 143.709 10.2293C142.514 10.2293 141.915 7.83886 141.915 7.83886Z" fill="url(#paint31_linear_38_128)"/>
<path d="M197.421 63.2175C197.421 63.2175 204.28 90.3698 238.692 60.4576L236.055 58.8474C236.055 58.8474 205.758 80.3407 200.419 43.6762C200.419 43.6762 197.421 59.9199 197.421 63.2175Z" fill="url(#paint32_linear_38_128)"/>
<path d="M238.514 60.6492C238.514 60.6492 245.712 60.7663 246.069 57.1476C246.426 53.5288 242.767 52.5762 240.938 52.0993C239.109 51.6223 235.93 57.8258 236.008 59.0197C236.088 60.2121 238.514 60.6492 238.514 60.6492Z" fill="url(#paint33_linear_38_128)"/>
<defs>
<linearGradient id="paint0_linear_38_128" x1="414.501" y1="391.215" x2="127.89" y2="140.43" gradientUnits="userSpaceOnUse">
<stop stop-color="#DAE3FE"/>
<stop offset="1" stop-color="#E9EFFD"/>
</linearGradient>
<linearGradient id="paint1_linear_38_128" x1="103.943" y1="349.836" x2="231.033" y2="271.571" gradientUnits="userSpaceOnUse">
<stop stop-color="#FF928E"/>
<stop offset="1" stop-color="#FE7062"/>
</linearGradient>
<linearGradient id="paint2_linear_38_128" x1="309.318" y1="200.979" x2="525.738" y2="56.3797" gradientUnits="userSpaceOnUse">
<stop stop-color="#FF928E"/>
<stop offset="1" stop-color="#FE7062"/>
</linearGradient>
<linearGradient id="paint3_linear_38_128" x1="309.318" y1="200.979" x2="525.738" y2="56.3797" gradientUnits="userSpaceOnUse">
<stop stop-color="#FFE5E4"/>
<stop offset="1" stop-color="#FFDDD9"/>
</linearGradient>
<linearGradient id="paint4_linear_38_128" x1="309.318" y1="200.979" x2="525.738" y2="56.3797" gradientUnits="userSpaceOnUse">
<stop stop-color="#FFE5E4"/>
<stop offset="1" stop-color="#FFDDD9"/>
</linearGradient>
<linearGradient id="paint5_linear_38_128" x1="54.7073" y1="314.131" x2="141.706" y2="314.131" gradientUnits="userSpaceOnUse">
<stop stop-color="#FF928E"/>
<stop offset="1" stop-color="#FE7062"/>
</linearGradient>
<linearGradient id="paint6_linear_38_128" x1="142.96" y1="244.396" x2="3.9438" y2="385.344" gradientUnits="userSpaceOnUse">
<stop stop-color="#FF928E"/>
<stop offset="1" stop-color="#FE7062"/>
</linearGradient>
<linearGradient id="paint7_linear_38_128" x1="142.96" y1="244.396" x2="3.94394" y2="385.344" gradientUnits="userSpaceOnUse">
<stop stop-color="#FFE2E0"/>
<stop offset="1" stop-color="#FFD8D5"/>
</linearGradient>
<linearGradient id="paint8_linear_38_128" x1="142.96" y1="244.396" x2="3.94422" y2="385.344" gradientUnits="userSpaceOnUse">
<stop stop-color="#FFE2E0"/>
<stop offset="1" stop-color="#FFD8D5"/>
</linearGradient>
<linearGradient id="paint9_linear_38_128" x1="92.2869" y1="464.368" x2="375.178" y2="273.199" gradientUnits="userSpaceOnUse">
<stop stop-color="#FF928E"/>
<stop offset="1" stop-color="#FE7062"/>
</linearGradient>
<linearGradient id="paint10_linear_38_128" x1="323.827" y1="201.004" x2="240.969" y2="461.009" gradientUnits="userSpaceOnUse">
<stop stop-color="#FF928E"/>
<stop offset="1" stop-color="#FE7062"/>
</linearGradient>
<linearGradient id="paint11_linear_38_128" x1="323.827" y1="201.004" x2="240.969" y2="461.009" gradientUnits="userSpaceOnUse">
<stop stop-color="#FFE5E4"/>
<stop offset="1" stop-color="#FFDDD9"/>
</linearGradient>
<linearGradient id="paint12_linear_38_128" x1="323.827" y1="201.004" x2="240.969" y2="461.009" gradientUnits="userSpaceOnUse">
<stop stop-color="#FFE5E4"/>
<stop offset="1" stop-color="#FFDDD9"/>
</linearGradient>
<linearGradient id="paint13_linear_38_128" x1="381.818" y1="114.988" x2="258.771" y2="378.794" gradientUnits="userSpaceOnUse">
<stop stop-color="#4F52FF"/>
<stop offset="1" stop-color="#4042E2"/>
</linearGradient>
<linearGradient id="paint14_linear_38_128" x1="266.362" y1="386.867" x2="189.923" y2="255.43" gradientUnits="userSpaceOnUse">
<stop stop-color="#4F52FF"/>
<stop offset="1" stop-color="#4042E2"/>
</linearGradient>
<linearGradient id="paint15_linear_38_128" x1="209.725" y1="228.627" x2="82.9492" y2="378.706" gradientUnits="userSpaceOnUse">
<stop stop-color="#4F52FF"/>
<stop offset="1" stop-color="#4042E2"/>
</linearGradient>
<linearGradient id="paint16_linear_38_128" x1="125.77" y1="394.438" x2="-28.0389" y2="238.765" gradientUnits="userSpaceOnUse">
<stop stop-color="#4F52FF"/>
<stop offset="1" stop-color="#4042E2"/>
</linearGradient>
<linearGradient id="paint17_linear_38_128" x1="161.957" y1="175.367" x2="307.377" y2="-5.47531" gradientUnits="userSpaceOnUse">
<stop stop-color="#FF928E"/>
<stop offset="1" stop-color="#FE7062"/>
</linearGradient>
<linearGradient id="paint18_linear_38_128" x1="174.53" y1="181.282" x2="162.114" y2="181.282" gradientUnits="userSpaceOnUse">
<stop stop-color="#09005D"/>
<stop offset="1" stop-color="#1A0F91"/>
</linearGradient>
<linearGradient id="paint19_linear_38_128" x1="143.276" y1="166.165" x2="188.942" y2="202.022" gradientUnits="userSpaceOnUse">
<stop stop-color="#4F52FF"/>
<stop offset="1" stop-color="#4042E2"/>
</linearGradient>
<linearGradient id="paint20_linear_38_128" x1="170.456" y1="166.712" x2="167.977" y2="188.345" gradientUnits="userSpaceOnUse">
<stop stop-color="#FEBBBA"/>
<stop offset="1" stop-color="#FF928E"/>
</linearGradient>
<linearGradient id="paint21_linear_38_128" x1="212.501" y1="176.806" x2="168.34" y2="211.481" gradientUnits="userSpaceOnUse">
<stop stop-color="#4F52FF"/>
<stop offset="1" stop-color="#4042E2"/>
</linearGradient>
<linearGradient id="paint22_linear_38_128" x1="192.789" y1="181.459" x2="210.262" y2="181.459" gradientUnits="userSpaceOnUse">
<stop stop-color="#09005D"/>
<stop offset="1" stop-color="#1A0F91"/>
</linearGradient>
<linearGradient id="paint23_linear_38_128" x1="196.567" y1="169.48" x2="194.249" y2="189.716" gradientUnits="userSpaceOnUse">
<stop stop-color="#FEBBBA"/>
<stop offset="1" stop-color="#FF928E"/>
</linearGradient>
<linearGradient id="paint24_linear_38_128" x1="226.999" y1="78.6312" x2="138.871" y2="194.623" gradientUnits="userSpaceOnUse">
<stop stop-color="#09005D"/>
<stop offset="1" stop-color="#1A0F91"/>
</linearGradient>
<linearGradient id="paint25_linear_38_128" x1="208.444" y1="6.32522" x2="149.711" y2="111.205" gradientUnits="userSpaceOnUse">
<stop stop-color="#4F52FF"/>
<stop offset="1" stop-color="#4042E2"/>
</linearGradient>
<linearGradient id="paint26_linear_38_128" x1="172.222" y1="29.5748" x2="183.337" y2="29.5748" gradientUnits="userSpaceOnUse">
<stop stop-color="#FEBBBA"/>
<stop offset="1" stop-color="#FF928E"/>
</linearGradient>
<linearGradient id="paint27_linear_38_128" x1="1104.35" y1="-828.649" x2="1119.12" y2="-842.2" gradientUnits="userSpaceOnUse">
<stop stop-color="#FEBBBA"/>
<stop offset="1" stop-color="#FF928E"/>
</linearGradient>
<linearGradient id="paint28_linear_38_128" x1="169.793" y1="17.1691" x2="187.356" y2="7.48578" gradientUnits="userSpaceOnUse">
<stop stop-color="#09005D"/>
<stop offset="1" stop-color="#1A0F91"/>
</linearGradient>
<linearGradient id="paint29_linear_38_128" x1="1102.4" y1="-830.797" x2="1117.16" y2="-844.349" gradientUnits="userSpaceOnUse">
<stop stop-color="#FEBBBA"/>
<stop offset="1" stop-color="#FF928E"/>
</linearGradient>
<linearGradient id="paint30_linear_38_128" x1="179.534" y1="-9.86471" x2="120.801" y2="95.0156" gradientUnits="userSpaceOnUse">
<stop stop-color="#4F52FF"/>
<stop offset="1" stop-color="#4042E2"/>
</linearGradient>
<linearGradient id="paint31_linear_38_128" x1="148.63" y1="-3.44334" x2="142.353" y2="17.181" gradientUnits="userSpaceOnUse">
<stop stop-color="#FEBBBA"/>
<stop offset="1" stop-color="#FF928E"/>
</linearGradient>
<linearGradient id="paint32_linear_38_128" x1="234.131" y1="43.151" x2="133.4" y2="108.749" gradientUnits="userSpaceOnUse">
<stop stop-color="#4F52FF"/>
<stop offset="1" stop-color="#4042E2"/>
</linearGradient>
<linearGradient id="paint33_linear_38_128" x1="249.322" y1="53.1966" x2="229.163" y2="60.8352" gradientUnits="userSpaceOnUse">
<stop stop-color="#FEBBBA"/>
<stop offset="1" stop-color="#FF928E"/>
</linearGradient>
</defs>
</svg>
