<svg width="153" height="131" viewBox="0 0 153 131" fill="none" xmlns="http://www.w3.org/2000/svg">
<g clip-path="url(#clip0_60_129)">
<path d="M152.782 103.843C152.782 103.892 119.844 103.932 79.2225 103.932C38.5868 103.932 5.65576 103.892 5.65576 103.843C5.65576 103.795 38.5868 103.755 79.2225 103.755C119.844 103.755 152.782 103.795 152.782 103.843Z" fill="#DADBD8"/>
<path d="M129.805 78.0248C129.916 77.9186 130.671 78.4613 131.662 79.581C132.16 80.1375 132.698 80.8494 133.238 81.6794C133.767 82.5156 134.292 83.4742 134.75 84.5236C135.2 85.5764 135.538 86.6168 135.784 87.5758C136.019 88.5387 136.169 89.4194 136.234 90.1643C136.37 91.655 136.248 92.5792 136.095 92.5868C135.739 92.6126 135.414 89.003 133.656 84.9989C131.947 80.9751 129.543 78.2686 129.805 78.0248Z" fill="#E7E8E5"/>
<path d="M137.273 95.5833C137.119 95.6043 136.691 93.6288 136.295 90.392C135.893 87.1572 135.562 82.6621 135.431 77.6975C135.297 72.73 135.354 68.2363 135.45 64.9866C135.552 61.736 135.704 59.7271 135.868 59.7271C136.033 59.7271 136.18 61.7365 136.293 64.9847C136.412 68.232 136.489 72.7171 136.623 77.6645C136.752 82.6105 136.948 87.0812 137.135 90.3175C137.314 93.5537 137.445 95.5608 137.273 95.5833Z" fill="#E7E8E5"/>
<path d="M144.497 67.358C144.651 67.4455 144.028 68.8262 143.211 71.1307C142.376 73.4284 141.351 76.6532 140.344 80.2505C139.357 83.8544 138.577 87.1476 138.111 89.5476C137.626 91.9449 137.45 93.4499 137.273 93.4461C137.121 93.4451 136.999 91.8923 137.279 89.419C137.537 86.9463 138.197 83.5766 139.195 79.9301C140.214 76.2904 141.382 73.0636 142.431 70.8103C143.464 68.5475 144.366 67.2791 144.497 67.358Z" fill="#E7E8E5"/>
<path d="M127.977 91.4541V95.4071C127.977 100.066 131.742 103.843 136.387 103.843C141.032 103.843 144.798 100.066 144.798 95.4071V91.4541H127.977Z" fill="#DADBD8"/>
<path d="M144.95 94.7985C144.95 94.8649 141.15 94.918 136.464 94.918C131.776 94.918 127.977 94.8649 127.977 94.7985C127.977 94.7325 131.776 94.679 136.464 94.679C141.15 94.679 144.95 94.7325 144.95 94.7985Z" fill="#FAFAF9"/>
<path d="M144.95 95.8959C144.95 95.9619 141.15 96.0154 136.464 96.0154C131.776 96.0154 127.977 95.9619 127.977 95.8959C127.977 95.8299 131.776 95.7769 136.464 95.7769C141.15 95.7769 144.95 95.8299 144.95 95.8959Z" fill="#FAFAF9"/>
<path d="M144.046 33.6377H111.876V0H144.046V33.6377Z" fill="#DADBD8"/>
<path d="M141.867 33.6377H109.697V0H141.867V33.6377Z" fill="#E7E8E5"/>
<path d="M137.543 29.1158H114.022V4.52173H137.543V29.1158Z" fill="#FAFAF9"/>
<path d="M114.022 29.2794C114.037 29.2982 113.811 29.5523 113.434 29.9477C113.057 30.3434 112.527 30.88 111.936 31.4649C111.344 32.0498 110.801 32.5721 110.402 32.944C110.003 33.3158 109.747 33.5373 109.73 33.5197C109.712 33.5026 109.937 33.2495 110.315 32.8538C110.692 32.4584 111.223 31.9205 111.816 31.3342C112.41 30.748 112.953 30.2247 113.352 29.8531C113.751 29.4812 114.006 29.2607 114.022 29.2794Z" fill="#DADBD8"/>
<path d="M137.543 29.219C137.561 29.2033 137.815 29.43 138.209 29.8087C138.604 30.1874 139.138 30.7182 139.721 31.3119C140.305 31.9056 140.825 32.45 141.196 32.8502C141.567 33.2507 141.788 33.5072 141.77 33.5242C141.753 33.5416 141.501 33.316 141.106 32.9373C140.712 32.5586 140.176 32.0264 139.591 31.4313C139.007 30.8362 138.485 30.2908 138.115 29.8907C137.744 29.4902 137.524 29.235 137.543 29.219Z" fill="#DADBD8"/>
<path d="M137.478 4.58774C137.463 4.56902 137.689 4.31451 138.066 3.91914C138.444 3.52343 138.973 2.98685 139.565 2.40195C140.157 1.81706 140.699 1.29477 141.098 0.922881C141.497 0.551324 141.753 0.329483 141.77 0.347176C141.788 0.364529 141.563 0.617341 141.185 1.01305C140.808 1.40842 140.278 1.94636 139.684 2.53261C139.091 3.11887 138.547 3.64218 138.148 4.01408C137.749 4.38563 137.494 4.60645 137.478 4.58774Z" fill="#DADBD8"/>
<path d="M113.958 4.64794C113.939 4.66393 113.686 4.43699 113.291 4.05829C112.897 3.67959 112.362 3.14879 111.779 2.55539C111.196 1.96131 110.675 1.41725 110.304 1.01677C109.933 0.616293 109.713 0.360084 109.73 0.342731C109.748 0.325378 110 0.550966 110.394 0.929666C110.788 1.30837 111.324 1.84052 111.909 2.43562C112.493 3.03072 113.015 3.57615 113.386 3.97629C113.756 4.37676 113.976 4.63229 113.958 4.64794Z" fill="#DADBD8"/>
<path d="M137.479 29.1157C137.479 29.1157 137.476 29.0745 137.474 28.9969C137.473 28.9149 137.472 28.8019 137.47 28.6546C137.468 28.3487 137.465 27.9051 137.461 27.3283C137.456 26.1654 137.449 24.4709 137.441 22.3174C137.432 18.0108 137.418 11.8724 137.402 4.52156L137.479 4.59881C130.632 4.60221 122.591 4.60629 114.025 4.61038H114.022L114.11 4.52156C114.106 13.5488 114.102 21.9942 114.098 29.1157L114.022 29.0398C121.055 29.0558 126.909 29.0691 131.01 29.0786C133.062 29.0871 134.674 29.0939 135.78 29.0983C136.328 29.1024 136.75 29.1051 137.04 29.1072C137.18 29.1092 137.288 29.1102 137.366 29.1116C137.439 29.1129 137.479 29.1157 137.479 29.1157C137.479 29.1157 137.445 29.1184 137.375 29.1201C137.298 29.1211 137.193 29.1225 137.057 29.1242C136.77 29.1262 136.353 29.1293 135.811 29.133C134.709 29.1378 133.102 29.1443 131.059 29.1528C126.945 29.1623 121.074 29.1755 114.022 29.1919H113.946V29.1157C113.943 21.9942 113.938 13.5488 113.934 4.52156V4.43311H114.022H114.025C122.591 4.43719 130.632 4.44127 137.479 4.44467H137.556V4.52156C137.539 11.8928 137.526 18.0483 137.517 22.3668C137.508 24.5127 137.501 26.2014 137.497 27.36C137.493 27.9306 137.489 28.3692 137.487 28.6717C137.486 28.8152 137.484 28.9258 137.483 29.0058C137.481 29.0803 137.479 29.1157 137.479 29.1157Z" fill="#DADBD8"/>
<path d="M120.23 14.7966C120.23 14.7966 119.726 20.8858 126.3 20.8858C126.3 17.636 123.628 15.0709 120.23 14.7966Z" fill="#E7E8E5"/>
<path d="M132.259 14.8012C132.259 14.8012 126.189 14.2959 126.189 20.8903C129.428 20.8903 131.986 18.2095 132.259 14.8012Z" fill="#E7E8E5"/>
<path d="M126.009 11.4683C126.009 11.4683 121.049 15.9337 126.28 20.8857C128.713 18.3001 128.506 14.2461 126.009 11.4683Z" fill="#DADBD8"/>
<path d="M45.4604 39.5759H18.1812V11.0522H45.4604V39.5759Z" fill="#DADBD8"/>
<path d="M43.613 39.5759H16.334V11.0522H43.613V39.5759Z" fill="#FAFAF9"/>
<path d="M16.3425 39.5674H43.6046V11.0607H16.3425V39.5674ZM43.6216 39.5844H16.3257V11.0437H43.6216V39.5844Z" fill="#DADBD8"/>
<path d="M39.9465 35.7415H20.0015V14.8865H39.9465V35.7415Z" fill="#FAFAF9"/>
<path d="M20.0012 35.8802C20.0169 35.899 19.8276 36.1171 19.5091 36.4543C19.1906 36.7915 18.743 37.2477 18.2412 37.7435C17.7394 38.2392 17.2783 38.6809 16.9383 38.9942C16.5982 39.308 16.379 39.4934 16.3619 39.4761C16.3447 39.4587 16.5329 39.2416 16.8512 38.9044C17.1698 38.5672 17.6185 38.1099 18.122 37.6125C18.6252 37.1154 19.0872 36.6727 19.4275 36.3593C19.7675 36.0456 19.9855 35.8612 20.0012 35.8802Z" fill="#DADBD8"/>
<path d="M39.9461 35.8288C39.9648 35.8131 40.1822 36.003 40.5184 36.3225C40.8545 36.642 41.3094 37.0911 41.8036 37.5944C42.2978 38.0976 42.7381 38.5603 43.0509 38.9013C43.3633 39.2425 43.5482 39.4624 43.5309 39.4793C43.5135 39.4967 43.2972 39.3078 42.961 38.9884C42.6248 38.6688 42.169 38.2187 41.6734 37.7138C41.1778 37.2092 40.7365 36.7458 40.4237 36.4045C40.1113 36.0632 39.9274 35.8447 39.9461 35.8288Z" fill="#DADBD8"/>
<path d="M39.8915 14.9424C39.8759 14.9236 40.0652 14.7056 40.3837 14.3684C40.7022 14.0312 41.15 13.5749 41.6516 13.0792C42.1533 12.583 42.6144 12.1418 42.9546 11.828C43.2945 11.5147 43.5136 11.3292 43.5309 11.3466C43.5482 11.3639 43.3599 11.581 43.0414 11.9182C42.7229 12.2554 42.2741 12.7127 41.7707 13.2098C41.2677 13.7069 40.8053 14.1499 40.4654 14.4633C40.1252 14.7767 39.9074 14.9611 39.8915 14.9424Z" fill="#DADBD8"/>
<path d="M19.9467 14.9932C19.928 15.0092 19.7106 14.8193 19.3746 14.4998C19.0382 14.1803 18.5835 13.7312 18.0893 13.228C17.5948 12.7244 17.1546 12.262 16.842 11.9211C16.5294 11.5798 16.3445 11.36 16.362 11.3426C16.379 11.3256 16.5955 11.5141 16.9316 11.8336C17.2679 12.1531 17.7238 12.6033 18.2195 13.1082C18.7152 13.6131 19.1563 14.0769 19.4689 14.4178C19.7816 14.7588 19.9655 14.9779 19.9467 14.9932Z" fill="#DADBD8"/>
<path d="M39.8915 35.7416C39.8901 35.7403 39.8884 35.7059 39.8871 35.6402C39.8861 35.5691 39.8847 35.4735 39.8827 35.3493C39.8806 35.0877 39.8776 34.7117 39.8739 34.2234C39.8691 33.2357 39.8623 31.7981 39.8535 29.973C39.844 26.3204 39.8308 21.1173 39.8145 14.8866L39.8915 14.9641C34.0853 14.9672 27.2664 14.9713 20.003 14.9754H20.0012L20.0894 14.8866C20.0847 22.5412 20.0805 29.7025 20.0768 35.7416L20.0012 35.6658C25.9613 35.6817 30.9236 35.695 34.4031 35.7045C36.1412 35.7131 37.5086 35.7198 38.4485 35.7243C38.9125 35.728 39.2697 35.7311 39.5187 35.7331C39.6364 35.7349 39.7273 35.7365 39.7951 35.7375C39.8576 35.7389 39.8901 35.7403 39.8915 35.7416C39.8928 35.743 39.8633 35.7447 39.8036 35.746C39.7378 35.7471 39.6496 35.7484 39.5353 35.7502C39.2897 35.7522 38.9373 35.7553 38.4797 35.759C37.5438 35.7637 36.1822 35.7702 34.4513 35.7787C30.9603 35.7883 25.9812 35.8019 20.0012 35.8175L19.9252 35.8179L19.9251 35.7416C19.9217 29.7025 19.9174 22.5412 19.9126 14.8866V14.7981H20.0012H20.003C27.2664 14.8022 34.0853 14.8063 39.8915 14.8097H39.9688L39.9685 14.8866C39.9522 21.1377 39.939 26.3578 39.9291 30.0224C39.9207 31.84 39.9138 33.2714 39.9091 34.2554C39.9054 34.7372 39.9023 35.1084 39.9003 35.3663C39.8983 35.4868 39.8969 35.58 39.8959 35.6491C39.8942 35.7121 39.8932 35.7433 39.8915 35.7416Z" fill="#DADBD8"/>
<path d="M33.3014 28.6521H26.646V21.9763H33.3014V28.6521Z" fill="#E7E8E5"/>
<path d="M146.455 125.522C146.455 132.81 114.3 138.719 74.6337 138.719C34.9681 138.719 2.8125 132.81 2.8125 125.522C2.8125 118.233 34.9681 112.325 74.6337 112.325C114.3 112.325 146.455 118.233 146.455 125.522Z" fill="#E7E8E5"/>
<path d="M102.04 125.522C102.032 125.526 102.051 125.41 101.916 125.272C101.788 125.132 101.538 124.99 101.194 124.856C100.504 124.588 99.4326 124.341 98.0437 124.117C95.2625 123.667 91.1954 123.302 86.1626 123.073C81.1298 122.846 75.127 122.751 68.4675 122.905C65.1377 122.986 61.6435 123.129 58.0301 123.406C56.2241 123.547 54.3877 123.719 52.5355 123.973C51.6098 124.101 50.679 124.249 49.7548 124.449C49.2934 124.551 48.8325 124.666 48.3854 124.817C48.1618 124.894 47.9416 124.98 47.7376 125.089C47.5413 125.192 47.3262 125.348 47.3164 125.52C47.3218 125.692 47.5375 125.848 47.7333 125.952C47.9373 126.062 48.1576 126.148 48.3806 126.225C48.8277 126.376 49.2891 126.491 49.7505 126.592C50.6747 126.793 51.6055 126.941 52.5316 127.069C54.3848 127.324 56.2218 127.495 58.0282 127.637C61.6421 127.914 65.1372 128.056 68.4675 128.138C75.128 128.292 81.1312 128.197 86.164 127.971C91.1968 127.742 95.263 127.375 98.0441 126.927C99.4335 126.701 100.504 126.456 101.194 126.187C101.538 126.053 101.788 125.911 101.916 125.771C102.051 125.633 102.032 125.518 102.04 125.522C102.038 125.516 102.064 125.636 101.929 125.783C101.802 125.931 101.551 126.079 101.208 126.22C100.516 126.501 99.4454 126.759 98.0556 126.995C95.273 127.465 91.2054 127.851 86.1702 128.096C81.1345 128.338 75.1289 128.446 68.4637 128.302C65.131 128.224 61.6335 128.085 58.0149 127.81C56.206 127.67 54.3667 127.498 52.5078 127.244C51.5788 127.115 50.6446 126.968 49.7128 126.765C49.2476 126.663 48.7819 126.547 48.3239 126.392C48.0946 126.314 47.8678 126.226 47.6488 126.108C47.5403 126.048 47.4321 125.983 47.335 125.892C47.2411 125.805 47.1417 125.682 47.1396 125.518C47.1457 125.355 47.2448 125.234 47.3391 125.147C47.4365 125.057 47.5446 124.992 47.6532 124.933C47.8725 124.815 48.0994 124.728 48.3282 124.649C48.7867 124.494 49.2514 124.379 49.7171 124.277C50.6489 124.075 51.5827 123.927 52.5111 123.798C54.3695 123.544 56.2089 123.373 58.0172 123.233C61.6349 122.958 65.1315 122.819 68.4637 122.742C75.1275 122.597 81.1331 122.705 86.1688 122.947C91.2039 123.193 95.272 123.578 98.0546 124.048C99.445 124.285 100.516 124.542 101.207 124.823C101.551 124.963 101.802 125.112 101.929 125.259C102.064 125.407 102.038 125.527 102.04 125.522Z" fill="#FAFAF9"/>
<path d="M118.37 125.522C118.356 125.526 118.387 125.352 118.228 125.088C118.066 124.828 117.712 124.526 117.184 124.25C116.13 123.692 114.433 123.177 112.219 122.71C107.784 121.775 101.255 121.017 93.1687 120.541C85.0806 120.072 75.4259 119.87 64.7178 120.181C59.3652 120.345 53.7471 120.634 47.9469 121.199C45.048 121.487 42.1016 121.839 39.139 122.359C37.6597 122.623 36.1733 122.924 34.7086 123.338C33.9779 123.548 33.2501 123.783 32.5555 124.096C32.2097 124.253 31.8704 124.43 31.5703 124.656C31.2798 124.876 30.9888 125.168 30.9858 125.518C30.9857 125.868 31.2731 126.162 31.5639 126.383C31.8635 126.609 32.2027 126.786 32.5484 126.944C33.243 127.257 33.9708 127.493 34.7018 127.703C36.1669 128.118 37.6536 128.419 39.1335 128.684C42.0969 129.203 45.0439 129.556 47.9436 129.844C53.7452 130.409 59.3642 130.699 64.7178 130.862C75.4273 131.172 85.083 130.971 93.1706 130.501C101.257 130.026 107.785 129.267 112.22 128.333C114.433 127.866 116.13 127.352 117.184 126.793C117.712 126.516 118.067 126.215 118.228 125.955C118.387 125.691 118.356 125.517 118.37 125.522C118.37 125.522 118.369 125.561 118.363 125.639C118.353 125.716 118.319 125.83 118.243 125.964C118.085 126.232 117.729 126.542 117.201 126.824C116.146 127.396 114.449 127.922 112.234 128.401C107.798 129.357 101.268 130.135 93.1777 130.627C85.0873 131.112 75.4283 131.327 64.713 131.026C59.3566 130.867 53.7342 130.58 47.9264 130.017C45.0239 129.73 42.0735 129.377 39.103 128.857C37.619 128.592 36.1282 128.29 34.6536 127.873C33.9174 127.662 33.1836 127.424 32.4755 127.105C32.1225 126.944 31.7746 126.763 31.4574 126.524C31.2969 126.408 31.1504 126.267 31.0252 126.105C30.9018 125.943 30.8061 125.737 30.8092 125.517C30.8094 125.296 30.9051 125.091 31.0303 124.931C31.1568 124.77 31.3033 124.629 31.464 124.514C31.7817 124.276 32.1297 124.095 32.4827 123.935C33.1909 123.617 33.9243 123.379 34.6604 123.168C36.1346 122.751 37.6251 122.449 39.1088 122.185C42.0782 121.665 45.028 121.313 47.9298 121.026C53.7357 120.463 59.3571 120.177 64.713 120.017C75.4269 119.716 85.0849 119.93 93.1758 120.417C101.266 120.908 107.797 121.686 112.233 122.642C114.448 123.121 116.145 123.647 117.201 124.219C117.729 124.502 118.084 124.811 118.243 125.079C118.319 125.213 118.353 125.327 118.363 125.404C118.369 125.482 118.37 125.522 118.37 125.522Z" fill="#FAFAF9"/>
<path d="M138.632 125.522C138.616 125.526 138.653 125.279 138.47 124.864C138.292 124.45 137.831 123.931 137.099 123.447C135.636 122.462 133.175 121.548 129.944 120.724C123.468 119.075 113.861 117.736 101.95 116.898C90.0369 116.069 75.8002 115.712 60.0179 116.251C52.1291 116.536 43.8496 117.042 35.3154 118.031C31.0509 118.536 26.719 119.154 22.3789 120.066C20.2118 120.528 18.0384 121.061 15.915 121.791C14.8566 122.159 13.8048 122.575 12.8242 123.126C12.3364 123.403 11.8643 123.715 11.46 124.099C11.0644 124.481 10.7319 124.97 10.7241 125.516C10.7269 126.062 11.0568 126.552 11.451 126.936C11.8546 127.321 12.3266 127.634 12.8142 127.911C13.7945 128.464 14.8464 128.88 15.9054 129.249C18.0292 129.979 20.2029 130.513 22.3706 130.975C26.712 131.888 31.0452 132.505 35.3106 133.011C43.8468 134.001 52.1277 134.506 60.0179 134.791C75.8031 135.332 90.0402 134.974 101.953 134.145C113.864 133.306 123.47 131.968 129.946 130.319C133.176 129.494 135.637 128.58 137.099 127.595C137.831 127.111 138.293 126.593 138.47 126.178C138.653 125.764 138.616 125.517 138.632 125.522C138.632 125.522 138.63 125.579 138.622 125.693C138.623 125.752 138.606 125.821 138.584 125.904C138.569 125.989 138.533 126.082 138.487 126.186C138.313 126.607 137.851 127.134 137.119 127.625C135.657 128.624 133.195 129.549 129.963 130.386C123.485 132.057 113.876 133.415 101.962 134.27C90.0454 135.115 75.8041 135.486 60.0126 134.954C52.1186 134.674 43.8336 134.172 35.2907 133.183C31.0214 132.679 26.6841 132.061 22.3345 131.148C20.1621 130.684 17.9832 130.15 15.8475 129.416C14.7827 129.044 13.7236 128.627 12.7272 128.065C12.2315 127.783 11.749 127.464 11.3282 127.063C10.919 126.664 10.5518 126.136 10.5474 125.515C10.5574 124.895 10.927 124.369 11.3373 123.971C11.759 123.571 12.2417 123.254 12.7375 122.972C13.7339 122.412 14.7926 121.994 15.8574 121.624C17.9925 120.89 20.1708 120.356 22.3425 119.894C26.691 118.98 31.0272 118.363 35.2954 117.859C43.8366 116.871 52.1196 116.369 60.0126 116.088C75.8012 115.557 90.0421 115.928 101.959 116.773C113.874 117.627 123.483 118.986 129.961 120.657C133.193 121.493 135.656 122.418 137.119 123.418C137.851 123.908 138.313 124.436 138.486 124.857C138.533 124.961 138.569 125.054 138.584 125.139C138.606 125.222 138.623 125.291 138.622 125.349C138.63 125.464 138.632 125.522 138.632 125.522Z" fill="#FAFAF9"/>
<path d="M77.5609 117.413C71.9986 117.049 66.4134 116.685 60.8391 116.919C55.2639 117.154 49.6601 118.011 44.7215 119.966C42.7802 120.734 40.7877 121.852 40.4441 123.478C40.0733 125.231 41.8365 126.893 43.9261 127.725C48.2349 129.441 53.5571 128.54 58.0408 127.097C62.5235 125.655 66.8457 123.685 71.6959 123.295C75.7244 122.972 79.7644 123.778 83.5689 124.822C87.3734 125.868 91.0721 127.163 95.0081 127.883C98.9447 128.603 103.248 128.704 106.909 127.402C108.866 126.706 110.71 125.432 110.823 123.809C110.904 122.658 110.071 121.551 108.919 120.788C107.767 120.025 106.323 119.559 104.876 119.172C95.5911 116.689 85.453 116.99 75.6057 117.321" fill="#DADBD8"/>
<path d="M8.48936 124.946C7.70877 125.518 6.92819 126.09 6.14736 126.661C5.91338 126.833 5.65233 127.064 5.69141 127.352C5.74032 127.712 6.19545 127.829 6.55708 127.848C9.06876 127.983 10.7855 127.715 13.017 126.55C13.2094 126.45 13.8608 126.101 14.1441 125.887C14.317 125.756 15.0491 125.196 14.9132 125.027C14.7688 124.846 14.5034 124.836 14.2728 124.842C12.2709 124.887 10.4912 124.9 8.48936 124.946Z" fill="#DADBD8"/>
<path d="M101.089 50.5252C101.042 49.6919 100.585 48.8523 99.8268 48.5071C99.1662 48.2064 98.3673 48.3168 97.7396 48.6807C97.1114 49.044 96.639 49.6335 96.2916 50.2718C95.3807 51.9452 95.272 53.9216 95.0819 55.8183C94.8926 57.7154 94.4341 59.3151 93.436 61.1854L100.383 52.8865C100.826 52.1794 101.137 51.359 101.089 50.5252Z" fill="#F03D5F"/>
<path d="M93.436 61.1856L93.8645 60.3829L93.9832 60.5316L93.436 61.1856ZM99.8106 53.5709C98.965 52.6023 98.1257 51.6408 97.3411 50.7448C97.7139 49.7284 98.3821 48.6335 99.5332 48.6335C99.7467 48.6335 99.9769 48.6713 100.225 48.754L100.221 48.7512C100.742 49.1685 101.051 49.8489 101.089 50.5254C101.093 50.5809 101.094 50.6363 101.094 50.6918C101.095 51.4677 100.797 52.2265 100.383 52.8867L99.8106 53.5709Z" fill="#DA314B"/>
<path d="M93.1337 45.9902C93.5422 46.3414 107.072 61.9099 107.072 61.9099L99.7484 67.7365L90.4517 56.1172L93.1337 45.9902Z" fill="#F8A58D"/>
<path d="M52.8212 51.2559C52.4609 51.6565 41.5327 66.2343 41.5327 66.2343L48.3733 73.6717L56.7702 60.9566L52.8212 51.2559Z" fill="#F8A58D"/>
<path d="M52.9497 60.9088C53.7485 61.276 54.1994 62.1313 54.5007 62.9599C54.8019 63.788 55.0264 64.6753 55.5936 65.349C56.1603 66.0226 57.218 66.3922 57.931 65.8768C58.6078 65.3872 58.6426 64.3607 58.3357 63.5824C57.9653 62.6424 57.2146 61.888 56.351 61.3673C55.4868 60.8467 54.5116 60.5421 53.5312 60.3079L52.9497 60.9088Z" fill="#F03D5F"/>
<path d="M57.1523 66.1186C56.5808 66.1186 55.9755 65.8025 55.5937 65.3488C55.2381 64.9267 55.0169 64.4204 54.8277 63.8978C54.7148 63.5861 54.6128 63.2686 54.5008 62.9597C54.3382 62.5127 54.1323 62.059 53.8521 61.677C55.5856 62.6122 57.1599 63.892 58.2652 65.5205L58.3362 65.3952C58.2419 65.5831 58.1084 65.748 57.9311 65.8766C57.6985 66.0445 57.4297 66.1186 57.1523 66.1186Z" fill="#DA314B"/>
<path d="M116.539 90.3704C116.393 90.3217 116.137 90.2738 115.792 90.2265L88.525 78.7573H61.413L34.6841 89.3492C31.9728 90.2562 28.0998 95.5655 30.2946 101.911C30.3555 102.088 30.4193 102.259 30.4857 102.426C32.2401 106.84 37.1162 109.137 41.6928 107.91C45.3848 106.92 50.6916 105.47 56.1519 103.971L56.7644 103.955L73.7712 99.114C76.4346 99.8521 82.0313 101.401 88.2509 103.116L88.2533 103.116C95.8161 105.201 104.296 107.527 109.531 108.931C114.107 110.158 118.983 107.861 120.737 103.447C120.804 103.28 120.868 103.108 120.929 102.932C123.124 96.5862 119.25 91.2769 116.539 90.3704Z" fill="#33535F"/>
<path d="M73.5585 99.1743C73.5575 99.1714 73.589 99.16 73.6505 99.1399C73.7224 99.1174 73.8135 99.0892 73.9269 99.0538C74.1843 98.9778 74.5441 98.8721 75.0065 98.7364C75.9645 98.4624 77.3425 98.0694 79.0784 97.5741L79.0326 97.6544C78.3301 95.0684 77.3959 91.626 76.3168 87.6511L76.4111 87.7238C75.5084 87.7257 74.5761 87.7271 73.6171 87.7285C72.6586 87.7414 71.6758 87.8136 70.6691 87.8571C68.6553 87.9681 66.5534 88.0823 64.3942 88.2009C56.6417 88.6527 49.6323 89.1781 44.5611 89.5903C42.0357 89.7997 39.9875 89.9694 38.5564 90.0884C37.8576 90.1458 37.3101 90.1903 36.9235 90.2218C36.7457 90.2343 36.6053 90.2438 36.4981 90.251C36.4024 90.2567 36.3529 90.2572 36.3525 90.2539C36.3522 90.25 36.4007 90.2419 36.4961 90.229C36.6025 90.2161 36.7423 90.1994 36.919 90.1783C37.305 90.1372 37.8512 90.0789 38.5486 90.0043C39.9641 89.8609 42.0136 89.6605 44.5482 89.4373C49.6171 88.9855 56.6274 88.4356 64.3813 87.9834C66.5414 87.8677 68.6444 87.7543 70.6586 87.6453C71.6662 87.6037 72.6524 87.5335 73.6123 87.5229C74.5727 87.5244 75.5069 87.5258 76.4111 87.5277H76.4864L76.506 87.5999C77.5603 91.582 78.4726 95.0296 79.1589 97.6205L79.1756 97.6836L79.1132 97.7008C77.3706 98.1708 75.9869 98.5442 75.0246 98.8038C74.5594 98.9257 74.1962 99.0208 73.9364 99.0882C73.8206 99.1165 73.7286 99.1394 73.6552 99.1571C73.5918 99.1714 73.5594 99.1776 73.5585 99.1743Z" fill="#17282F"/>
<path d="M64.7264 87.9775C64.6959 88.0258 63.9428 87.595 63.1254 86.9094C62.3056 86.2252 61.7479 85.5597 61.7904 85.5205C61.8356 85.4775 62.4562 86.0679 63.2641 86.7421C64.0701 87.4186 64.7607 87.9254 64.7264 87.9775Z" fill="#17282F"/>
<path d="M113.325 91.3591C113.325 91.3668 113.196 91.3639 112.952 91.3515C112.689 91.3357 112.332 91.3137 111.883 91.287C110.935 91.2219 109.598 91.1301 107.955 91.0173C104.62 90.7926 100.047 90.4842 94.9948 90.1438C89.9382 89.8373 85.363 89.5596 82.027 89.3573C80.3826 89.2593 79.0452 89.1799 78.0967 89.1235C77.6477 89.0934 77.2916 89.069 77.029 89.0513C76.7845 89.0322 76.6568 89.0184 76.6572 89.0112C76.6572 89.0035 76.7859 89.0031 77.0304 89.0074C77.294 89.0155 77.6515 89.026 78.101 89.0389C79.0499 89.0786 80.3888 89.135 82.0346 89.2039C85.3563 89.3573 89.9439 89.6026 95.0082 89.9267C100.071 90.2509 104.652 90.5927 107.966 90.8643C109.608 91.0058 110.943 91.121 111.889 91.2023C112.337 91.2463 112.693 91.2817 112.955 91.308C113.198 91.3338 113.326 91.3515 113.325 91.3591Z" fill="#17282F"/>
<path d="M74.0091 90.8362C73.9705 90.7956 74.419 90.3844 75.1283 90.2061C75.8351 90.022 76.4257 90.1674 76.4109 90.2214C76.4042 90.2859 75.8404 90.2439 75.1817 90.4174C74.521 90.5814 74.0458 90.8893 74.0091 90.8362Z" fill="#17282F"/>
<path d="M74.7486 92.5648C74.741 92.5046 75.2362 92.397 75.8544 92.3229C76.4726 92.2493 76.9788 92.2378 76.9864 92.2976C76.9931 92.3573 76.4979 92.4654 75.8802 92.539C75.2624 92.6131 74.7553 92.6241 74.7486 92.5648Z" fill="#17282F"/>
<path d="M75.0816 94.5711C75.0825 94.5065 75.6879 94.4898 76.3919 94.2809C77.0978 94.0796 77.6183 93.7688 77.6531 93.8229C77.6888 93.8659 77.1974 94.2766 76.4519 94.4898C75.7088 94.7093 75.0749 94.6265 75.0816 94.5711Z" fill="#17282F"/>
<path d="M75.7451 96.7307C75.7428 96.6662 76.3243 96.6193 76.9834 96.3673C77.646 96.1226 78.1145 95.7745 78.155 95.8247C78.195 95.8639 77.7632 96.31 77.0597 96.5715C76.3586 96.8378 75.7404 96.7862 75.7451 96.7307Z" fill="#17282F"/>
<path d="M88.1709 86.9424C88.2157 86.9859 87.761 87.5166 87.2534 88.2075C86.7419 88.8964 86.3687 89.4869 86.3144 89.4568C86.2629 89.4305 86.5575 88.7812 87.0789 88.0779C87.597 87.3732 88.1304 86.9013 88.1709 86.9424Z" fill="#17282F"/>
<path d="M76.506 87.5998L70.0095 86.6144C70.0095 86.6144 69.4175 85.0792 68.4161 85.0027C67.4152 84.9248 66.491 86.0326 65.7603 85.9632C65.0296 85.8934 56.3082 82.9545 55.8105 86.918L59.4377 88.4188" fill="#F8A58D"/>
<path d="M97.8158 91.1904L78.482 95.3484L76.7466 88.6904L83.8999 88.3428C83.8999 88.3428 84.7569 86.9391 85.7555 87.0428C86.754 87.1461 87.4656 88.4016 88.1968 88.4647C88.9284 88.5273 98.0336 87.202 97.8158 91.1904Z" fill="#F8A58D"/>
<path d="M61.087 79.4304C61.087 79.4304 61.0317 79.4615 60.9202 79.5146C60.802 79.5696 60.6366 79.646 60.4231 79.746C59.9855 79.9496 59.3349 80.2379 58.4936 80.6008C56.8125 81.3294 54.3593 82.3354 51.3169 83.5478C48.276 84.7656 44.645 86.1865 40.6573 87.8737C38.6627 88.7152 36.5254 89.5093 34.4895 90.685L34.1113 90.9111C34.079 90.9302 34.0519 90.9479 34.042 90.9599L34.0397 90.9513L34.0336 90.9288C34.0631 90.9489 34.1377 90.9728 34.2049 90.9842C34.4844 91.0349 34.7849 91.0459 35.081 91.0569C35.6767 91.0741 36.2798 91.066 36.8867 91.0531C38.101 91.0249 39.3334 90.9689 40.58 90.9054C45.568 90.6386 50.315 90.2805 54.631 89.9535C58.9445 89.6083 62.8301 89.297 66.095 89.035C69.3528 88.7635 71.991 88.5431 73.8222 88.3905C74.7293 88.3164 75.4356 88.2586 75.9232 88.2189C76.1582 88.2012 76.3398 88.1878 76.4704 88.1783C76.5934 88.1697 76.6573 88.1701 76.6573 88.1701C76.6573 88.1701 76.5943 88.1816 76.4719 88.1959C76.3422 88.2098 76.1611 88.2289 75.9266 88.2543C75.4399 88.3021 74.734 88.3705 73.8284 88.4589C71.9982 88.6253 69.3614 88.8643 66.1055 89.1598C62.8444 89.4457 58.9598 89.7761 54.6434 90.1165C50.327 90.4521 45.5805 90.8155 40.5891 91.0823C39.3415 91.1463 38.1081 91.2018 36.8904 91.2295C36.2818 91.2424 35.677 91.2501 35.0756 91.2319C34.7741 91.2204 34.4759 91.2109 34.1706 91.1554C34.0929 91.1377 34.019 91.1277 33.9247 91.065C33.8992 91.0407 33.8677 91.0115 33.8662 90.9493C33.8667 90.902 33.895 90.8599 33.9121 90.8446C33.9512 90.8016 33.9905 90.782 34.021 90.7624L34.403 90.5348C36.4575 89.3511 38.602 88.5593 40.5945 87.7231C44.5874 86.0435 48.225 84.6341 51.2707 83.4312C54.3188 82.2335 56.7782 81.2463 58.4669 80.5377C59.3049 80.182 59.9579 79.9047 60.4083 79.7135C60.6252 79.6207 60.7929 79.549 60.9126 79.4978C61.027 79.4505 61.087 79.4304 61.087 79.4304Z" fill="white"/>
<path d="M87.8286 79.4304C87.83 79.427 87.8725 79.4433 87.9544 79.4763C88.0436 79.514 88.1632 79.5647 88.3153 79.6293C88.6408 79.7698 89.1046 79.9706 89.6985 80.2269C90.9105 80.7447 92.6493 81.4872 94.7946 82.4027C99.1177 84.2133 105.076 86.7095 111.656 89.4662C113.308 90.1423 114.924 90.8145 116.401 91.6416C116.585 91.7453 116.768 91.8495 116.947 91.959C117.036 92.0135 117.126 92.0604 117.221 92.1374C117.244 92.1627 117.268 92.1799 117.289 92.2124C117.307 92.2526 117.333 92.2856 117.319 92.3468C117.314 92.408 117.277 92.4281 117.248 92.463L117.163 92.5132C116.732 92.6575 116.327 92.6446 115.918 92.6662C115.105 92.6838 114.311 92.6556 113.537 92.6222C110.446 92.4735 107.672 92.2167 105.343 92.003C103.014 91.7826 101.132 91.5828 99.8317 91.4384C99.1902 91.3638 98.6878 91.3055 98.3361 91.2644C98.1721 91.2428 98.0434 91.2266 97.9476 91.2137C97.8599 91.2012 97.8156 91.1931 97.816 91.1902C97.8165 91.1874 97.8613 91.1888 97.9495 91.1955C98.0458 91.2041 98.1749 91.2146 98.3399 91.2285C98.6926 91.262 99.1954 91.3093 99.8389 91.37C101.151 91.4905 103.033 91.664 105.354 91.8778C107.683 92.0762 110.458 92.3195 113.545 92.4596C114.316 92.4902 115.108 92.5165 115.913 92.4969C116.308 92.4783 116.738 92.4768 117.093 92.3568L117.141 92.3286L117.15 92.3176C117.158 92.3272 117.139 92.2937 117.107 92.2665C117.042 92.2129 116.947 92.1598 116.859 92.1072C116.681 91.9992 116.5 91.8955 116.316 91.7936C114.851 90.9741 113.24 90.3062 111.589 89.6297C105.003 86.872 99.0439 84.3701 94.7456 82.518C92.5964 81.5923 90.8634 80.8288 89.6703 80.29C89.0831 80.0203 88.6227 79.8095 88.301 79.6613C88.1518 79.5905 88.0345 79.5346 87.9468 79.4925C87.8677 79.4538 87.8281 79.4328 87.8286 79.4304Z" fill="white"/>
<path d="M73.5418 40.4072C76.9016 40.644 79.7047 37.8655 79.5069 34.4929C79.4239 33.0859 79.3553 32.0111 79.3553 32.0111C79.3553 32.0111 83.7794 31.3211 83.8342 26.8838C83.8886 22.447 83.1217 12.2581 83.1217 12.2581C78.0012 10.0505 72.0909 10.796 67.6739 14.2057L67.0186 14.712L68.3617 35.188C68.5447 37.9822 70.7573 40.2112 73.5418 40.4072Z" fill="#F8A58D"/>
<path d="M79.363 31.947C79.363 31.947 76.5675 32.1753 73.5962 30.3032C73.5962 30.3032 74.9594 33.4965 79.3735 33.0967L79.363 31.947Z" fill="#F68260"/>
<path d="M67.5642 19.3081C67.4889 19.2751 64.5242 18.4064 64.621 21.4397C64.7177 24.4734 67.7339 23.7504 67.7367 23.663C67.7391 23.5759 67.5642 19.3081 67.5642 19.3081Z" fill="#F8A58D"/>
<path d="M66.7756 22.5435C66.7623 22.5339 66.7241 22.5823 66.6369 22.6258C66.5506 22.6683 66.4024 22.701 66.2432 22.6466C65.92 22.5394 65.6345 22.0392 65.6026 21.4928C65.5859 21.2168 65.6355 20.9521 65.7261 20.7316C65.8109 20.5064 65.9491 20.3471 66.1093 20.3132C66.268 20.2709 66.3848 20.3638 66.4248 20.4482C66.4682 20.5315 66.451 20.5928 66.4667 20.5976C66.4753 20.6047 66.5301 20.5445 66.5015 20.42C66.4872 20.3601 66.4496 20.2896 66.3767 20.2338C66.3023 20.1767 66.1946 20.1502 66.0831 20.1658C65.8505 20.1896 65.6474 20.4114 65.5473 20.6537C65.4353 20.8977 65.3733 21.1954 65.3919 21.5054C65.431 22.1158 65.7609 22.6779 66.2022 22.7905C66.4167 22.8392 66.5921 22.7694 66.6812 22.6949C66.7727 22.617 66.7866 22.5486 66.7756 22.5435Z" fill="#F68260"/>
<path d="M73.1673 18.8344C73.2455 18.7521 73.724 19.107 74.4037 19.1053C75.0829 19.1134 75.5819 18.7627 75.6558 18.846C75.692 18.8831 75.612 19.0321 75.3946 19.1906C75.1811 19.3489 74.8165 19.5023 74.3927 19.5007C73.9695 19.4983 73.6134 19.3421 73.4085 19.1818C73.1993 19.0209 73.1287 18.8715 73.1673 18.8344Z" fill="#17282F"/>
<path d="M79.8494 18.707C79.9271 18.6244 80.407 18.9799 81.0862 18.9779C81.7645 18.9861 82.264 18.6349 82.3374 18.7186C82.3737 18.7557 82.295 18.9047 82.0767 19.0633C81.8632 19.2212 81.4981 19.375 81.0748 19.3733C80.6516 19.3709 80.2955 19.2147 80.0906 19.0544C79.8823 18.8935 79.8108 18.7441 79.8494 18.707Z" fill="#17282F"/>
<path d="M78.0702 23.6841C78.0669 23.6453 78.4896 23.5722 79.1746 23.4844C79.348 23.4664 79.512 23.4317 79.5416 23.3129C79.5826 23.187 79.5096 22.9992 79.4253 22.7967C79.2623 22.3755 79.0916 21.9339 78.9124 21.4708C78.1994 19.5834 77.6832 18.0312 77.7594 18.0026C77.8357 17.9747 78.4744 19.482 79.1874 21.3698C79.359 21.8352 79.5234 22.2789 79.6793 22.7035C79.7451 22.9015 79.858 23.1258 79.7699 23.3867C79.7227 23.5171 79.5954 23.6113 79.4839 23.6413C79.3728 23.6756 79.2751 23.6773 79.1893 23.6824C78.5001 23.7199 78.0731 23.7229 78.0702 23.6841Z" fill="#17282F"/>
<path d="M76.0691 24.1556C76.1801 24.1491 76.1816 24.8892 76.8131 25.4145C77.4432 25.9416 78.2302 25.8585 78.2354 25.962C78.2459 26.0083 78.0605 26.1059 77.7282 26.1148C77.4027 26.126 76.927 26.0212 76.5409 25.6997C76.1553 25.3774 75.9899 24.9477 75.9647 24.6442C75.9366 24.3349 76.019 24.1512 76.0691 24.1556Z" fill="#17282F"/>
<path d="M75.7782 16.6487C75.7115 16.8342 75.0328 16.7464 74.2354 16.843C73.4356 16.9233 72.7921 17.1574 72.6868 16.991C72.6396 16.9114 72.7516 16.7372 73.0119 16.5579C73.2692 16.3785 73.6806 16.2081 74.1591 16.1547C74.6381 16.1019 75.0766 16.1785 75.3669 16.2969C75.6596 16.4153 75.8073 16.5609 75.7782 16.6487Z" fill="#17282F"/>
<path d="M82.0345 17.3C81.9153 17.4548 81.4473 17.2942 80.8839 17.2867C80.321 17.2591 79.8434 17.3905 79.7343 17.2285C79.6861 17.1499 79.761 16.9947 79.9693 16.8481C80.1747 16.7021 80.5183 16.5827 80.9049 16.5943C81.2919 16.6069 81.627 16.747 81.8234 16.906C82.0221 17.0648 82.0879 17.2244 82.0345 17.3Z" fill="#17282F"/>
<path d="M85.2772 9.45663C85.3249 8.90681 85.1204 8.31645 84.6743 7.9932C84.2281 7.67001 83.5361 7.69042 83.1738 8.10584C83.3812 7.36478 82.7773 6.51042 82.0113 6.46175C81.2902 6.41547 80.6748 6.96227 79.978 7.15418C79.2974 7.34131 78.5671 7.17933 77.9123 6.91499C77.2578 6.6506 76.6458 6.28552 75.9833 6.04288C74.6006 5.53662 73.0201 5.59987 71.6826 6.21576C70.3452 6.83194 69.267 7.99287 68.7485 9.37463C67.7809 9.07113 66.6818 9.56382 66.085 10.3859C65.4888 11.2079 65.3353 12.2876 65.4544 13.2971C65.5345 13.9796 65.7314 14.6387 65.9601 15.2882C65.9597 15.3454 65.9544 15.4012 65.9554 15.4583C66.0011 17.8983 66.2762 20.7636 67.3138 20.7796C69.1226 20.8074 68.6917 17.389 68.6917 17.389C70.9114 16.5288 70.0845 13.1926 70.6398 12.6866C71.1946 12.1807 72.3556 11.0048 77.0028 13.3872C78.8078 14.3124 81.2068 14.2834 82.5166 13.9857C82.5552 13.9772 82.5942 13.9711 82.6324 13.9619L82.6595 13.9565L82.6977 13.9408C83.1152 13.8316 83.518 13.6697 83.8893 13.4335C84.3101 13.1664 84.6933 12.8047 84.8721 12.3382C85.0503 11.8718 84.9831 11.2892 84.6185 10.9494C84.9612 10.5176 85.2296 10.0065 85.2772 9.45663Z" fill="#17282F"/>
<path d="M80.8612 3.64863C80.8664 3.64523 80.8946 3.6864 80.9441 3.7684C80.998 3.84802 81.0557 3.97629 81.1229 4.14574C81.2492 4.48531 81.3407 5.02733 81.2158 5.67382C81.0933 6.30941 80.7254 7.07054 79.9937 7.57002C79.254 8.06409 78.2426 8.15937 77.2712 8.01202C76.2884 7.86878 75.4056 7.54826 74.582 7.38016C73.7608 7.19882 72.9953 7.16856 72.3814 7.32609C71.7641 7.46694 71.3209 7.75241 71.0635 7.99194C70.8061 8.23558 70.7084 8.41286 70.6931 8.40263C70.6879 8.39957 70.7103 8.35501 70.7584 8.27264C70.807 8.19031 70.89 8.07499 71.0158 7.9426C71.2656 7.68027 71.7165 7.36587 72.3513 7.2046C72.9819 7.02532 73.7808 7.04468 74.6149 7.22024C75.4538 7.38289 76.3389 7.69796 77.2964 7.8368C78.2454 7.98071 79.2082 7.88853 79.9041 7.43362C80.5943 6.97359 80.9613 6.256 81.0938 5.64762C81.2292 5.02972 81.1605 4.50437 81.0576 4.16752C80.9537 3.82727 80.8431 3.6585 80.8612 3.64863Z" fill="#33535F"/>
<path d="M79.7132 4.47564C79.7204 4.45998 79.9525 4.67842 79.9987 5.15479C80.0182 5.38753 79.9854 5.67535 79.849 5.95877C79.7142 6.2429 79.4696 6.50352 79.1613 6.68491C78.8514 6.8652 78.5126 6.95131 78.2051 6.96116C77.8972 6.97306 77.6241 6.91966 77.4058 6.85263C76.9668 6.71178 76.7419 6.53244 76.7528 6.51681C76.7657 6.49027 77.0116 6.62773 77.4387 6.73148C77.8567 6.83322 78.4992 6.8717 79.0721 6.53211C79.3529 6.3664 79.5755 6.13504 79.7032 5.88562C79.8333 5.63557 79.8767 5.37596 79.8738 5.16158C79.8643 4.72436 79.6836 4.48993 79.7132 4.47564Z" fill="#17282F"/>
<path d="M95.2049 77.5271C95.2049 77.5271 95.488 79.6379 93.3612 80.7921L88.5248 78.7577L82.5659 79.1594L84.9162 72.7566C84.9162 72.7566 91.6129 73.5804 92.561 74.341C93.5085 75.1017 95.2806 76.5202 95.2049 77.5271Z" fill="#F03D5F"/>
<path d="M95.2049 77.5271C95.2049 77.5271 95.488 79.6379 93.3612 80.7921L88.5248 78.7577L82.5659 79.1594L84.9162 72.7566C84.9162 72.7566 91.6129 73.5804 92.561 74.341C93.5085 75.1017 95.2806 76.5202 95.2049 77.5271Z" fill="#F03D5F"/>
<path d="M93.3608 80.7921L88.5248 78.7578L82.5659 79.1594C83.0378 78.9644 83.5077 78.764 83.9753 78.5642C87.0167 77.2618 89.9228 75.9595 92.1425 75.9595C93.4299 75.9595 94.4861 76.3974 95.2049 77.5272C95.2049 77.5272 95.2172 77.6199 95.2172 77.7782C95.2172 78.3715 95.0414 79.8799 93.3608 80.7921Z" fill="#9C2438"/>
<path d="M95.2051 77.5271C95.2055 77.4822 95.2051 77.4368 95.2041 77.3909C95.206 77.4157 95.2074 77.4406 95.2074 77.4645C95.207 77.4855 95.206 77.5066 95.2051 77.5271Z" fill="#9C2438"/>
<path d="M100.224 48.7541L99.7416 48.3339L89.5135 40.2997C86.3567 36.9329 84.0598 35.9197 79.619 35.3933C79.2272 35.3467 79.3802 35.3657 79.538 35.3848C79.6724 35.4011 79.8102 35.4171 79.619 35.3933C76.212 36.4457 71.6497 36.5464 68.2427 35.4899C66.6626 35.5569 65.3543 36.0449 64.0106 36.3031C59.7781 37.1167 57.5165 40.1153 55.8859 43.0636L47.6992 56.8427L48.05 57.3868C49.193 59.16 50.896 60.4978 52.886 61.1858L53.436 61.4611C55.3325 62.4111 57.0723 63.7627 58.2653 65.5207L61.8715 59.204L60.8582 69.3302L60.158 79.2757C65.2442 80.6651 69.4848 81.2541 74.9532 81.1685C77.7263 81.1809 80.9193 79.8724 83.9755 78.5643C88.7809 76.507 93.247 74.4493 95.205 77.5273C95.2508 74.947 92.0115 71.4133 91.115 69.7027C88.3286 64.3857 88.8524 62.2357 88.6498 58.2454L93.4357 61.1858L94.2932 59.5024C95.0182 58.08 96.4023 54.9145 96.918 52.4456C96.918 52.4456 97.4819 47.8381 100.224 48.7541Z" fill="#F03D5F"/>
<path d="M61.8961 48.9993C61.91 48.9993 61.9228 49.147 61.9333 49.4152C61.9438 49.683 61.9533 50.0707 61.96 50.5498C61.9734 51.5074 61.9786 52.8303 61.9719 54.2919C61.9653 55.7534 61.9476 57.0763 61.9252 58.034C61.9138 58.513 61.9009 58.9003 61.8876 59.168C61.8747 59.4358 61.8604 59.584 61.8466 59.584C61.8332 59.584 61.8204 59.4358 61.8099 59.168C61.7989 58.9003 61.7898 58.5125 61.7832 58.0335C61.7693 57.0758 61.7641 55.7525 61.7713 54.2904C61.7779 52.8298 61.7956 51.5064 61.818 50.5488C61.8289 50.0702 61.8418 49.6825 61.8551 49.4147C61.8685 49.147 61.8823 48.9993 61.8961 48.9993Z" fill="#17282F"/>
<path d="M89.231 65.0598C89.2171 65.0607 89.1876 64.8317 89.1461 64.4167C89.1066 63.9673 89.0537 63.3745 88.9898 62.6578C88.8668 61.1723 88.7105 59.1189 88.5499 56.8503C88.3897 54.5807 88.2558 52.5259 88.1685 51.0375C88.1309 50.3189 88.0994 49.7251 88.0756 49.2743C88.0584 48.8579 88.0556 48.6265 88.0689 48.626C88.0828 48.625 88.1123 48.8536 88.1538 49.2685C88.1938 49.7184 88.2462 50.3108 88.3101 51.0275C88.4336 52.5129 88.5899 54.5664 88.75 56.836C88.9111 59.1045 89.0446 61.1594 89.1318 62.6482C89.17 63.3659 89.2005 63.9606 89.2248 64.4115C89.2419 64.8279 89.2448 65.0588 89.231 65.0598Z" fill="#17282F"/>
<path d="M86.8074 37.8429C86.6449 37.7246 86.4818 37.6119 86.3184 37.5044C86.357 37.5211 86.3946 37.5391 86.4323 37.5589C86.5743 37.6341 86.6997 37.7303 86.8074 37.8429Z" fill="#C3C5C2"/>
<path d="M79.5092 44.7943C79.3538 44.7943 79.197 44.7881 79.0397 44.7756C77.6727 44.664 76.3939 44.06 75.2061 43.372C71.9612 41.4942 69.1257 38.9082 66.9541 35.8463L67.7444 35.7957C69.3311 38.2056 71.9173 39.931 74.7466 40.4673C75.3925 40.5894 76.0493 40.6497 76.7065 40.6497C78.9267 40.6497 81.1493 39.9637 82.9657 38.6803C83.491 38.3094 83.9886 37.8878 84.5734 37.6204C84.9047 37.4686 85.275 37.3723 85.6373 37.3723C85.8723 37.3723 86.1034 37.4128 86.3184 37.5044C86.4819 37.6119 86.6449 37.7245 86.8079 37.8429C87.325 38.3822 87.4456 39.2907 87.1916 40.0226C86.8832 40.9072 86.1682 41.5809 85.4461 42.175C83.7407 43.5779 81.6898 44.7946 79.5092 44.7943Z" fill="#DA314B"/>
<path d="M81.083 60.3078C81.0525 60.3107 81.092 59.7834 80.8661 58.8807C80.7603 58.4284 80.5468 57.8953 80.2117 57.3302C79.8742 56.768 79.389 56.1809 78.7293 55.6836C78.0721 55.1902 77.2441 54.7719 76.289 54.6041C75.3405 54.4415 74.2699 54.4726 73.2509 54.8618C72.7385 55.0406 72.2442 55.3107 71.79 55.6516C71.5545 55.8141 71.3501 56.0164 71.1346 56.211C70.9406 56.4271 70.7366 56.6384 70.5693 56.8837C69.8582 57.8317 69.4583 59.0509 69.4464 60.3074C69.4573 61.5633 69.8582 62.783 70.5689 63.732C70.7362 63.9768 70.9402 64.1881 71.1346 64.4042C71.3496 64.5988 71.5545 64.8015 71.7895 64.9636C72.2442 65.305 72.7385 65.5751 73.2509 65.7539C74.2699 66.1431 75.3405 66.1741 76.2894 66.0116C77.2441 65.8433 78.073 65.425 78.7298 64.932C79.3895 64.4343 79.8747 63.8477 80.2122 63.285C80.5468 62.7203 80.7608 62.1872 80.8666 61.735C81.092 60.8323 81.0525 60.305 81.083 60.3078C81.0863 60.3078 81.0873 60.3403 81.0868 60.403C81.0858 60.4766 81.0839 60.5689 81.0815 60.6836C81.0815 60.8074 81.0744 60.96 81.0439 61.1383C81.0201 61.3176 80.9972 61.5251 80.9328 61.7517C80.8361 62.2116 80.6292 62.7567 80.297 63.3357C79.9614 63.9122 79.4743 64.5166 78.8056 65.0315C78.1393 65.5416 77.2947 65.9772 76.3161 66.1565C75.3447 66.329 74.2456 66.3032 73.1956 65.9078C72.6675 65.7252 72.158 65.4489 71.689 65.0994C71.4473 64.933 71.2352 64.7255 71.0136 64.5252C70.8124 64.3038 70.6022 64.0863 70.4292 63.8343C69.6957 62.859 69.2805 61.6016 69.27 60.3069C69.281 59.0127 69.6961 57.7557 70.4297 56.7804C70.6027 56.5284 70.8129 56.3114 71.0136 56.09C71.2352 55.8897 71.4473 55.6822 71.6894 55.5163C72.158 55.1663 72.6675 54.8905 73.1956 54.7083C74.2451 54.3124 75.3443 54.2866 76.3157 54.4597C77.2942 54.638 78.1388 55.074 78.8051 55.5837C79.4738 56.0981 79.9614 56.7029 80.2965 57.2795C80.6292 57.8585 80.8356 58.4036 80.9328 58.8635C80.9972 59.0901 81.0201 59.2981 81.0439 59.4774C81.0744 59.6557 81.0815 59.8082 81.0815 59.932C81.0839 60.0468 81.0858 60.1391 81.0868 60.2127C81.0873 60.2753 81.0863 60.3078 81.083 60.3078Z" fill="white"/>
<path d="M75.0379 66.1803C74.9893 66.1803 74.9502 63.5503 74.9502 60.3063C74.9502 57.0619 74.9893 54.4319 75.0379 54.4319C75.0865 54.4319 75.1265 57.0619 75.1265 60.3063C75.1265 63.5503 75.0865 66.1803 75.0379 66.1803Z" fill="white"/>
<path d="M79.8664 63.8884C79.8588 63.8979 79.7191 63.8009 79.4737 63.6173C79.2034 63.4098 78.8574 63.1444 78.4432 62.826C77.5781 62.1524 76.3908 61.212 75.0858 60.1644C75.051 60.1362 75.0152 60.1075 74.9828 60.0812L75.0982 60.0769C73.9018 61.2048 72.816 62.2145 72.0263 62.9379C71.6473 63.2788 71.3323 63.5637 71.0849 63.7865C70.8604 63.984 70.7322 64.0887 70.7241 64.0801C70.7155 64.0715 70.828 63.9496 71.0382 63.7373C71.2756 63.5035 71.5782 63.2052 71.9414 62.8475C72.7098 62.1007 73.7812 61.0762 74.9776 59.9479L75.0333 59.8953L75.0934 59.9431C75.1253 59.9694 75.1611 59.9976 75.1959 60.0258C76.5009 61.0738 77.6763 62.0295 78.5214 62.7285C78.9217 63.0646 79.2559 63.3443 79.517 63.5637C79.7492 63.7636 79.874 63.8788 79.8664 63.8884Z" fill="white"/>
<path d="M72.5994 76.2515C71.7996 76.2515 70.9975 76.1778 70.2063 76.0267C69.7406 75.9354 69.4751 75.792 69.4751 75.454C69.4756 75.1676 69.7563 74.8344 70.1262 74.7751C70.3135 74.745 70.5018 74.7325 70.6915 74.7325C70.7858 74.7325 70.8807 74.7359 70.976 74.7416C71.1123 74.7497 71.2491 74.754 71.3854 74.754C73.088 74.754 74.7862 74.1162 76.0622 72.9846C77.6103 71.6119 78.5002 69.6116 80.0535 68.2466C80.6946 67.6824 81.4806 67.2263 82.3323 67.2043C82.35 67.2034 82.3676 67.2034 82.3857 67.2034C83.2217 67.2034 84.0911 67.7159 84.297 68.5268C84.4996 69.3194 84.052 70.125 83.5644 70.7805C81.0197 74.2023 76.8258 76.2519 72.5994 76.2515Z" fill="#DA314B"/>
<path d="M93.436 61.1855L93.7521 60.5649C93.6534 60.7691 93.548 60.9756 93.436 61.1855Z" fill="#C3C5C2"/>
<path d="M93.436 61.1855C93.548 60.9756 93.6534 60.769 93.7521 60.5649L93.8526 60.3674L93.8645 60.3827L93.436 61.1855Z" fill="#AA273C"/>
<path d="M93.864 60.3828L93.8521 60.3675L94.2934 59.5021C94.3292 59.4323 94.3659 59.3587 94.405 59.2808L94.434 59.3152L93.864 60.3828Z" fill="#D8866F"/>
<path d="M93.4353 61.1854L88.8572 58.3723C88.8229 57.8746 88.7872 57.3611 88.75 56.8357C88.6304 55.1413 88.5131 53.5664 88.4097 52.2593L94.4048 59.2802C94.3662 59.3581 94.329 59.4322 94.2932 59.502L93.8519 60.3674L93.7518 60.5649L93.4353 61.1854Z" fill="#DA314B"/>
<path d="M88.6499 58.2448V58.2419C88.6499 58.2433 88.6499 58.2438 88.6499 58.2453V58.2448ZM88.23 52.0505L88.2295 52.0481C88.2295 52.0486 88.2295 52.0495 88.23 52.0505Z" fill="#DA314B"/>
<path d="M88.8572 58.3724L88.6499 58.2453C88.6499 58.2438 88.6499 58.2433 88.6499 58.2419L88.23 52.0505C88.2295 52.05 88.2295 52.0486 88.2295 52.0481L88.4101 52.2594C88.5131 53.5665 88.6303 55.1414 88.75 56.8358C88.7876 57.3612 88.8229 57.8747 88.8572 58.3724Z" fill="#111D23"/>
<path d="M100.317 48.854C100.309 48.8765 100.121 48.7536 99.7438 48.7398C99.3749 48.7216 98.8106 48.8492 98.2963 49.2838C97.7715 49.706 97.4021 50.4542 97.1647 51.3158C96.9302 52.1831 96.7081 53.1627 96.3945 54.1605C95.7882 56.1671 95.0642 57.9241 94.4832 59.1657C94.1948 59.7882 93.9389 60.2807 93.7606 60.6196C93.5771 60.9562 93.4703 61.1393 93.4594 61.1341C93.4489 61.1283 93.5347 60.9342 93.6991 60.589C93.8583 60.241 94.0966 59.7414 94.3697 59.1141C94.9193 57.8629 95.6219 56.1064 96.2253 54.1089C96.5384 53.112 96.762 52.1486 97.0084 51.2704C97.2581 50.3983 97.6523 49.6204 98.2171 49.1868C98.7667 48.7441 99.3649 48.6303 99.7486 48.6714C99.943 48.6872 100.087 48.7388 100.181 48.7775C100.273 48.8225 100.32 48.8483 100.317 48.854Z" fill="#17282F"/>
<path d="M58.2654 65.5206C58.2539 65.5283 58.1357 65.3733 57.9151 65.1004C57.6939 64.8278 57.3693 64.4367 56.9256 63.9955C56.4818 63.5546 55.9184 63.066 55.2125 62.6362C54.5147 62.1935 53.6964 61.7933 52.8408 61.3563C51.9881 60.915 51.1845 60.4699 50.4948 59.9947C49.8023 59.5266 49.2317 59.0242 48.8023 58.558C48.3771 58.0871 48.0902 57.6563 47.9262 57.3427C47.8352 57.1906 47.788 57.0606 47.748 56.9769C47.7103 56.8913 47.6936 56.8454 47.6993 56.8426C47.737 56.8192 48.0268 57.5655 48.8933 58.4724C49.328 58.9199 49.8962 59.4042 50.5863 59.8594C51.2712 60.3212 52.072 60.7587 52.9218 61.199C53.7736 61.6341 54.5972 62.0424 55.2998 62.498C56.0109 62.9417 56.5786 63.4514 57.0152 63.9075C57.4518 64.3655 57.7644 64.7719 57.9699 65.0583C58.0724 65.2022 58.1491 65.316 58.1972 65.3953C58.2468 65.4742 58.2702 65.5173 58.2654 65.5206Z" fill="#17282F"/>
<path d="M85.3832 67.5797C85.3889 67.5816 85.3684 67.649 85.3227 67.7752C85.2741 67.9 85.214 68.0898 85.1087 68.3217C84.9123 68.7921 84.5839 69.4572 84.0925 70.2269C83.1244 71.7621 81.3704 73.6994 78.8805 74.9888C76.3891 76.2783 73.7986 76.589 71.9902 76.4905C71.0799 76.447 70.3496 76.3299 69.8535 76.2175C69.6037 76.1697 69.415 76.1085 69.2853 76.076C69.1566 76.0402 69.0899 76.0182 69.0913 76.0124C69.0928 76.0067 69.1628 76.0167 69.2939 76.0411C69.4259 76.0626 69.6161 76.1128 69.8668 76.1501C70.3644 76.241 71.0918 76.338 71.9945 76.3657C73.7886 76.4308 76.3414 76.1028 78.799 74.8315C81.256 73.5593 83.0015 71.6626 83.9881 70.1581C84.4886 69.4041 84.8318 68.7529 85.0458 68.2935C85.1606 68.0668 85.2302 67.8818 85.2898 67.7618C85.3456 67.6399 85.378 67.5773 85.3832 67.5797Z" fill="#17282F"/>
<path d="M58.5674 64.809C58.9511 59.9357 60.0502 55.1203 61.8176 50.5645C61.7952 51.5211 61.778 52.8373 61.7713 54.2908C61.7642 55.7523 61.7694 57.0757 61.7832 58.0334C61.7904 58.5124 61.799 58.9002 61.8099 59.1679C61.8114 59.2124 61.8137 59.2535 61.8152 59.2917L58.5674 64.809Z" fill="#DA314B"/>
<path d="M61.8151 59.2918C61.8132 59.2536 61.8113 59.2125 61.8099 59.168C61.7989 58.9003 61.7898 58.5125 61.7832 58.0335C61.7693 57.0758 61.7641 55.7525 61.7713 54.2904C61.7779 52.8375 61.7951 51.5208 61.8175 50.5646C61.8437 50.4976 61.8699 50.4307 61.8957 50.3638L61.8876 59.168L61.8151 59.2918Z" fill="#111D23"/>
<path d="M66.7788 35.6679C68.2664 38.8632 72.1929 40.6774 75.6452 41.344C79.0975 42.0102 82.841 40.9234 85.4048 38.5104C87.5778 36.4651 88.8547 33.6345 90.8761 31.4389C94.3241 27.6934 99.9703 26.1555 104.833 27.6373L105.1 22.8067C103.452 21.7352 99.2081 21.346 97.2663 21.6396C93.4413 22.2181 89.8661 24.3177 87.4915 27.3804C85.3604 30.1289 84.105 33.6624 81.279 35.6842C79.2362 37.1453 76.7043 37.1561 74.2305 36.7359C71.7568 36.3154 70.0914 34.0486 68.1801 32.4188L66.7788 35.6679Z" fill="#17282F"/>
<path d="M68.1626 32.4224C69.4509 34.0624 71.4037 35.1604 73.4709 35.4061C75.5376 35.6514 77.6925 35.0416 79.3259 33.7487C79.7677 33.3992 80.3325 32.978 80.8311 33.2393C81.2162 33.4414 81.312 33.9416 81.3635 34.3747C81.4817 35.3751 81.5756 36.4816 80.9889 37.2992C80.426 38.0838 79.4031 38.3632 78.4522 38.521C76.1977 38.895 73.8074 38.8701 71.7188 37.9392C69.6306 37.0083 68.3437 34.7075 68.1626 32.4224Z" fill="#17282F"/>
<path d="M82.2604 34.8687C82.2647 34.8731 82.2261 34.916 82.1498 34.9936C82.0712 35.0691 81.9616 35.1882 81.8033 35.3229C81.4907 35.5952 81.0116 35.9657 80.3563 36.3202C79.7009 36.6693 78.8673 37.0082 77.893 37.1719C76.9235 37.3417 75.8158 37.3437 74.7072 37.0722C73.5918 36.8088 72.6257 36.2862 71.7844 35.7911C71.3631 35.5383 70.9689 35.2981 70.6033 35.0551C70.2401 34.8102 69.9179 34.5594 69.6396 34.3121C69.081 33.8187 68.6977 33.3447 68.4756 32.9929C68.3627 32.8173 68.2874 32.6741 68.2411 32.5747C68.1954 32.475 68.1744 32.4213 68.1801 32.4189C68.1944 32.4114 68.2945 32.6186 68.5324 32.9541C68.7692 33.2893 69.1601 33.7428 69.7211 34.2171C70.0004 34.455 70.3231 34.6965 70.6839 34.9327C71.0457 35.1651 71.4475 35.4039 71.8664 35.6503C72.7072 36.1351 73.6614 36.6434 74.7486 36.9C75.832 37.1654 76.9145 37.1685 77.8663 37.0109C78.8224 36.8592 79.6456 36.539 80.2981 36.209C80.9511 35.8741 81.4358 35.5237 81.7595 35.2699C82.0783 35.0099 82.2499 34.8582 82.2604 34.8687Z" fill="#33535F"/>
<path d="M88.0921 34.8971C88.0669 34.94 87.1913 34.4636 86.1103 33.8808C85.0297 33.2962 84.1522 32.8249 84.1732 32.78C84.1947 32.7368 85.1098 33.1383 86.1942 33.7246C87.2785 34.3098 88.1169 34.8559 88.0921 34.8971Z" fill="#33535F"/>
<path d="M90.4573 31.8053C90.4339 31.8485 89.4601 31.3544 88.2824 30.7025C87.1051 30.0502 86.1695 29.4871 86.1928 29.4442C86.2166 29.4014 87.1904 29.8951 88.3677 30.5473C89.5455 31.1993 90.4811 31.7627 90.4573 31.8053Z" fill="#33535F"/>
<path d="M92.7428 29.247C92.7252 29.2643 92.5136 29.0731 92.1804 28.757C91.7972 28.3916 91.362 27.9771 90.8816 27.5198C90.3987 27.0652 89.9607 26.6539 89.5746 26.2912C89.241 25.9758 89.0384 25.775 89.0546 25.756C89.0699 25.7379 89.301 25.905 89.6571 26.1969C90.0131 26.4892 90.4926 26.9077 91.0031 27.3909C91.5136 27.8741 91.9578 28.3296 92.2691 28.6689C92.5808 29.0084 92.7605 29.2306 92.7428 29.247Z" fill="#33535F"/>
<path d="M93.0868 22.882C93.1087 22.8694 93.2903 23.1396 93.5749 23.5809C93.8942 24.0759 94.2708 24.6595 94.6869 25.3042C95.1087 25.9453 95.4905 26.5254 95.8141 27.0174C96.1034 27.456 96.2769 27.7313 96.2564 27.7459C96.2374 27.7599 96.0277 27.5108 95.7126 27.0896C95.3971 26.6683 94.9776 26.0743 94.5386 25.4012C94.1006 24.7282 93.726 24.1045 93.4681 23.6459C93.2103 23.1872 93.0668 22.8943 93.0868 22.882Z" fill="#33535F"/>
<path d="M98.4128 21.8728C98.4372 21.8688 98.5067 22.1614 98.6116 22.6344C98.7327 23.1733 98.8723 23.7946 99.0268 24.4802C99.1936 25.1631 99.3451 25.7817 99.4757 26.3182C99.593 26.7885 99.6607 27.0814 99.6369 27.0886C99.6144 27.0957 99.5039 26.8157 99.3556 26.3526C99.2074 25.8895 99.0244 25.243 98.8547 24.5207C98.6855 23.7987 98.562 23.1382 98.4886 22.6575C98.4152 22.1771 98.389 21.877 98.4128 21.8728Z" fill="#33535F"/>
<path d="M102.583 21.8147C102.635 21.8171 102.614 22.9641 102.685 24.3751C102.753 25.7862 102.885 26.9257 102.834 26.9328C102.81 26.9362 102.747 26.6551 102.68 26.1945C102.612 25.7338 102.543 25.0934 102.508 24.3836C102.474 23.6738 102.479 23.0297 102.502 22.565C102.525 22.1002 102.56 21.8137 102.583 21.8147Z" fill="#33535F"/>
<path d="M85.0581 38.7682C85.0237 38.8033 84.2292 38.0823 83.284 37.1575C82.3379 36.233 81.5991 35.4552 81.633 35.4202C81.6668 35.3848 82.4613 36.1061 83.407 37.0309C84.3526 37.9554 85.0919 38.7332 85.0581 38.7682Z" fill="#33535F"/>
<path d="M80.268 41.2439C80.2218 41.2579 79.891 40.2939 79.5302 39.0908C79.1689 37.8873 78.9144 36.9006 78.9611 36.8866C79.0078 36.8723 79.3381 37.8363 79.6994 39.0398C80.0602 40.2429 80.3148 41.23 80.268 41.2439Z" fill="#33535F"/>
<path d="M74.937 41.1726C74.8888 41.1624 75.0333 40.2682 75.2592 39.175C75.4851 38.0814 75.7072 37.2036 75.7554 37.2135C75.8026 37.2233 75.6586 38.1175 75.4322 39.2111C75.2063 40.3043 74.9842 41.1825 74.937 41.1726Z" fill="#33535F"/>
<path d="M70.9179 39.6346C70.8736 39.6207 71.1067 38.8023 71.5633 37.8616C72.0166 36.9194 72.5123 36.229 72.5504 36.2549C72.5938 36.2828 72.1701 37.0079 71.722 37.9388C71.2711 38.8684 70.9666 39.6516 70.9179 39.6346Z" fill="#33535F"/>
<path d="M69.8071 34.4937C69.8491 34.5148 69.5326 35.2229 69.0297 36.0341C68.5283 36.8462 68.0359 37.4451 67.9983 37.4165C67.9578 37.3866 68.3825 36.7458 68.8796 35.9405C69.3781 35.1368 69.7623 34.4706 69.8071 34.4937Z" fill="#33535F"/>
<path d="M74.293 35.518C74.3411 35.5306 74.3106 35.8008 74.2768 36.1298C74.2415 36.4588 74.2148 36.7293 74.1653 36.7317C74.1171 36.7344 74.0642 36.4554 74.1014 36.1111C74.1371 35.7671 74.2468 35.5054 74.293 35.518Z" fill="#33535F"/>
<path d="M77.6074 37.1028C77.5602 37.1113 77.4358 36.6254 77.3719 36.0129C77.3066 35.3998 77.3271 34.8989 77.3752 34.8972C77.4248 34.8955 77.483 35.3878 77.5473 35.9942C77.6107 36.6002 77.6565 37.0942 77.6074 37.1028Z" fill="#33535F"/>
<path d="M79.9874 33.5027C80.0384 33.5003 80.1032 34.1127 80.229 34.8593C80.352 35.6061 80.4888 36.2067 80.4402 36.2209C80.3954 36.2349 80.1799 35.6473 80.0546 34.8885C79.9273 34.1301 79.9406 33.504 79.9874 33.5027Z" fill="#33535F"/>
<path d="M49.1981 73.1979L70.4985 60.8204C72.12 59.8785 73.15 58.1717 73.2315 56.2942L73.7944 43.293C73.8097 42.9367 73.5432 42.6316 73.1891 42.5996C72.8697 42.571 72.5756 42.7748 72.4894 43.0844L69.7678 52.8399L44.4263 63.6063C41.5786 64.8163 40.3422 68.1884 41.7299 70.9604C43.1129 73.7239 46.5307 74.7475 49.1981 73.1979Z" fill="#F8A58D"/>
<path d="M69.768 52.8399C69.7703 52.8456 69.6865 52.8901 69.5244 52.9695C69.3461 53.0541 69.1088 53.1674 68.8104 53.3089C68.1703 53.603 67.2723 54.0146 66.1694 54.5209C63.9344 55.5321 60.8344 56.9042 57.3878 58.3658C53.9399 59.8264 50.7969 61.0967 48.5115 61.9889C47.3688 62.4354 46.4417 62.7902 45.7986 63.0287C45.4885 63.142 45.2416 63.2324 45.0564 63.2998C44.8861 63.3601 44.7959 63.3887 44.7935 63.3835C44.7911 63.3777 44.8776 63.3376 45.0438 63.2668C45.2257 63.1913 45.4685 63.0909 45.7735 62.9647C46.4258 62.6998 47.3413 62.3283 48.4652 61.8727C50.7383 60.9509 53.8726 59.6624 57.3192 58.2023C60.7643 56.7417 63.871 55.3882 66.1188 54.4062C67.2313 53.9214 68.1369 53.5274 68.7823 53.2458C69.0864 53.1167 69.328 53.0139 69.5096 52.937C69.6764 52.8676 69.7651 52.8346 69.768 52.8399Z" fill="#F68260"/>
<path d="M42.3325 72.0853C42.3302 72.0686 42.6164 72.0366 43.1167 71.9147C43.3657 71.8492 43.6673 71.7555 43.9947 71.5962C44.321 71.4351 44.6697 71.2075 45.0394 70.9298C45.4081 70.6529 45.8155 70.346 46.2408 70.0094C46.6659 69.6709 47.1076 69.2923 47.574 68.8945C48.5076 68.1061 49.5452 67.2087 50.8336 66.5814C52.109 65.9369 53.4503 65.6123 54.6748 65.4875C55.904 65.3771 57.0212 65.4708 57.9331 65.6558C58.8468 65.8413 59.556 66.1062 60.0326 66.3132C60.2714 66.4155 60.4473 66.5154 60.5698 66.5762C60.6909 66.6393 60.7528 66.6751 60.75 66.6804C60.7476 66.6861 60.6799 66.6608 60.5541 66.6082C60.4273 66.5585 60.2471 66.4686 60.0059 66.3768C59.525 66.1908 58.8158 65.9465 57.9092 65.7787C57.0046 65.6113 55.9016 65.5325 54.6905 65.6501C53.4846 65.7825 52.1658 66.1062 50.9122 66.7397C49.6482 67.355 48.6177 68.2371 47.6787 69.0193C47.2097 69.4137 46.7632 69.7895 46.3315 70.1251C45.8972 70.4598 45.4895 70.7581 45.1127 71.0316C44.7362 71.3041 44.3749 71.5293 44.0367 71.6861C43.6971 71.8401 43.3868 71.9261 43.1327 71.9816C42.8773 72.0342 42.6771 72.0614 42.5411 72.0748C42.4047 72.0877 42.3332 72.0911 42.3325 72.0853Z" fill="#17282F"/>
<path d="M46.416 70.0792C46.4312 70.0782 46.4367 70.1987 46.4893 70.4038C46.5412 70.6075 46.6592 70.8967 46.9119 71.1745C47.1629 71.4456 47.535 71.7315 47.9967 71.8897C48.4595 72.0437 49.0324 72.0489 49.5539 71.83C49.6054 71.8089 49.6544 71.7826 49.7016 71.7616L49.6602 71.874C49.4495 71.3629 49.102 70.9464 48.7231 70.6596C48.3442 70.3694 47.9352 70.2116 47.5842 70.1346C46.8729 69.985 46.418 70.1145 46.416 70.0792C46.4136 70.0691 46.5219 70.0294 46.7271 69.9979C46.9316 69.9668 47.2372 69.9491 47.608 70.0141C47.9762 70.0782 48.4128 70.2312 48.8194 70.53C49.2245 70.8255 49.5982 71.2629 49.8232 71.8061L49.8561 71.8845L49.7827 71.9189C49.7317 71.9418 49.6783 71.9705 49.622 71.993C49.0563 72.2306 48.44 72.2187 47.9448 72.0442C47.4459 71.862 47.0751 71.5565 46.8176 71.2562C46.5615 70.9507 46.4543 70.6338 46.4221 70.4181C46.3885 70.2001 46.4072 70.0787 46.416 70.0792Z" fill="#17282F"/>
<path d="M46.416 70.0793C46.4405 70.0368 46.9116 70.2639 47.4686 70.5871C48.0259 70.9093 48.4573 71.2053 48.433 71.2473C48.4091 71.2899 47.9373 71.0628 47.3804 70.7401C46.8235 70.4174 46.3916 70.1214 46.416 70.0793Z" fill="#17282F"/>
<path d="M49.6238 67.4334C49.6386 67.4296 49.6715 67.5453 49.7692 67.7332C49.866 67.9197 50.0471 68.1735 50.3569 68.3858C50.6629 68.5919 51.0904 68.785 51.5761 68.8324C52.0618 68.8759 52.6209 68.7492 53.078 68.4164C53.1233 68.3844 53.1652 68.3471 53.2057 68.316L53.1919 68.4346C52.8697 67.9856 52.436 67.6605 52.0018 67.4683C51.5671 67.2728 51.1329 67.213 50.7735 67.2192C50.0466 67.2374 49.6338 67.4679 49.6238 67.4334C49.6191 67.4248 49.7149 67.3612 49.9079 67.2833C50.1 67.2059 50.3936 67.1184 50.7692 67.0964C51.1424 67.0739 51.6019 67.1222 52.0656 67.3201C52.528 67.5147 52.9917 67.8542 53.3349 68.3313L53.3845 68.4002L53.3206 68.4504C53.2772 68.4848 53.2315 68.5249 53.1819 68.5594C52.6857 68.9208 52.0828 69.0509 51.5609 68.9949C51.0332 68.9323 50.6028 68.72 50.2835 68.4876C49.9641 68.2486 49.7878 67.9651 49.7068 67.7629C49.6248 67.5582 49.6148 67.4358 49.6238 67.4334Z" fill="#17282F"/>
<path d="M49.6233 67.4335C49.6376 67.3872 50.1481 67.4995 50.7639 67.6855C51.3797 67.8715 51.8678 68.0603 51.8535 68.1072C51.8397 68.154 51.3292 68.0412 50.7129 67.8552C50.0976 67.6697 49.6095 67.4809 49.6233 67.4335Z" fill="#17282F"/>
<path d="M43.9942 71.577C43.984 71.5651 44.0759 71.4871 44.2058 71.3203C44.3347 71.1549 44.4911 70.8843 44.5559 70.5142C44.6166 70.1494 44.6149 69.679 44.4578 69.2157C44.2967 68.7538 43.9507 68.2953 43.4599 68.0157C43.4121 67.987 43.3612 67.964 43.3157 67.9401L43.4294 67.9043C43.1546 68.3833 43.0386 68.914 43.0434 69.3897C43.0454 69.8678 43.1709 70.289 43.3245 70.6151C43.641 71.2715 44.021 71.5536 43.9942 71.577C43.9877 71.5847 43.8904 71.5235 43.7401 71.3796C43.5908 71.2357 43.39 71.0043 43.215 70.6701C43.0403 70.3383 42.8944 69.8984 42.8826 69.3926C42.868 68.8906 42.985 68.3264 43.2764 67.8153L43.3184 67.7417L43.39 67.7795C43.4399 67.8058 43.4948 67.8306 43.5471 67.8617C44.08 68.1658 44.4467 68.6625 44.6118 69.1626C44.7727 69.6704 44.7577 70.1509 44.678 70.5391C44.5932 70.9287 44.4087 71.2075 44.2584 71.3652C44.1064 71.5244 43.9993 71.5842 43.9942 71.577Z" fill="#17282F"/>
<path d="M43.994 71.5772C43.9455 71.5839 43.837 71.0704 43.7515 70.4307C43.666 69.792 43.6358 69.2685 43.6843 69.2618C43.7325 69.2551 43.841 69.7681 43.9269 70.4078C44.0123 71.047 44.0422 71.571 43.994 71.5772Z" fill="#17282F"/>
<path d="M51.9351 66.2617C51.9308 66.2469 52.0375 66.2182 52.211 66.1317C52.3831 66.0461 52.6186 65.885 52.8183 65.6053C53.0132 65.3285 53.1986 64.9393 53.2525 64.4951C53.303 64.05 53.1996 63.5346 52.9069 63.1082C52.8783 63.0656 52.8459 63.0264 52.8183 62.9882L52.936 63.0059C52.5194 63.2908 52.2125 63.6814 52.0266 64.0754C51.8378 64.4703 51.773 64.8676 51.7697 65.1984C51.7682 65.8664 51.968 66.2522 51.9351 66.2617C51.9255 66.2656 51.8688 66.1766 51.8007 65.9973C51.7339 65.8185 51.6596 65.5465 51.6472 65.1994C51.6348 64.8547 51.6891 64.4311 51.8807 64.0075C52.069 63.5858 52.3912 63.1651 52.8364 62.8596L52.9065 62.8108L52.9551 62.8763C52.9856 62.9179 53.0213 62.9609 53.0523 63.0073C53.3726 63.4744 53.4775 64.0338 53.4141 64.5148C53.344 65.0005 53.1395 65.3921 52.9179 65.6808C52.6915 65.9701 52.4265 66.126 52.2387 66.1948C52.049 66.2651 51.936 66.2703 51.9351 66.2617Z" fill="#17282F"/>
<path d="M51.9349 66.2615C51.8882 66.2462 51.9998 65.7776 52.1842 65.2149C52.3682 64.6517 52.5551 64.208 52.6018 64.2238C52.648 64.2391 52.536 64.7076 52.352 65.2704C52.168 65.8326 51.9807 66.2768 51.9349 66.2615Z" fill="#17282F"/>
<path d="M54.6656 65.5536C54.6804 65.5574 54.6532 65.6645 54.6442 65.8581C54.6351 66.0508 54.6609 66.3358 54.8072 66.647C54.9535 66.952 55.2023 67.3039 55.5627 67.5669C55.9259 67.8279 56.4249 67.9885 56.9392 67.9393C56.9902 67.935 57.0402 67.9254 57.0869 67.9197L57.0145 68.0148C56.9687 67.5104 56.7776 67.0515 56.525 66.6972C56.2729 66.3396 55.9583 66.0895 55.6723 65.926C55.0908 65.6 54.6575 65.587 54.6656 65.5536C54.6661 65.5431 54.7719 65.5368 54.9611 65.5646C55.1489 65.5928 55.4225 65.6602 55.7304 65.818C56.0369 65.9748 56.3791 66.2282 56.6551 66.6025C56.9306 66.9726 57.1403 67.4598 57.1904 67.9991L57.198 68.0832L57.1174 68.0937C57.0669 68.1009 57.0116 68.1109 56.9563 68.1157C56.3939 68.1693 55.8553 67.9895 55.4673 67.6993C55.0784 67.4019 54.8367 67.0319 54.6928 66.6972C54.5517 66.3582 54.5446 66.0503 54.5756 65.8519C54.607 65.6516 54.6571 65.5502 54.6656 65.5536Z" fill="#17282F"/>
<path d="M54.6646 65.5534C54.7008 65.5199 55.0544 65.846 55.4548 66.2811C55.8557 66.7161 56.1512 67.0957 56.115 67.1292C56.0797 67.1622 55.7255 66.8366 55.3252 66.4011C54.9243 65.966 54.6288 65.5864 54.6646 65.5534Z" fill="#17282F"/>
<path d="M56.6408 65.4758C56.6379 65.4356 57.0412 65.5833 57.5793 65.3065C57.8362 65.1683 58.1308 64.9389 58.3443 64.6176C58.555 64.2934 58.6751 63.8555 58.615 63.4127C58.6098 63.3692 58.5993 63.3262 58.5926 63.2856L58.6908 63.3549C58.258 63.4118 57.8691 63.593 57.5726 63.8244C57.2723 64.0548 57.0674 64.336 56.9354 64.5894C56.6723 65.1043 56.6732 65.4815 56.6408 65.4758C56.6303 65.4753 56.6193 65.384 56.636 65.2171C56.6522 65.0522 56.6999 64.8107 56.8253 64.5353C56.9497 64.2614 57.157 63.9525 57.4725 63.6977C57.7842 63.4424 58.1999 63.2421 58.6679 63.1794L58.7513 63.1675L58.7652 63.2478C58.7728 63.2927 58.7838 63.3401 58.7899 63.3884C58.8562 63.8798 58.7185 64.358 58.4797 64.7074C58.2332 65.0588 57.9206 65.2821 57.6336 65.4193C57.3434 65.5537 57.0755 65.5695 56.9025 65.548C56.7271 65.5264 56.6384 65.4848 56.6408 65.4758Z" fill="#17282F"/>
<path d="M56.6403 65.4756C56.6055 65.4407 56.8714 65.1175 57.2342 64.7532C57.5969 64.3894 57.9186 64.1221 57.9534 64.1565C57.9877 64.1915 57.7222 64.5146 57.359 64.8785C56.9963 65.2428 56.6746 65.5101 56.6403 65.4756Z" fill="#17282F"/>
<path d="M48.0231 68.5497C48.0126 68.5377 48.1046 68.4598 48.2347 68.2934C48.3634 68.128 48.5198 67.8574 48.5846 67.4869C48.6456 67.1221 48.6437 66.6521 48.4864 66.1888C48.3253 65.7265 47.9797 65.2685 47.4887 64.9883C47.4405 64.9596 47.39 64.9372 47.3445 64.9128L47.4582 64.8769C47.1834 65.356 47.0674 65.8871 47.0721 66.3629C47.0742 66.841 47.1997 67.2622 47.3533 67.5882C47.6695 68.2447 48.0493 68.5268 48.0231 68.5497C48.0164 68.5578 47.9192 68.4962 47.7691 68.3522C47.6196 68.2083 47.4188 67.9769 47.2434 67.6427C47.0691 67.3109 46.9232 66.8711 46.9114 66.3653C46.8968 65.8632 47.0138 65.2996 47.3052 64.7885L47.3472 64.7148L47.4188 64.7526C47.4687 64.7784 47.5236 64.8033 47.5755 64.8344C48.1089 65.1384 48.4754 65.6357 48.6408 66.1353C48.8015 66.643 48.7867 67.124 48.7066 67.5117C48.6218 67.9019 48.4373 68.1801 48.2872 68.3379C48.1351 68.4976 48.0279 68.5569 48.0231 68.5497Z" fill="#17282F"/>
<path d="M48.023 68.5499C47.9744 68.5566 47.8657 68.0436 47.7804 67.4039C47.6946 66.7647 47.6646 66.2411 47.7132 66.2344C47.7613 66.2277 47.87 66.7408 47.9553 67.3805C48.0411 68.0197 48.0712 68.5437 48.023 68.5499Z" fill="#17282F"/>
<path d="M100.592 69.5616L78.8955 59.8317C77.244 59.0916 76.0833 57.5574 75.8169 55.7626L73.969 43.3365C73.9185 42.9959 74.1434 42.6757 74.4804 42.6093C74.7836 42.5495 75.0867 42.7152 75.2011 43.0041L78.7954 52.0955L104.209 59.869C107.391 60.8998 108.619 63.8688 107.538 66.6576C106.487 69.4507 103.309 70.7793 100.592 69.5616Z" fill="#F8A58D"/>
<path d="M78.7955 52.0953C78.7964 52.0896 78.8855 52.1126 79.0528 52.1618C79.2354 52.2173 79.4785 52.2914 79.7826 52.3841C80.4317 52.5892 81.3407 52.8761 82.457 53.2275C84.7138 53.9427 87.8329 54.9276 91.2881 55.9814C94.7442 57.0346 97.8828 57.955 100.157 58.6104C101.282 58.9346 102.198 59.199 102.852 59.3874C103.156 59.4777 103.4 59.5499 103.583 59.6044C103.749 59.6556 103.836 59.6857 103.835 59.6919C103.833 59.6977 103.743 59.6795 103.573 59.6388C103.388 59.5925 103.142 59.5308 102.834 59.4538C102.192 59.2908 101.266 59.0441 100.124 58.7314C97.8399 58.1061 94.6941 57.2048 91.2366 56.1506C87.78 55.0969 84.6657 54.0929 82.4184 53.347C81.3092 52.9727 80.406 52.6672 79.7611 52.4496C79.4613 52.344 79.222 52.2589 79.0419 52.1953C78.8784 52.1355 78.7931 52.1011 78.7955 52.0953Z" fill="#F68260"/>
<path d="M107.072 67.7982C107.072 67.804 107.003 67.8078 106.871 67.8092C106.739 67.8107 106.544 67.8054 106.294 67.7805C106.044 67.7533 105.737 67.7026 105.396 67.5888C105.055 67.4731 104.685 67.2933 104.296 67.0701C103.907 66.8454 103.485 66.6006 103.034 66.3233C102.586 66.0445 102.119 65.7285 101.629 65.3977C100.649 64.7417 99.5711 63.9992 98.2961 63.5369C97.0292 63.055 95.7308 62.8776 94.5597 62.8723C93.3853 62.8819 92.3343 63.0693 91.4826 63.3208C90.6299 63.5737 89.9731 63.8792 89.5298 64.1063C89.3072 64.2187 89.1433 64.3229 89.0265 64.3831C88.9111 64.4467 88.8487 64.4773 88.8454 64.4721C88.842 64.4668 88.8978 64.4266 89.0074 64.353C89.1189 64.2827 89.2781 64.1685 89.4969 64.0456C89.9335 63.7984 90.5879 63.4719 91.4464 63.2008C92.3038 62.9311 93.3672 62.7275 94.5588 62.7093C95.747 62.705 97.0683 62.8809 98.358 63.3705C99.6578 63.8429 100.746 64.5997 101.721 65.2624C102.209 65.5975 102.67 65.9164 103.112 66.1985C103.554 66.4782 103.977 66.7321 104.358 66.9611C104.742 67.1901 105.099 67.3732 105.428 67.4951C105.758 67.6151 106.057 67.6749 106.302 67.7122C106.795 67.7796 107.073 67.7815 107.072 67.7982Z" fill="#17282F"/>
<path d="M102.95 66.285C102.959 66.2841 102.99 66.3988 102.98 66.6111C102.971 66.8224 102.9 67.1375 102.685 67.4573C102.468 67.7719 102.143 68.1033 101.681 68.3294C101.223 68.5469 100.631 68.621 100.064 68.4499C100.007 68.4341 99.9529 68.4121 99.9015 68.3944L99.8252 68.3686L99.849 68.2873C100.011 67.7418 100.326 67.2838 100.686 66.9592C101.046 66.6307 101.451 66.44 101.798 66.341C102.148 66.2415 102.444 66.2282 102.643 66.2372C102.844 66.2473 102.951 66.275 102.95 66.285C102.951 66.3199 102.502 66.2425 101.834 66.4586C101.506 66.5681 101.129 66.7608 100.795 67.0782C100.461 67.3914 100.169 67.826 100.018 68.3375L99.9663 68.23C100.013 68.2457 100.063 68.2658 100.115 68.2806C100.635 68.4379 101.185 68.3753 101.613 68.1807C102.04 67.9828 102.369 67.6706 102.583 67.3856C102.797 67.0935 102.881 66.8047 102.911 66.6039C102.941 66.4022 102.935 66.286 102.95 66.285Z" fill="#17282F"/>
<path d="M102.95 66.2849C102.979 66.3246 102.595 66.6531 102.092 67.0193C101.59 67.3855 101.159 67.6504 101.131 67.6102C101.102 67.571 101.486 67.2421 101.988 66.8764C102.491 66.5101 102.921 66.2453 102.95 66.2849Z" fill="#17282F"/>
<path d="M99.604 64.0694C99.6131 64.0703 99.6164 64.1889 99.5587 64.394C99.5015 64.5967 99.3604 64.8879 99.0778 65.1499C98.7947 65.4057 98.4024 65.6533 97.9019 65.7671C97.4057 65.8742 96.8133 65.8102 96.299 65.5133C96.2485 65.4846 96.2003 65.4506 96.1546 65.4219L96.0859 65.3789L96.1284 65.3053C96.4101 64.8119 96.8219 64.4385 97.2461 64.2052C97.6722 63.968 98.1097 63.8753 98.4706 63.8595C98.8338 63.8428 99.124 63.8977 99.3166 63.9523C99.5096 64.0082 99.6073 64.0598 99.604 64.0694C99.5978 64.1038 99.1774 63.925 98.4791 63.9819C98.1331 64.013 97.7227 64.1139 97.3252 64.3457C96.9286 64.5738 96.5449 64.93 96.2814 65.3928L96.2547 65.2761C96.2971 65.3024 96.3409 65.334 96.3881 65.3598C96.8595 65.6328 97.4081 65.6978 97.8695 65.6074C98.3304 65.5128 98.7217 65.2843 98.9944 65.0562C99.2704 64.8219 99.4186 64.5599 99.4934 64.3711C99.5687 64.1813 99.5888 64.0665 99.604 64.0694Z" fill="#17282F"/>
<path d="M99.6042 64.0696C99.6233 64.115 99.1743 64.3469 98.6014 64.5874C98.0289 64.8284 97.5494 64.9871 97.5304 64.9417C97.5113 64.8967 97.9608 64.6653 98.5332 64.4244C99.1056 64.1834 99.5856 64.0247 99.6042 64.0696Z" fill="#17282F"/>
<path d="M105.426 67.4784C105.422 67.4861 105.312 67.4402 105.15 67.3025C104.99 67.1667 104.784 66.9181 104.663 66.5518C104.547 66.1871 104.484 65.7266 104.587 65.2222C104.696 64.7245 104.998 64.2096 105.48 63.863C105.527 63.8286 105.578 63.7985 105.623 63.7683L105.69 63.7234L105.74 63.7927C106.071 64.2541 106.24 64.7843 106.277 65.2681C106.316 65.7553 106.219 66.1933 106.085 66.5299C105.95 66.8679 105.781 67.1108 105.651 67.2637C105.521 67.4172 105.433 67.4856 105.426 67.4784C105.397 67.4583 105.733 67.1485 105.97 66.4864C106.085 66.1579 106.163 65.7415 106.117 65.2825C106.073 64.8254 105.908 64.3287 105.597 63.8965L105.713 63.9204C105.672 63.9481 105.626 63.9749 105.583 64.0074C105.14 64.3253 104.854 64.7996 104.746 65.2586C104.641 65.7185 104.688 66.1703 104.782 66.5141C104.881 66.8626 105.057 67.1065 105.198 67.2528C105.339 67.4 105.435 67.4655 105.426 67.4784Z" fill="#17282F"/>
<path d="M105.426 67.4779C105.378 67.4769 105.353 66.9711 105.37 66.3486C105.388 65.7256 105.442 65.2222 105.491 65.2236C105.54 65.2251 105.565 65.7309 105.547 66.3534C105.529 66.9759 105.475 67.4798 105.426 67.4779Z" fill="#17282F"/>
<path d="M97.2675 63.1778C97.2666 63.1869 97.1579 63.1936 96.9687 63.1458C96.7809 63.0985 96.5106 62.9756 96.2637 62.7217C96.0211 62.4664 95.7852 62.1107 95.6684 61.6508C95.5593 61.1946 95.6036 60.6463 95.8648 60.1648C95.8896 60.1175 95.9196 60.0725 95.9449 60.029L95.9863 59.9592L96.0607 59.9994C96.5202 60.249 96.8719 60.6204 97.095 61.0072C97.3219 61.395 97.4167 61.7966 97.4391 62.1289C97.4615 62.4631 97.4172 62.7327 97.3705 62.9106C97.3228 63.0898 97.2771 63.1812 97.2675 63.1778C97.2337 63.1721 97.3857 62.781 97.3166 62.1403C97.2799 61.8238 97.1779 61.4495 96.9568 61.0895C96.7389 60.7309 96.4058 60.3871 95.9768 60.1557L96.0926 60.1261C96.0698 60.1658 96.0426 60.2064 96.0197 60.2499C95.7814 60.6883 95.7342 61.1932 95.8271 61.6149C95.9234 62.0347 96.1403 62.3899 96.3543 62.6356C96.5745 62.8838 96.8162 63.0148 96.9897 63.0803C97.1641 63.1458 97.2694 63.163 97.2675 63.1778Z" fill="#17282F"/>
<path d="M97.2673 63.1778C97.2229 63.1979 96.9975 62.791 96.7639 62.2694C96.5304 61.7478 96.3774 61.3089 96.4217 61.2888C96.4665 61.2687 96.6915 61.6751 96.925 62.1967C97.1581 62.7183 97.3116 63.1577 97.2673 63.1778Z" fill="#17282F"/>
<path d="M94.5744 62.7743C94.5825 62.77 94.6416 62.8618 94.6916 63.0516C94.7417 63.239 94.7664 63.5354 94.6654 63.8759C94.5605 64.2124 94.3661 64.5921 94.0219 64.9181C93.6783 65.2361 93.1788 65.4636 92.6325 65.4689C92.5782 65.4703 92.5248 65.466 92.4753 65.4646L92.3942 65.4627L92.3933 65.3776C92.3866 64.8541 92.5391 64.365 92.7674 63.981C92.9948 63.5938 93.2979 63.3155 93.5772 63.1343C93.858 62.9517 94.1135 62.8594 94.2912 62.8135C94.4705 62.7681 94.572 62.7638 94.5744 62.7743C94.5848 62.8063 94.1711 62.8632 93.6464 63.2357C93.3885 63.4217 93.112 63.6937 92.9061 64.0618C92.6998 64.4276 92.5625 64.887 92.5696 65.3752L92.4876 65.2882C92.5334 65.2891 92.582 65.2929 92.6311 65.2915C93.1287 65.2872 93.5915 65.0831 93.9133 64.7962C94.2326 64.5079 94.4366 64.145 94.5462 63.8381C94.6554 63.5245 94.6521 63.2491 94.6244 63.065C94.5968 62.88 94.5601 62.7791 94.5744 62.7743Z" fill="#17282F"/>
<path d="M94.5745 62.7744C94.6131 62.8036 94.3691 63.1985 94.0283 63.657C93.6875 64.115 93.3791 64.4635 93.34 64.4339C93.301 64.4047 93.5455 64.0093 93.8863 63.5513C94.2275 63.0928 94.5355 62.7452 94.5745 62.7744Z" fill="#17282F"/>
<path d="M92.6698 62.8997C92.6731 62.9083 92.5921 62.9575 92.4262 62.9962C92.2623 63.035 92.0025 63.0474 91.7098 62.9475C91.42 62.8452 91.0974 62.6625 90.8247 62.3499C90.5602 62.0377 90.3791 61.5921 90.3934 61.113C90.3943 61.0657 90.4 61.0183 90.4029 60.9748L90.4081 60.8936L90.493 60.8964C90.9491 60.9093 91.3686 61.0604 91.6941 61.2741C92.0225 61.4874 92.2532 61.7632 92.4 62.0142C92.5482 62.2657 92.6178 62.4933 92.6498 62.6506C92.6812 62.8088 92.6803 62.8978 92.6698 62.8997C92.6383 62.9083 92.6007 62.5464 92.2961 62.0792C92.1436 61.8493 91.9186 61.6011 91.6078 61.4104C91.2999 61.2187 90.9091 61.0843 90.4882 61.0733L90.5783 60.9949C90.5759 61.0341 90.5707 61.0762 90.5697 61.1187C90.5564 61.549 90.7156 61.9569 90.9506 62.2456C91.187 62.5325 91.4925 62.7228 91.7527 62.8299C92.2956 63.0412 92.6683 62.86 92.6698 62.8997Z" fill="#17282F"/>
<path d="M92.6699 62.899C92.6393 62.9372 92.3024 62.714 91.9177 62.4013C91.5326 62.0881 91.2461 61.8037 91.2766 61.7654C91.3071 61.7276 91.6441 61.9504 92.0288 62.2636C92.4134 62.5767 92.7008 62.8612 92.6699 62.899Z" fill="#17282F"/>
<path d="M101.254 64.9794C101.249 64.987 101.14 64.9411 100.978 64.8034C100.817 64.6677 100.611 64.419 100.491 64.0523C100.374 63.688 100.312 63.2276 100.415 62.7227C100.523 62.2255 100.826 61.7106 101.308 61.364C101.354 61.3291 101.405 61.2994 101.45 61.2698L101.518 61.2249L101.567 61.2937C101.899 61.7546 102.067 62.2853 102.104 62.7696C102.144 63.2563 102.047 63.6942 101.912 64.0303C101.778 64.3688 101.608 64.6117 101.479 64.7647C101.349 64.9182 101.261 64.9866 101.254 64.9794C101.225 64.9588 101.561 64.6495 101.798 63.9873C101.912 63.6593 101.99 63.2424 101.944 62.7835C101.9 62.3269 101.736 61.8292 101.424 61.3975L101.541 61.4214C101.5 61.4491 101.453 61.4763 101.41 61.5079C100.968 61.8263 100.682 62.3006 100.573 62.76C100.469 63.2195 100.515 63.6713 100.61 64.0151C100.708 64.3641 100.885 64.6074 101.025 64.7532C101.166 64.901 101.262 64.9665 101.254 64.9794Z" fill="#17282F"/>
<path d="M101.254 64.9793C101.205 64.9779 101.18 64.4721 101.198 63.8496C101.215 63.2271 101.269 62.7232 101.318 62.7246C101.367 62.726 101.392 63.2319 101.374 63.8544C101.356 64.4769 101.302 64.9808 101.254 64.9793Z" fill="#17282F"/>
<path d="M10.3204 116.079C10.3173 116.077 10.3383 116.026 10.3827 115.928C10.4324 115.823 10.4989 115.68 10.5837 115.498C10.7547 115.118 10.9767 114.543 11.1745 113.777C11.5656 112.246 11.7019 109.907 11.1242 107.129C10.8557 105.737 10.4231 104.245 9.89481 102.663C9.37447 101.078 8.77029 99.3964 8.27668 97.5792C7.78842 95.7652 7.40339 93.7964 7.47756 91.7334C7.55253 89.6656 8.16262 87.6016 8.83387 85.5472C9.5034 83.49 10.1964 81.4781 10.4039 79.4553C10.6386 77.4358 10.2075 75.4536 9.29034 73.829C8.40204 72.1876 7.28438 70.7834 6.44788 69.3286C5.59842 67.879 5.06707 66.3887 4.73953 65.0027C4.10471 62.2077 4.32716 59.8526 4.63139 58.3002C4.96092 56.7397 5.3285 55.9336 5.3285 55.9336C5.33198 55.9345 5.31787 55.9876 5.28727 56.0904C5.25234 56.2028 5.20567 56.3529 5.1459 56.5446C5.02307 56.9429 4.86397 57.5386 4.71264 58.316C4.43489 59.8646 4.23839 62.2039 4.88609 64.9683C5.21997 66.339 5.75371 67.8101 6.60012 69.2397C7.43466 70.6764 8.55723 72.0748 9.46312 73.7353C10.3995 75.378 10.8498 77.4252 10.6112 79.4763C10.4026 81.5336 9.70454 83.5583 9.0362 85.6137C8.36534 87.6662 7.76206 89.7086 7.68585 91.7411C7.60997 93.773 7.98546 95.7227 8.46605 97.5275C8.95155 99.3367 9.54873 101.018 10.0627 102.608C10.5842 104.195 11.0116 105.699 11.272 107.1C11.8345 109.899 11.6741 112.262 11.2548 113.798C11.043 114.566 10.8069 115.141 10.6227 115.516C10.5294 115.695 10.4564 115.835 10.4019 115.939C10.3511 116.033 10.3237 116.081 10.3204 116.079Z" fill="#17282F"/>
<path d="M7.58423 70.7639C7.58423 70.7639 5.88598 65.3155 8.93259 62.126C9.03964 62.0142 9.22796 62.0668 9.25551 62.2198C9.41823 63.1191 9.62151 65.8591 7.58423 70.7639Z" fill="#F03D5F"/>
<path d="M8.60133 63.9412C8.6304 63.9465 8.5816 64.3299 8.48684 64.9457C8.37545 65.6385 8.24452 66.4513 8.09957 67.3491C7.95739 68.247 7.82884 69.0598 7.71941 69.7516C7.62627 70.3674 7.57051 70.7485 7.53948 70.7461C7.51203 70.7437 7.51484 70.3569 7.56979 69.7334C7.62613 69.1114 7.73547 68.2547 7.88957 67.3147C8.04271 66.3752 8.20625 65.5285 8.33899 64.9185C8.47178 64.3089 8.57264 63.9355 8.60133 63.9412Z" fill="#17282F"/>
<path d="M9.5791 83.6128C9.5791 83.6128 10.6179 78.0009 14.798 76.6101C14.9448 76.5618 15.0866 76.6966 15.0397 76.8443C14.7642 77.7159 13.6662 80.2336 9.5791 83.6128Z" fill="#F03D5F"/>
<path d="M13.6594 78.0592C13.6821 78.0783 13.4605 78.3943 13.0897 78.8949C12.6682 79.4543 12.1734 80.1112 11.6269 80.8365C11.0826 81.5637 10.59 82.2215 10.1704 82.7819C9.80138 83.2824 9.57426 83.5932 9.5479 83.5765C9.52445 83.5621 9.70781 83.2203 10.0469 82.6958C10.3868 82.1718 10.8826 81.4661 11.4572 80.7079C12.0309 79.9486 12.5699 79.2774 12.9718 78.8002C13.3733 78.3236 13.6366 78.041 13.6594 78.0592Z" fill="#17282F"/>
<path d="M8.44931 97.692C8.44931 97.692 7.8182 92.0193 11.4157 89.4706C11.5421 89.3816 11.7168 89.4696 11.7148 89.6245C11.7033 90.5387 11.3818 93.2677 8.44931 97.692Z" fill="#F03D5F"/>
<path d="M10.7456 91.1895C10.773 91.2009 10.6524 91.5676 10.4422 92.1543C10.201 92.8126 9.91791 93.5852 9.60491 94.4391C9.29462 95.2935 9.01378 96.0661 8.77466 96.7249C8.56637 97.3111 8.43915 97.6749 8.40893 97.6663C8.38243 97.6596 8.45903 97.2795 8.63143 96.6785C8.80497 96.078 9.07532 95.2581 9.4052 94.365C9.73427 93.4714 10.0559 92.6725 10.3023 92.0988C10.5485 91.526 10.7185 91.1785 10.7456 91.1895Z" fill="#17282F"/>
<path d="M11.5987 111.854C11.5987 111.854 11.1706 106.162 14.8566 103.744C14.9859 103.66 15.1575 103.754 15.15 103.909C15.106 104.822 14.6872 107.537 11.5987 111.854Z" fill="#F03D5F"/>
<path d="M14.1257 105.438C14.1524 105.45 14.0189 105.813 13.7881 106.391C13.5233 107.04 13.2128 107.802 12.8696 108.644C12.529 109.487 12.2208 110.249 11.9583 110.899C11.7291 111.477 11.5889 111.836 11.5591 111.827C11.533 111.819 11.6228 111.441 11.8168 110.847C12.0116 110.254 12.3111 109.444 12.6727 108.563C13.0336 107.682 13.3834 106.895 13.65 106.33C13.9166 105.766 14.0989 105.425 14.1257 105.438Z" fill="#17282F"/>
<path d="M5.14318 65.9771C5.14318 65.9771 0.0988985 63.3351 5.14172e-05 58.9184C-0.00339368 58.7635 0.167005 58.6669 0.294209 58.7554C1.04391 59.2751 3.1213 61.0665 5.14318 65.9771Z" fill="#F03D5F"/>
<path d="M1.0475 60.4354C1.07188 60.4192 1.308 60.7242 1.67597 61.2267C2.08567 61.7952 2.56665 62.4621 3.09786 63.1993C3.63119 63.9342 4.11374 64.5997 4.52493 65.1663C4.8934 65.6668 5.12328 65.9762 5.09974 65.9962C5.07881 66.0144 4.80713 65.7385 4.40645 65.2595C4.00696 64.78 3.48 64.0972 2.9252 63.3241C2.37028 62.5515 1.88837 61.8372 1.55207 61.3123C1.21525 60.7873 1.02299 60.4517 1.0475 60.4354Z" fill="#17282F"/>
<path d="M10.5598 77.6767C10.5598 77.6767 5.36499 75.3469 4.99874 70.9446C4.98602 70.7897 5.15008 70.6835 5.28244 70.7638C6.06221 71.2372 8.2443 72.8986 10.5598 77.6767Z" fill="#F03D5F"/>
<path d="M6.13604 72.3951C6.15934 72.3769 6.41363 72.6676 6.81129 73.1462C7.25451 73.6888 7.77485 74.3252 8.34991 75.0285C8.92683 75.7299 9.44875 76.3643 9.89331 76.905C10.2915 77.3827 10.5398 77.6767 10.5173 77.6992C10.4975 77.7178 10.2096 77.4596 9.78082 77.0054C9.35295 76.5512 8.78556 75.902 8.18519 75.1643C7.58444 74.4266 7.06023 73.7433 6.6927 73.2394C6.32483 72.736 6.11259 72.4133 6.13604 72.3951Z" fill="#17282F"/>
<path d="M7.57029 90.7275C7.57029 90.7275 4.00353 86.2802 5.67653 82.1939C5.73525 82.05 5.92972 82.0299 6.01112 82.1618C6.49038 82.9397 7.67849 85.4158 7.57029 90.7275Z" fill="#F03D5F"/>
<path d="M6.03045 84.0044C6.05953 83.9992 6.15385 84.374 6.29031 84.9817C6.43869 85.6673 6.61309 86.4719 6.80565 87.3607C7.00069 88.2486 7.17728 89.0518 7.32766 89.7364C7.46536 90.3431 7.55254 90.7184 7.52256 90.728C7.49649 90.7356 7.35764 90.3742 7.18191 89.7742C7.00727 89.1742 6.79702 88.3365 6.5976 87.4057C6.39751 86.4743 6.24117 85.6271 6.14256 85.0104C6.04375 84.3946 6.00147 84.0097 6.03045 84.0044Z" fill="#17282F"/>
<path d="M11.1037 106.086C11.1037 106.086 5.9485 103.668 5.65622 99.2603C5.64588 99.1059 5.81189 99.0021 5.94282 99.0844C6.71464 99.5711 8.86846 101.269 11.1037 106.086Z" fill="#F03D5F"/>
<path d="M6.76891 100.73C6.7926 100.712 7.04188 101.007 7.43144 101.493C7.86579 102.042 8.37536 102.687 8.93851 103.4C9.50337 104.111 10.0148 104.755 10.4503 105.303C10.8405 105.787 11.0836 106.085 11.0608 106.107C11.0408 106.126 10.7573 105.862 10.3361 105.401C9.91585 104.939 9.35962 104.281 8.77154 103.533C8.18323 102.785 7.67047 102.093 7.31137 101.583C6.95213 101.074 6.74532 100.747 6.76891 100.73Z" fill="#17282F"/>
<path d="M21.372 83.6431C21.3768 83.6431 21.3789 83.6866 21.3783 83.7693C21.3758 83.8683 21.3729 83.9883 21.3693 84.1341C21.3542 84.4769 21.3338 84.9402 21.3083 85.5177C21.2419 86.7345 21.1491 88.4313 21.0383 90.4603L21.0379 90.4651L21.0369 90.4723C20.6688 92.5377 19.6202 94.8273 18.2115 97.05C17.1781 98.687 16.0949 100.176 15.1608 101.56C14.2206 102.941 13.4271 104.219 12.8736 105.353C12.3169 106.484 11.993 107.456 11.8037 108.136C11.7132 108.477 11.6451 108.742 11.6058 108.924C11.5635 109.106 11.5377 109.2 11.5304 109.199C11.5231 109.198 11.5349 109.101 11.5637 108.916C11.5894 108.731 11.6447 108.461 11.7235 108.115C11.8891 107.425 12.194 106.437 12.7383 105.287C13.2788 104.135 14.0651 102.84 14.9983 101.45C15.926 100.056 17.0035 98.5651 18.0313 96.9362C19.4328 94.724 20.4759 92.4703 20.8576 90.4374L20.8562 90.4489C20.9983 88.4212 21.1168 86.7268 21.2021 85.511C21.2485 84.9344 21.2857 84.4726 21.3134 84.1303C21.328 83.9854 21.3399 83.8659 21.3499 83.7674C21.3597 83.6856 21.3669 83.6431 21.372 83.6431Z" fill="#17282F"/>
<path d="M18.3022 96.6255C18.3022 96.6255 20.4856 91.3539 17.7392 87.9001C17.6429 87.7796 17.4506 87.815 17.4094 87.9646C17.166 88.8453 16.7162 91.5557 18.3022 96.6255Z" fill="#F03D5F"/>
<path d="M17.9048 89.7383C17.934 89.735 18.0007 90.116 18.078 90.7351C18.1551 91.3548 18.2416 92.2125 18.3094 93.1625C18.3778 94.1125 18.4095 94.9754 18.4093 95.6008C18.4081 96.2257 18.3758 96.612 18.348 96.612C18.3169 96.6115 18.2958 96.2261 18.2587 95.6056C18.2122 94.9056 18.1574 94.0847 18.0969 93.1778C18.0339 92.2703 17.9768 91.4494 17.928 90.7495C17.8894 90.1275 17.8757 89.7412 17.9048 89.7383Z" fill="#17282F"/>
<path d="M18.3023 96.6254C17.4055 93.7587 17.1596 91.6465 17.1592 90.1926C17.1589 89.0752 17.3036 88.3471 17.4095 87.9646C17.4337 87.8762 17.5108 87.8274 17.5898 87.8274C17.6444 87.8274 17.6999 87.8508 17.7392 87.9001C18.7986 89.2325 19.1246 90.8351 19.1251 92.3015C19.1259 94.1838 18.5908 95.8409 18.3831 96.4127C18.3975 96.2396 18.4085 95.9594 18.4092 95.6009C18.4094 94.9755 18.3778 94.113 18.3093 93.1625C18.2416 92.2125 18.1551 91.3548 18.0779 90.7357C18.0011 90.1189 17.9346 89.7384 17.9052 89.7384C17.905 89.7384 17.9049 89.7384 17.9047 89.7384C17.8756 89.7412 17.8894 90.1275 17.9279 90.7496C17.9767 91.4495 18.0338 92.2704 18.0969 93.1778C18.1573 94.0848 18.2122 94.9057 18.2587 95.6056C18.2877 96.0909 18.3069 96.4323 18.3287 96.558C18.3118 96.602 18.3023 96.6254 18.3023 96.6254Z" fill="#BA2C42"/>
<path d="M18.3288 96.5579C18.307 96.4322 18.2878 96.0908 18.2587 95.6055C18.2122 94.9061 18.1574 94.0847 18.0969 93.1777C18.0339 92.2703 17.9768 91.4494 17.928 90.7495C17.8894 90.1275 17.8757 89.7411 17.9048 89.7383C17.9049 89.7383 17.9051 89.7383 17.9052 89.7383C17.9346 89.7383 18.0012 90.1188 18.078 90.7356C18.1551 91.3552 18.2416 92.2125 18.3094 93.1624C18.3778 94.1129 18.4095 94.9754 18.4093 95.6008C18.4086 95.9593 18.3976 96.2395 18.3832 96.4131C18.361 96.4743 18.3424 96.5225 18.3288 96.5579Z" fill="#0F191D"/>
<path d="M11.5401 109.328C11.5401 109.328 13.2901 103.896 10.2738 100.677C10.1678 100.564 9.97913 100.616 9.94996 100.768C9.77889 101.666 9.54968 104.404 11.5401 109.328Z" fill="#F03D5F"/>
<path d="M10.5873 102.496C10.6162 102.49 10.7136 102.865 10.8404 103.476C10.9675 104.087 11.123 104.935 11.2672 105.876C11.4125 106.818 11.5138 107.675 11.5639 108.298C11.6133 108.922 11.6122 109.309 11.5848 109.311C11.5538 109.313 11.5016 108.931 11.4143 108.314C11.3115 107.621 11.1906 106.808 11.0569 105.909C10.9206 105.009 10.7974 104.196 10.6923 103.502C10.6034 102.885 10.5585 102.501 10.5873 102.496Z" fill="#17282F"/>
<path d="M11.5396 109.328C10.1479 105.885 9.84131 103.511 9.84131 102.087C9.84131 101.475 9.89803 101.038 9.94946 100.768C9.96786 100.672 10.0494 100.616 10.1338 100.616C10.1834 100.616 10.2341 100.636 10.2733 100.677C11.6694 102.168 12.0445 104.132 12.0445 105.812C12.0445 107.329 11.7386 108.615 11.6031 109.11C11.6033 108.936 11.5917 108.656 11.5633 108.298C11.5133 107.675 11.4119 106.818 11.2666 105.876C11.1225 104.935 10.9669 104.087 10.8399 103.476C10.7138 102.869 10.617 102.496 10.5874 102.496C10.5872 102.496 10.5871 102.496 10.5868 102.496C10.5579 102.501 10.6028 102.885 10.6917 103.502C10.7968 104.195 10.92 105.009 11.0564 105.909C11.1901 106.808 11.3109 107.621 11.4137 108.315C11.482 108.797 11.5287 109.135 11.5608 109.259C11.5473 109.304 11.5396 109.328 11.5396 109.328Z" fill="#BA2C42"/>
<path d="M11.5614 109.259C11.5293 109.135 11.4825 108.797 11.4143 108.315C11.3115 107.621 11.1906 106.808 11.0569 105.909C10.9206 105.009 10.7974 104.195 10.6923 103.502C10.6034 102.885 10.5585 102.501 10.5873 102.496C10.5876 102.496 10.5877 102.496 10.588 102.496C10.6175 102.496 10.7144 102.869 10.8404 103.476C10.9675 104.087 11.123 104.935 11.2672 105.876C11.4125 106.818 11.5138 107.675 11.5639 108.298C11.5922 108.655 11.6039 108.936 11.6036 109.11C11.5865 109.172 11.5721 109.223 11.5614 109.259Z" fill="#0F191D"/>
<path d="M21.0825 90.1831C21.0825 90.1831 25.7443 86.9095 25.2739 82.5177C25.2573 82.3632 25.0762 82.2901 24.9613 82.3938C24.2848 83.0063 22.4554 85.0516 21.0825 90.1831Z" fill="#F03D5F"/>
<path d="M21.0825 90.183C22.4554 85.0515 24.2848 83.0062 24.9613 82.3938C24.9981 82.3603 25.0417 82.3455 25.0846 82.3455C25.1754 82.3455 25.2628 82.4124 25.2739 82.5176C25.2964 82.7279 25.3071 82.9354 25.3072 83.1401C25.3088 87.2154 21.0825 90.183 21.0825 90.183Z" fill="#BA2C42"/>
<path d="M24.4308 84.1571C24.457 84.1705 24.3096 84.5281 24.0433 85.0923C23.7773 85.6564 23.3914 86.4267 22.9405 87.2648C22.49 88.1038 22.0552 88.8482 21.7208 89.3761C21.3853 89.9029 21.1515 90.2113 21.1284 90.196C21.1023 90.1798 21.2903 89.8432 21.5914 89.2991C21.9261 88.6838 22.3191 87.9614 22.7533 87.1634C23.1854 86.364 23.5762 85.6397 23.9094 85.0234C24.2096 84.4774 24.4044 84.1442 24.4308 84.1571Z" fill="#17282F"/>
<path d="M13.4199 103.943C13.4199 103.943 19.0426 103.064 20.5487 98.9126C20.6016 98.7668 20.4711 98.6205 20.3223 98.663C19.4458 98.9145 16.9054 99.9424 13.4199 103.943Z" fill="#F03D5F"/>
<path d="M13.4199 103.943C16.9054 99.9426 19.4458 98.9147 20.3223 98.6632C20.3401 98.6584 20.3578 98.656 20.3747 98.656C20.4778 98.656 20.5608 98.743 20.5608 98.8458C20.5606 98.8673 20.5569 98.8898 20.5487 98.9127C19.3612 102.185 15.6152 103.424 14.0831 103.802C13.9462 103.836 13.8268 103.863 13.7286 103.884C13.7059 103.889 13.6841 103.893 13.6637 103.897C13.5525 103.92 13.4761 103.934 13.4414 103.94C13.4272 103.942 13.4199 103.943 13.4199 103.943Z" fill="#BA2C42"/>
<path d="M19.0716 100.012C19.0894 100.036 18.8001 100.291 18.3134 100.68C17.8267 101.069 17.1421 101.591 16.3692 102.144C15.5965 102.698 14.8791 103.175 14.3472 103.5C13.8147 103.825 13.4691 103.999 13.4552 103.975C13.4393 103.948 13.7559 103.729 14.2649 103.374C14.8356 102.969 15.5054 102.495 16.2457 101.97C16.9848 101.443 17.6536 100.966 18.2233 100.559C18.7324 100.202 19.0537 99.9892 19.0716 100.012Z" fill="#17282F"/>
<path d="M6.76709 114.322L8.3795 124.933L14.8204 124.923L16.9901 114.322H6.76709Z" fill="#33535F"/>
<path d="M16.0468 118.416C16.0482 118.419 16.0299 118.432 15.9927 118.456C15.955 118.477 15.9006 118.515 15.8231 118.553C15.6691 118.628 15.4293 118.723 15.1031 118.768C14.779 118.812 14.3658 118.804 13.9189 118.656C13.4758 118.512 12.9913 118.225 12.6455 117.729C12.4804 117.478 12.3654 117.174 12.3468 116.842C12.3229 116.516 12.4497 116.122 12.784 115.929C13.1168 115.736 13.5464 115.806 13.863 116.018C14.1941 116.233 14.3876 116.611 14.48 116.992C14.5725 117.38 14.5828 117.783 14.5602 118.191C14.5341 118.599 14.459 119.017 14.299 119.417C14.1431 119.816 13.892 120.194 13.5522 120.485C13.2144 120.774 12.7808 120.982 12.3128 121.004C11.8447 121.025 11.3975 120.863 11.0237 120.629C10.6477 120.392 10.3283 120.092 10.0618 119.757C9.79803 119.421 9.59941 119.02 9.57463 118.591C9.55423 118.17 9.70213 117.731 10.0318 117.467C10.3658 117.194 10.8397 117.214 11.1732 117.397C11.5165 117.571 11.7717 117.901 11.8317 118.262C11.9553 118.99 11.5318 119.647 11.0171 119.942C10.4902 120.244 9.91704 120.252 9.46224 120.167C9.00047 120.077 8.63613 119.895 8.35439 119.732C8.0727 119.567 7.8697 119.415 7.73391 119.311C7.59902 119.205 7.53167 119.146 7.53529 119.141C7.53897 119.136 7.61356 119.186 7.75483 119.282C7.89673 119.376 8.10506 119.518 8.38804 119.672C8.67055 119.823 9.03298 119.992 9.47978 120.07C9.92005 120.143 10.4673 120.122 10.9536 119.834C11.4264 119.557 11.807 118.936 11.6879 118.29C11.6325 117.973 11.408 117.689 11.1025 117.536C10.8032 117.377 10.407 117.368 10.133 117.595C9.85756 117.816 9.7221 118.206 9.74321 118.582C9.76624 118.961 9.94698 119.333 10.1981 119.649C10.4514 119.967 10.7619 120.257 11.116 120.478C11.4701 120.7 11.8827 120.846 12.3046 120.828C12.7255 120.808 13.1233 120.62 13.4381 120.351C13.7546 120.08 13.9892 119.73 14.1383 119.352C14.2909 118.974 14.3649 118.574 14.3918 118.18C14.4158 117.786 14.4064 117.392 14.3218 117.031C14.2374 116.673 14.0619 116.335 13.7768 116.148C13.4982 115.958 13.1268 115.901 12.8569 116.057C12.5818 116.212 12.4664 116.537 12.4832 116.835C12.4962 117.138 12.5995 117.425 12.7498 117.66C13.0665 118.128 13.5269 118.416 13.9506 118.562C14.3783 118.714 14.7783 118.732 15.095 118.699C15.7361 118.626 16.0376 118.39 16.0468 118.416Z" fill="#17282F"/>
</g>
<defs>
<clipPath id="clip0_60_129">
<rect width="153" height="131" fill="white"/>
</clipPath>
</defs>
</svg>
