<svg width="181" height="156" viewBox="0 0 181 156" fill="none" xmlns="http://www.w3.org/2000/svg">
<path d="M160.891 142.125C160.891 142.125 168.852 118.091 161.575 108.097C154.298 98.1029 148.53 93.692 152.176 85.633C155.822 77.5748 154.199 64.4018 144.563 60.4459C134.928 56.4896 139.401 41.5962 128.733 33.0446C118.066 24.4929 109.368 28.3607 104.253 17.8122C99.7613 8.54778 90.4421 -0.185144 81.1165 8.7927C79.0715 10.7612 77.6997 13.3276 76.9865 16.1038C76.241 19.0075 73.6362 24.0359 64.8388 29.0639C51.3052 36.7991 56.6713 41.7851 51.2352 50.7197C45.799 59.6543 28.3721 55.1586 21.8337 72.2983C15.2954 89.4384 29.4068 95.1919 28.2619 105.439C27.1171 115.685 20.3383 121.273 24.4677 141.843" stroke="#EEB392" stroke-width="1.33333" stroke-miterlimit="10"/>
<path d="M164.739 142.386C164.739 142.386 174.05 115.795 166.199 105.696C158.348 95.5964 152.124 91.1395 156.057 82.9965C159.991 74.853 158.24 61.5419 147.844 57.5444C137.448 53.5465 142.275 38.4966 130.765 29.8553C119.255 21.2137 111.551 22.04 106.032 11.381C101.186 2.01938 89.4518 -3.72333 79.3894 5.34896C77.1836 7.3383 75.7033 9.93112 74.9341 12.7369C74.1293 15.671 71.3188 20.7518 61.8275 25.8326C47.225 33.6495 53.0149 38.6875 47.1498 47.7158C41.2846 56.7445 25.0719 53.6482 17.8211 68.7697C9.73575 85.6325 22.2946 92.4113 21.0592 102.765C19.8241 113.12 16.7197 121.339 21.175 142.125" stroke="#EEB392" stroke-width="1.33333" stroke-miterlimit="10"/>
<path d="M82.3921 14.1538C80.3952 16.1223 79.0549 18.6887 78.3586 21.4648C77.6303 24.3686 75.0859 29.397 66.4938 34.4249C53.2744 42.1602 58.516 47.1461 53.2063 56.0808C47.8966 65.015 32.7715 58.1614 26.3851 75.3011C19.9988 92.4412 34.7232 100.178 33.6047 110.425C32.4865 120.671 23.696 121.272 27.7295 141.843H160.979C160.979 141.843 168.087 123.452 160.979 113.458C153.871 103.464 148.237 99.0531 151.798 90.9945C155.359 82.9359 153.774 69.7628 144.363 65.807C134.951 61.8507 139.321 46.9573 128.901 38.4056C118.482 29.854 109.986 33.7214 104.991 23.1732C100.603 13.9088 91.5012 5.17551 82.3921 14.1538" fill="#FCDBC5"/>
<path d="M82.9172 18.9719C81.0071 20.8544 79.7253 23.3091 79.0589 25.9648C78.3622 28.7421 75.9287 33.5516 67.7104 38.361C55.0664 45.7597 60.0796 50.5288 55.0008 59.0744C49.9224 67.6205 35.4551 61.0646 29.3467 77.4587C23.2383 93.8533 37.322 101.254 36.2523 111.054C35.1826 120.855 26.7747 121.43 30.6325 141.105H158.085C158.085 141.105 164.883 123.515 158.085 113.955C151.286 104.396 145.897 100.177 149.303 92.4694C152.709 84.7614 151.193 72.1614 142.191 68.3772C133.189 64.5934 137.369 50.3479 127.403 42.1684C117.436 33.9886 109.311 37.6883 104.532 27.5987C100.336 18.7374 91.6297 10.3846 82.9172 18.9719V18.9719Z" stroke="white" stroke-width="1.33333" stroke-miterlimit="10"/>
<path d="M132.097 67.5462C131.311 67.0896 130.279 67.4197 130.111 67.164C129.944 66.9079 130.958 66.1179 131.284 65.2887C131.61 64.4599 131.244 62.3105 129.908 63.323C128.571 64.3351 128.511 66.0599 128.511 66.0599C128.511 66.0599 128.489 66.1547 128.472 66.3128C128.018 65.2463 128.261 63.774 128.264 63.7576C128.278 63.6776 128.225 63.6011 128.144 63.5875C128.061 63.5731 127.988 63.6271 127.975 63.7072C127.963 63.7704 127.769 64.9498 128.058 66.0131C127.356 65.2031 126.331 64.7104 126.275 64.6836C126.203 64.6492 126.114 64.6804 126.079 64.7541C126.045 64.8273 126.076 64.9153 126.15 64.9498C126.165 64.957 127.622 65.6581 128.192 66.7126C128.016 66.5853 127.893 66.5197 127.893 66.5197C127.893 66.5197 126.548 65.4388 124.91 65.7902C123.272 66.1411 124.658 67.8231 125.498 68.1172C126.339 68.4114 127.599 68.1593 127.683 68.4538C127.767 68.748 126.843 69.3142 126.675 70.2082C126.507 71.1027 127.557 72.0299 128.145 72.0707C128.678 72.1079 129.484 70.3183 129.475 68.9809C130.507 69.794 132.24 70.2863 132.546 69.8769C132.899 69.4047 132.884 68.0028 132.097 67.5462" fill="#EF8E83"/>
<path d="M45.1172 81.3977C44.9699 80.665 44.2052 80.2096 44.2712 79.9671C44.3372 79.7245 45.3749 79.9186 46.062 79.6685C46.7492 79.418 47.8709 78.0225 46.5215 77.7508C45.172 77.4791 44.0787 78.3803 44.0787 78.3803C44.0787 78.3803 44.0091 78.4191 43.9018 78.4944C44.3108 77.6343 45.3485 76.9832 45.3601 76.976C45.4169 76.9408 45.4345 76.8664 45.3993 76.8096C45.3625 76.7503 45.2901 76.7347 45.2332 76.7703C45.1884 76.7975 44.3576 77.3198 43.861 78.0766C43.977 77.2029 43.7225 76.3045 43.7081 76.2553C43.6897 76.1921 43.6229 76.1544 43.5584 76.1733C43.4944 76.1917 43.4576 76.2585 43.4764 76.3229C43.48 76.3365 43.8422 77.6147 43.504 78.5396C43.4864 78.3623 43.46 78.2502 43.46 78.2502C43.46 78.2502 43.3928 76.8344 42.2854 76.0168C41.1773 75.1988 40.898 76.968 41.1745 77.6456C41.451 78.3231 42.2918 78.9618 42.1566 79.1739C42.0213 79.3856 41.1705 79.1247 40.529 79.508C39.8879 79.891 39.8895 81.0424 40.1845 81.4269C40.4518 81.7751 41.9905 81.2977 42.8081 80.5637C42.8689 81.6414 43.5104 82.9769 43.9282 82.9425C44.4113 82.9028 45.2645 82.1309 45.1172 81.3977" fill="#EF8E83"/>
<path d="M90.1102 29.9666C89.9634 29.2338 89.1986 28.7784 89.2646 28.5359C89.3303 28.293 90.368 28.4875 91.0555 28.2374C91.7422 27.9868 92.8639 26.5914 91.5149 26.3197C90.1655 26.0479 89.0722 26.9492 89.0722 26.9492C89.0722 26.9492 89.0021 26.988 88.8953 27.0628C89.3043 26.2032 90.3416 25.5521 90.3532 25.5445C90.41 25.5097 90.4276 25.4352 90.3928 25.3784C90.356 25.3192 90.2831 25.304 90.2267 25.3388C90.1819 25.3664 89.3507 25.8883 88.8544 26.645C88.9701 25.7718 88.7156 24.873 88.7012 24.8242C88.6828 24.7605 88.6159 24.7233 88.5519 24.7417C88.4879 24.7601 88.4507 24.8274 88.4695 24.8914C88.4735 24.905 88.8352 26.1836 88.4971 27.108C88.4795 26.9307 88.4535 26.8191 88.4535 26.8191C88.4535 26.8191 88.3862 25.4032 87.2785 24.5856C86.1708 23.768 85.8914 25.5369 86.1676 26.2144C86.4441 26.8919 87.2853 27.5306 87.15 27.7423C87.0148 27.9544 86.1636 27.6935 85.5225 28.0765C84.881 28.4599 84.8826 29.6112 85.1779 29.9954C85.4452 30.344 86.9836 29.8661 87.8011 29.1326C87.8624 30.2103 88.5035 31.5457 88.9217 31.5113C89.4043 31.4717 90.2575 30.6993 90.1102 29.9666" fill="#EF8E83"/>
<path d="M69.6854 49.8369C69.5437 50.0281 69.2744 50.0678 69.0835 49.9261C68.8926 49.7844 68.853 49.5151 68.9943 49.3238C69.1359 49.1329 69.4057 49.0929 69.5966 49.2346C69.787 49.3762 69.8271 49.646 69.6854 49.8369Z" fill="white"/>
<path d="M70.796 48.0027C70.6543 48.1936 70.385 48.2337 70.1941 48.092C70.0032 47.9503 69.9636 47.6806 70.1049 47.4897C70.2465 47.2984 70.5159 47.2588 70.7071 47.4005C70.8976 47.5421 70.9377 47.8119 70.796 48.0027Z" fill="white"/>
<path d="M72.0867 50.8963C71.945 51.0872 71.6753 51.1272 71.4844 50.9855C71.2939 50.8439 71.2539 50.5741 71.3956 50.3833C71.5369 50.1924 71.8066 50.1523 71.9975 50.294C72.1884 50.4357 72.228 50.7054 72.0867 50.8963Z" fill="white"/>
<path d="M127.602 54.8831C127.46 55.074 127.191 55.1136 127 54.972C126.809 54.8303 126.77 54.5606 126.911 54.3697C127.053 54.1788 127.322 54.1388 127.513 54.2804C127.704 54.4221 127.744 54.6918 127.602 54.8831" fill="white"/>
<path d="M128.712 53.0482C128.571 53.239 128.301 53.2791 128.111 53.1374C127.92 52.9957 127.88 52.726 128.021 52.5351C128.163 52.3438 128.432 52.3042 128.624 52.4459C128.814 52.5875 128.854 52.8573 128.712 53.0482Z" fill="white"/>
<path d="M130.003 55.9418C129.861 56.1331 129.592 56.1727 129.401 56.0311C129.21 55.8894 129.17 55.6197 129.312 55.4288C129.454 55.2379 129.723 55.1979 129.914 55.3396C130.105 55.4812 130.144 55.7509 130.003 55.9418" fill="white"/>
<path d="M107.175 37.419C107.033 37.6099 106.764 37.6499 106.573 37.5082C106.382 37.3666 106.342 37.0965 106.484 36.9056C106.625 36.7147 106.895 36.6747 107.086 36.8163C107.277 36.9584 107.316 37.2277 107.175 37.419Z" fill="white"/>
<path d="M108.285 35.5845C108.144 35.7754 107.874 35.8154 107.683 35.6738C107.492 35.5321 107.452 35.2624 107.594 35.0715C107.735 34.8806 108.005 34.8406 108.196 34.9822C108.386 35.1239 108.427 35.3936 108.285 35.5845Z" fill="white"/>
<path d="M109.576 38.478C109.434 38.6693 109.165 38.7089 108.974 38.5672C108.783 38.4255 108.743 38.1558 108.884 37.9649C109.026 37.774 109.296 37.734 109.486 37.8757C109.677 38.0174 109.717 38.2871 109.576 38.478Z" fill="white"/>
<path d="M112.74 62.4816C112.556 62.3303 112.531 62.059 112.682 61.8757C112.833 61.692 113.104 61.6664 113.288 61.8177C113.471 61.9693 113.497 62.2407 113.346 62.4239C113.194 62.6072 112.923 62.6332 112.74 62.4816" fill="white"/>
<path d="M114.513 63.6867C114.329 63.5354 114.303 63.2641 114.455 63.0804C114.606 62.8971 114.877 62.8715 115.061 63.0227C115.244 63.174 115.27 63.4457 115.119 63.629C114.967 63.8123 114.696 63.8383 114.513 63.6867Z" fill="white"/>
<path d="M111.558 64.8261C111.375 64.6748 111.349 64.4035 111.5 64.2198C111.651 64.0365 111.922 64.0109 112.106 64.1621C112.289 64.3138 112.315 64.5851 112.164 64.7684C112.012 64.9517 111.741 64.9777 111.558 64.8261Z" fill="white"/>
<path d="M50.7831 71.5237C50.7831 71.8259 50.5386 72.0708 50.2364 72.0708C49.9343 72.0708 49.689 71.8259 49.689 71.5237C49.689 71.2212 49.9343 70.9763 50.2364 70.9763C50.5386 70.9763 50.7831 71.2212 50.7831 71.5237Z" fill="white"/>
<path d="M124.098 43.3034C124.098 43.6788 123.793 43.9829 123.418 43.9829C123.043 43.9829 122.739 43.6788 122.739 43.3034C122.739 42.928 123.043 42.6235 123.418 42.6235C123.793 42.6235 124.098 42.928 124.098 43.3034Z" fill="white"/>
<path d="M77.1457 64.4941C77.1457 64.8694 76.8416 65.1736 76.4666 65.1736C76.0913 65.1736 75.7871 64.8694 75.7871 64.4941C75.7871 64.1183 76.0913 63.8141 76.4666 63.8141C76.8416 63.8141 77.1457 64.1183 77.1457 64.4941Z" fill="white"/>
<path d="M90.1327 20.0949C90.1327 20.3238 89.9471 20.5095 89.7181 20.5095C89.4892 20.5095 89.304 20.3238 89.304 20.0949C89.304 19.866 89.4892 19.6799 89.7181 19.6799C89.9471 19.6799 90.1327 19.866 90.1327 20.0949Z" fill="white"/>
<path d="M121.843 81.0095C121.843 81.3501 121.567 81.6262 121.226 81.6262C120.886 81.6262 120.61 81.3501 120.61 81.0095C120.61 80.669 120.886 80.3928 121.226 80.3928C121.567 80.3928 121.843 80.669 121.843 81.0095Z" fill="white"/>
<path d="M81.426 34.1101C81.426 34.4507 81.1503 34.7268 80.8101 34.7268C80.4696 34.7268 80.1938 34.4507 80.1938 34.1101C80.1938 33.7695 80.4696 33.4934 80.8101 33.4934C81.1503 33.4934 81.426 33.7695 81.426 34.1101Z" fill="white"/>
<path d="M13.4976 137.373H178.005C179.217 137.373 179.55 139.042 178.429 139.502C167.426 144.022 138.246 154.263 97.3515 155.432C59.3236 156.52 27.5514 146.623 12.8254 141.036C10.8576 140.29 11.3928 137.373 13.4976 137.373Z" fill="#FCDBC5"/>
<path d="M68.3296 102.914C67.9654 96.4156 61.1554 95.109 60.4747 93.4923C59.7939 91.8751 58.6942 88.5675 53.7907 87.0076C48.8876 85.448 45.8366 88.331 43.0885 86.5654C40.3408 84.7993 37.8956 83.3395 34.6208 85.5605C31.3457 87.7816 29.0248 86.9648 24.2966 86.4293C19.5687 85.8943 15.8137 90.4536 15.8136 90.454C13.9643 92.1508 15.7481 94.2986 20.1078 95.3523C26.2638 96.8398 24.506 100.839 27.7874 102.458C31.0688 104.079 34.969 102.474 37.4418 104.434C39.915 106.395 39.7281 109.952 42.7887 110.786C45.8494 111.621 49.4599 109.589 51.2111 110.792C52.9623 111.995 53.916 115.559 56.0062 116.79C58.0963 118.021 64.0111 118.325 64.0111 118.325L65.4398 117.98C65.4398 117.98 68.6934 109.412 68.3296 102.914" fill="#A9BB6C"/>
<path d="M64.4697 115.936C64.4697 115.936 62.9262 102.671 53.8039 96.6291C44.6816 90.5866 29.7208 90.4425 25.1857 90.192C20.6506 89.9415 20.6506 89.9415 20.6506 89.9415C20.6506 89.9415 38.9589 88.777 48.0368 92.4695C60.5039 97.5399 64.056 105.823 64.4697 115.936" fill="#FFF9F0"/>
<path d="M57.7758 101.973C57.7758 101.973 50.1478 95.158 48.9985 89.4861C47.8495 83.815 51.2215 81.6964 48.9513 78.825C46.6814 75.9533 47.6959 70.8004 50.1394 69.493C52.5826 68.1852 53.5835 65.3315 53.8232 61.3856C54.0625 57.4401 57.0699 55.9726 58.0011 57.0672C60.5668 60.0806 59.291 63.1628 63.2148 65.0797C67.1391 66.9971 68.5301 70.9673 67.5457 74.2181C66.5612 77.4692 70.888 78.5065 73.7534 83.4692C76.6183 88.432 74.543 92.5811 73.3272 95.6934C72.1118 98.8061 75.4806 102.557 74.2576 106.145C73.0342 109.733 64.5927 115.64 64.5927 115.64C64.5927 115.64 60.5095 114.13 57.7758 101.973" fill="#CABB7E"/>
<path d="M57.6987 62.5592C57.6987 62.5592 60.2175 72.2718 63.251 84.7933C66.284 97.3144 66.7946 112.757 66.7946 112.757C66.7946 112.757 68.5507 101.55 66.2756 91.0327C64.0005 80.5153 57.8912 64.1784 57.6987 62.5592Z" fill="#FFF9F0"/>
<path d="M58.7998 107.041C57.7593 101.705 63.0049 99.2485 63.2238 97.7994C63.4432 96.3503 63.6541 93.4462 67.3038 91.1759C70.9535 88.9056 74.0161 90.6136 75.8782 88.6191C77.7403 86.6253 79.4199 84.9409 82.5282 86.0663C85.636 87.1916 87.3472 86.0535 91.0654 84.6492C94.784 83.2445 98.761 86.1651 98.761 86.1655C100.607 87.1588 99.6038 89.2646 96.2903 91.0134C91.6113 93.4826 93.8563 96.3583 91.532 98.3445C89.2081 100.331 85.7205 99.832 84.1209 101.927C82.5214 104.023 83.403 106.864 81.0963 108.169C78.79 109.474 75.4492 108.569 74.2783 109.903C73.1077 111.237 73.0673 114.319 71.6278 115.745C70.1883 117.171 65.4621 118.632 65.4621 118.632L64.2339 118.646C64.2339 118.646 59.8398 112.378 58.7998 107.041" fill="#A9BB6C"/>
<path d="M64.6002 116.792C64.6002 116.792 63.1251 105.734 69.27 98.9688C75.4149 92.2028 87.4986 89.0125 91.1191 87.8783C94.7397 86.7438 94.7397 86.7438 94.7397 86.7438C94.7397 86.7438 79.6765 89.5615 73.085 94.4158C64.0323 101.083 62.8578 108.518 64.6002 116.792Z" fill="#FFF9F0"/>
<path d="M60.9929 116.773C60.9929 116.773 50.943 114.021 45.6661 116.435C40.3892 118.848 39.4155 122.165 39.4155 122.165C39.4155 122.165 41.6754 122.956 45.973 122.353C50.2711 121.751 50.915 119.205 53.9116 120.416C56.9086 121.627 57.8919 122.793 60.4147 122.071C62.9374 121.348 64.2341 118.647 64.2341 118.647L60.9929 116.773" fill="#8A9375"/>
<path d="M65.9407 117.133C65.9407 117.133 68.6435 114.017 72.5634 114.225C76.4832 114.432 77.1716 115.799 79.0925 115.886C81.013 115.973 82.0739 115.368 84.6955 116.263C87.2899 117.149 88.8239 118.363 88.8239 118.363C88.8239 118.363 86.1586 122.22 82.0091 121.222C77.8595 120.222 74.72 119.578 73.3626 120.969C72.0055 122.36 63.4795 119.825 63.4795 119.825L65.9407 117.133" fill="#8A9375"/>
<path d="M124.115 104.762C124.115 104.762 129.764 108.387 141.384 110.412C153.004 112.437 157.907 109.133 158.547 107.587C159.187 106.042 157.268 105.189 149.699 103.803C142.131 102.417 140.105 100.712 143.836 100.285C147.567 99.8583 152.79 103.163 157.268 103.163C161.745 103.163 164.837 100.782 164.943 99.148C165.05 97.5132 151.511 97.087 149.805 94.7415C148.1 92.3964 158.582 94.8483 163.095 95.4878C167.608 96.1273 169.42 92.6097 169.101 91.4371C168.781 90.2646 157.801 89.8844 156.735 88.2624C155.669 86.6401 161.319 87.2191 166.222 88.2624C171.126 89.3049 173.578 85.6808 172.938 84.828C172.299 83.9752 163.237 83.3353 162.278 81.7361C161.319 80.1374 167.182 80.5636 170.167 81.2031C173.151 81.843 176.349 78.9644 175.283 78.0052C174.217 77.0455 167.501 76.7262 167.289 75.3403C167.075 73.9545 176.236 74.7004 175.493 72.6755C174.75 70.6497 172.192 68.7544 168.248 68.6896C164.304 68.6243 160.679 72.7819 158.547 71.5025C156.415 70.2235 163.77 67.132 161.852 65.9591C159.933 64.7865 155.669 65.4264 154.176 67.4518C152.684 69.4771 152.577 72.8884 150.978 72.7819C149.379 72.6754 152.151 67.878 150.765 66.8123C149.379 65.7462 145.755 67.9848 145.008 70.117C144.262 72.2488 145.115 76.5129 143.623 76.7262C142.131 76.9395 143.982 69.9033 142.682 69.2638C141.384 68.6243 137.227 72.7815 137.12 75.3403C137.013 77.8987 138.399 81.929 136.161 82.5789C133.922 83.2288 134.348 75.2335 132.643 74.4875C130.937 73.7412 127.526 78.6307 128.059 82.6354C128.592 86.6401 129.764 89.9168 128.166 89.9308C126.566 89.9448 125.394 84.828 124.115 83.9752C122.836 83.122 121.683 85.2542 121.353 90.6908C121.023 96.1273 123.588 103.429 124.115 104.762" fill="#CBC280"/>
<path d="M122.291 113.52C122.291 113.52 128.279 98.1594 135.245 89.6478C142.21 81.1358 155.653 76.0033 162.13 75.6368C162.13 75.6368 146.807 78.4849 136.956 90.6679C127.104 102.85 123.391 119.508 123.391 119.508L120.703 118.98L122.291 113.52" fill="#FFF9F0"/>
<path d="M13.7944 136.081C13.7944 136.081 14.6493 132.893 18.8466 131.417C23.0439 129.94 23.6658 133.904 26.3086 133.749C28.9512 133.593 30.1785 138.723 30.1785 138.723H12.8616L13.7944 136.081" fill="#8A9375"/>
<path d="M23.9427 138.539C23.6995 137.33 23.3267 135.968 22.8627 134.512C23.6224 133.036 25.7742 128.349 25.7226 122.676C25.66 115.791 20.8876 108.569 20.8876 108.569C20.8876 108.569 19.6344 120.35 21.7114 131.188C20.2744 127.309 18.4317 123.102 16.7251 119.425C17.4514 117.904 18.7576 114.631 18.7475 110.751C18.7334 105.383 15.0496 99.7287 15.0496 99.7287C15.0496 99.7287 14.0609 108.472 15.4678 116.756C14.21 114.125 13.1245 111.961 12.4683 110.672C12.3524 108.855 11.9036 105.669 10.2519 102.543C7.74398 97.7969 1.85432 94.5038 1.85432 94.5038C1.85432 94.5038 5.56235 104.039 11.3718 110.922C11.897 111.953 12.7803 113.71 13.8372 115.896C13.0306 114.713 11.9994 113.454 10.7023 112.311C6.67471 108.762 0 107.77 0 107.77C0 107.77 7.58627 116.19 15.9683 120.408C16.8388 122.297 17.7361 124.307 18.5919 126.331C17.624 125.015 16.4368 123.655 15.0017 122.407C9.80604 117.888 1.2359 116.671 1.2359 116.671C1.2359 116.671 10.5163 126.839 20.9549 132.308C21.8184 134.694 22.5068 136.919 22.8765 138.754L23.9427 138.539" fill="#A9BB6C"/>
<path d="M160.899 135.288H166.171C166.171 135.288 168.556 130.895 174.33 127.883C180.104 124.87 180.732 121.236 180.983 119.538C181.234 117.841 178.723 118.719 174.958 120.979C171.192 123.238 170.188 128.587 168.556 128.486C166.924 128.385 167.928 122.235 171.443 120.226C174.958 118.217 177.719 113.322 178.598 110.184C179.476 107.045 172.321 109.305 168.932 113.071C165.543 116.836 166.045 126.033 163.535 127.209C161.025 128.385 165.418 120.665 160.334 117.516C158.296 116.253 157.76 119.864 158.388 124.438C159.016 129.012 162.154 131.146 160.899 135.288" fill="#8A9375"/>
<path d="M152.02 138.018C152.02 138.018 161.277 139.026 168.426 139.026C175.575 139.026 178.324 138.385 178.324 138.385C178.324 138.385 176.766 135.452 172.183 134.352C167.601 133.252 167.143 136.001 165.126 134.352C163.11 132.702 159.444 131.511 156.236 132.427C153.028 133.343 152.02 138.018 152.02 138.018" fill="#D2C575"/>
<path d="M148.43 141.909C148.43 144.413 123.648 146.444 93.0787 146.444C62.509 146.444 37.7273 144.413 37.7273 141.909C37.7273 139.404 62.509 137.373 93.0787 137.373C123.648 137.373 148.43 139.404 148.43 141.909Z" fill="#E7BCA4"/>
<path d="M144.579 116.883L140.375 121.316C140.375 121.316 140.375 121.32 140.37 121.33L139.58 122.159C139.575 122.164 139.57 122.164 139.57 122.164L139.522 122.217C139.518 122.212 139.509 122.208 139.505 122.204C130.428 116.589 121.673 108.224 119.467 106.067C118.334 105.048 117.271 103.826 116.444 102.368C114.507 98.9369 111.888 92.5315 110.066 87.8393L109.824 88.8586L106.538 102.781C107.943 104.938 109.868 108.242 111.515 112.318C112.35 114.388 113.114 116.659 113.703 119.076L94.816 130.186L94.8208 130.467L94.5659 130.331L94.3154 130.476L94.311 130.195L75.011 119.818C75.6349 116.761 76.5446 113.927 77.5286 111.427C77.5462 111.387 77.5594 111.344 77.5771 111.304C78.9213 107.93 80.4108 105.166 81.5485 103.259L77.6691 89.2539L77.1464 87.369L76.8651 86.3542C75.0198 90.9363 71.6198 99.1038 69.2475 103.119C68.3951 104.56 67.3142 105.759 66.1545 106.757C63.9138 108.87 54.9824 117.077 45.8004 122.524L44.9612 121.606L40.8445 117.094L61.7744 97.4166L68.8477 77.1946C72.92 68.4561 75.9735 68.3333 75.9735 68.3333V68.3376C76.5358 67.863 77.1773 67.4632 77.8976 67.1823C78.1305 67.0899 78.3678 66.9978 78.6095 66.8966L78.6135 66.8922C79.9934 66.3255 81.5397 65.6004 83.0861 64.6911C84.9093 63.6146 86.737 62.2748 88.3009 60.6184C88.5294 59.0633 88.6131 56.849 88.6435 55.4123C88.6611 54.5559 88.6611 53.9713 88.6611 53.9713L93.1116 54.4283L97.5401 53.8004C97.5401 53.8004 97.5793 54.9557 97.685 56.4052C97.7862 57.7102 97.9311 59.2566 98.1508 60.4295C98.8755 61.1415 99.6531 61.7914 100.457 62.3716C103.247 64.423 106.357 65.7408 108.8 66.5888C109.433 66.8085 110.008 67.1163 110.531 67.4853C111.168 67.6433 113.927 68.7502 117.34 76.4607L124.027 96.8103L144.579 116.883" fill="#57354B"/>
<path d="M100.457 62.3718C99.741 63.1754 97.5487 64.9022 91.3366 66.3301C82.9366 68.2586 78.6094 66.8967 78.6094 66.8967L78.6134 66.8923C79.9932 66.3257 81.5396 65.6005 83.0859 64.6913C84.9092 63.6148 86.7368 62.2749 88.3008 60.6186C88.5293 59.0634 88.6129 56.8492 88.6433 55.4125L97.6848 56.4054C97.786 57.7104 97.9309 59.2567 98.1506 60.4297C98.8754 61.1416 99.6529 61.7915 100.457 62.3718Z" fill="#361C2B"/>
<path d="M105.187 92.4062C102.239 93.7112 97.0874 91.1828 92.7117 92.5927C88.336 94.0074 86.1702 98.0537 85.3222 103.233C84.4742 108.409 86.64 115.934 86.64 115.934C86.64 115.934 82.7302 117.019 77.5769 111.304C78.9212 107.93 80.4107 105.166 81.5484 103.259L77.1463 87.369L76.865 86.3542C76.865 86.3542 75.8153 80.92 78.4514 76.7772C78.4514 76.7772 77.6294 81.2053 79.1717 85.2516C80.7092 89.2979 84.3381 89.2979 88.1251 89.2055C91.9121 89.1135 91.8589 87.814 96.1385 88.7353C103.276 90.2724 106.065 89.5825 107.73 87.2378C108.828 85.6922 108.13 91.1016 105.187 92.4062" fill="#361C2B"/>
<path d="M84.8742 49.1631C84.8742 49.1631 83.8605 47.0953 82.5263 47.1765C81.1921 47.2577 80.7455 50.1051 82.6247 52.3233C84.5044 54.5412 86.2112 53.5903 86.2112 53.5903L84.8742 49.1631Z" fill="#F5746E"/>
<path d="M101.607 48.842C101.607 48.842 102.541 46.737 103.877 46.767C105.213 46.797 105.769 49.6248 103.976 51.9139C102.183 54.2021 100.44 53.3173 100.44 53.3173L101.607 48.842" fill="#F5746E"/>
<path d="M102.207 44.5726C102.366 52.835 97.4427 60.2208 93.5204 60.2961C88.763 60.3873 84.1616 52.6277 84.0135 44.922C83.9043 39.2217 87.3235 34.5339 93.0238 34.4242C98.7237 34.315 102.098 38.8728 102.207 44.5726Z" fill="#F6877D"/>
<path d="M86.0527 45.335C86.0527 45.335 87.391 44.9536 88.8389 44.8475C90.6537 44.7147 91.3228 44.904 91.3228 44.904C91.3228 44.904 90.9735 43.8863 89.4459 43.9155C87.9188 43.9451 86.0527 45.335 86.0527 45.335Z" fill="#211E14"/>
<path d="M91.2301 47.5665C91.2301 47.5665 90.1592 46.1262 88.7813 46.111C87.4035 46.0958 86.1809 47.6637 86.1809 47.6637C86.1809 47.6637 86.5575 48.0767 88.5144 48.1615C90.5198 48.2484 91.2301 47.5665 91.2301 47.5665" fill="#F5746E"/>
<path d="M88.7441 48.0458C87.4455 48.0578 86.3894 47.7317 86.2106 47.6732L86.1917 47.6632C86.1901 47.6644 86.1889 47.6648 86.1873 47.6656C86.1853 47.6652 86.1809 47.6636 86.1809 47.6636C86.1825 47.6644 86.1841 47.6656 86.1857 47.6664C85.9576 47.8133 85.489 47.8529 85.489 47.8529C85.9724 48.0034 86.3554 47.953 86.5263 47.9158C86.9009 48.1699 87.5644 48.504 88.7526 48.4908C90.459 48.472 91.2301 47.5664 91.2301 47.5664C91.2301 47.5664 90.1696 48.0322 88.7441 48.0458" fill="#211E14"/>
<path d="M100.095 45.0652C100.095 45.0652 98.744 44.7354 97.2934 44.685C95.4745 44.6222 94.813 44.8371 94.813 44.8371C94.813 44.8371 95.1235 43.8066 96.6507 43.7774C98.1778 43.7478 100.095 45.0652 100.095 45.0652Z" fill="#211E14"/>
<path d="M95.0083 47.494C95.0083 47.494 96.0236 46.0137 97.3994 45.9456C98.7761 45.8772 100.057 47.3971 100.057 47.3971C100.057 47.3971 99.6969 47.8245 97.7448 47.9842C95.7443 48.1479 95.0083 47.494 95.0083 47.494Z" fill="#F5746E"/>
<path d="M100.756 47.5595C100.756 47.5595 100.286 47.5383 100.053 47.4002C100.054 47.3994 100.056 47.3982 100.057 47.397C100.057 47.397 100.053 47.3986 100.051 47.3994C100.05 47.3986 100.048 47.3982 100.047 47.3974L100.028 47.4078C99.8514 47.4735 98.8089 47.84 97.5111 47.8773C96.086 47.9185 95.0083 47.4939 95.0083 47.4939C95.0083 47.4939 95.8135 48.3691 97.5195 48.3227C98.7077 48.2903 99.3576 47.9309 99.7221 47.6624C99.8946 47.6932 100.279 47.7288 100.756 47.5595Z" fill="#211E14"/>
<path d="M91.9377 52.5205C91.9377 52.5205 92.6701 52.9655 93.2688 52.9959C93.8679 53.0259 94.5806 52.4696 94.5806 52.4696C94.5806 52.4696 94.0231 52.4112 93.3548 52.396C92.6865 52.3808 91.9377 52.5205 91.9377 52.5205" fill="#F5746E"/>
<path d="M93.5883 55.0815C95.067 54.9927 96.0067 54.5269 96.0067 54.5269C96.0067 54.5269 94.4239 54.3572 94.0185 54.4364C93.7668 54.4857 93.5915 54.7262 93.4943 54.9019C93.3906 54.7302 93.2061 54.4965 92.9528 54.4569C92.5442 54.3932 90.9695 54.6237 90.9695 54.6237C90.9695 54.6237 91.9259 55.0527 93.4078 55.0852C93.407 55.086 93.405 55.0916 93.405 55.0916C93.4367 55.0904 93.4667 55.088 93.4979 55.0864C93.5291 55.0868 93.5595 55.088 93.5911 55.088C93.5911 55.088 93.5887 55.0827 93.5883 55.0815" fill="#772F36"/>
<path d="M91.4236 55.2541C91.4236 55.2541 91.7345 55.6968 92.8879 55.9773C94.0412 56.2578 94.8772 55.7824 95.5679 55.3414C95.5679 55.3414 94.9436 56.5327 93.6426 56.6932C92.3412 56.8537 91.4684 55.4306 91.4236 55.2541" fill="#F5746E"/>
<path d="M96.6793 39.3218C96.6793 39.3218 94.6972 38.2745 92.0283 38.409C89.3594 38.5438 87.2861 40.6288 86.5137 42.1047C85.7409 43.5806 84.9558 44.002 84.9558 44.002C84.9558 44.002 85.2003 47.5805 84.5156 49.1052C84.5156 49.1052 83.5907 47.5601 82.5262 47.1767C82.5262 47.1767 81.6146 43.9104 82.1741 40.4351C82.7335 36.9595 86.4185 33.2153 91.376 32.7027C96.3339 32.19 98.8431 34.6048 98.8431 34.6048C98.8431 34.6048 102.135 36.4616 103.114 39.6155C104.093 42.7694 103.253 46.863 103.253 46.863C103.253 46.863 102.406 47.2916 101.86 48.7727C101.86 48.7727 100.274 46.3795 100.682 43.6999C100.682 43.6999 100.032 39.4383 96.6793 39.3218" fill="#772F36"/>
<path d="M99.628 36.3837C98.6343 36.6982 92.2205 33.227 92.2205 33.227C92.2205 33.227 92.1869 32.6655 92.3674 31.9404C92.6187 30.9383 93.273 29.6177 94.9786 29.0014C95.2723 28.8969 95.5613 28.8213 95.8426 28.7709C98.4118 28.335 100.546 30.0955 101.158 31.8899C101.837 33.8809 100.626 36.0735 99.628 36.3837" fill="#772F36"/>
<path d="M91.3229 44.9042C91.3229 44.9042 91.9448 46.0687 92.2942 47.8367C92.644 49.6052 92.3526 50.8738 92.3526 50.8738C92.3526 50.8738 92.0104 45.8722 89.4648 44.8121C89.4648 44.8121 90.8611 44.7817 91.3229 44.9042" fill="#F5746E"/>
<path d="M96.6793 39.3219C96.6793 39.3219 93.513 38.2618 90.8173 39.4343C88.1216 40.6065 88.1861 42.3173 86.314 42.4622L86.0723 42.0139C86.0723 42.0139 86.5717 42.1096 87.7122 41.2108C88.8524 40.3119 91.2579 37.0772 96.6793 39.3219Z" fill="#772F36"/>
<path d="M83.8007 133.84C83.8007 133.84 81.2111 134.17 80.3082 134.345C80.3082 134.345 76.6913 133.826 75.1714 133.891C73.6515 133.956 72.8211 135.764 71.9627 137.727C71.1043 139.69 67.7775 141.781 66.6025 143.004C65.4276 144.226 65.396 146.019 65.4212 146.398C65.4468 146.778 64.6812 147.859 65.0842 148.746C65.4868 149.633 65.9242 149.337 66.2984 149.235C66.6726 149.134 66.9351 148.506 66.9351 148.506C66.9351 148.506 67.8912 148.556 68.2981 148.377C68.7051 148.197 68.3562 148.106 69.2666 148.045C70.177 147.983 70.6649 147.874 71.2211 147.646C71.7774 147.418 75.588 143.465 77.651 142.412C79.7139 141.358 82.8942 141.601 82.8942 141.601L83.8007 133.84" fill="#F6877D"/>
<path d="M142.277 136.525C136.126 139.965 125.938 141.318 114.147 142.035C112.71 142.123 111.251 142.202 109.771 142.272L109.973 147.386C109.973 147.386 109.077 147.377 107.491 147.355C102.628 147.298 91.2882 147.153 79.4658 146.916C60.3464 146.538 45.1368 141.793 40.7435 137.562C38.6257 135.52 37.3695 132.264 37.8177 129.224C38.1735 126.816 39.6014 124.545 42.5139 123.108C43.2083 122.766 44.4204 122.331 46.0596 121.865C51.1996 120.393 60.5 118.614 70.7585 118.517C70.921 118.504 71.0746 118.496 71.2239 118.482C72.5773 116.453 77.5769 111.304 77.5769 111.304C77.5769 111.304 81.0914 114.26 85.8976 116.018C88.4368 116.945 91.341 117.542 94.276 117.186C102.764 116.163 111.291 111.431 111.291 111.431C113.018 113.149 114.669 117.182 114.669 117.182C123.166 117.261 137.238 119.84 140.265 121.355C140.287 121.369 140.304 121.382 140.322 121.391C142.378 121.944 144.091 123.139 145.264 124.659C147.984 128.178 147.803 133.441 142.277 136.525" fill="#F46D52"/>
<path d="M40.8424 117.094C40.8424 117.094 38.7038 116.767 37.8466 116.783C36.989 116.8 35.2594 117.348 34.2821 117.514C33.3053 117.68 32.8154 117.714 32.843 117.86C32.8703 118.007 33.196 118.368 34.2773 118.519C35.3582 118.669 36.2831 118.382 36.8593 118.371C37.4356 118.36 37.5649 118.701 37.5649 118.701C37.5649 118.701 36.9818 120.256 35.1009 120.586C33.2204 120.917 32.4797 120.636 32.352 120.369C32.2243 120.102 33.0227 118.273 32.8134 117.591C32.6041 116.909 32.2868 116.964 31.8906 118.05C31.4952 119.136 30.8045 120.179 30.8181 120.889C30.8317 121.6 32.0443 122.214 32.0443 122.214C32.0443 122.214 29.7105 121.939 29.0124 122.59C28.3143 123.241 29.7116 123.263 30.8165 123.364C31.9214 123.466 32.9567 123.789 33.617 123.703C33.617 123.703 30.6504 123.662 30.0715 124.138C29.4925 124.615 30.6748 124.935 31.8021 124.914C32.9291 124.892 34.453 125.133 34.6983 125.128C34.6983 125.128 32.0571 125.448 32.1435 126.108C32.2299 126.768 32.7114 126.318 34.1601 126.462C35.6087 126.605 36.8093 126.582 38.1736 126.164C39.5382 125.746 44.9612 121.605 44.9612 121.605L40.8424 117.094" fill="#F6877D"/>
<path d="M132.207 123.566C120.908 125.169 89.276 133.266 89.276 133.266C89.276 133.266 72.6125 125.639 61.4404 123.851C50.8306 122.155 44.6405 122.999 46.0595 121.865C51.1996 120.393 60.5 118.614 70.7584 118.517C70.9209 118.504 71.0746 118.496 71.2238 118.482C72.5773 116.453 77.5769 111.304 77.5769 111.304C77.5769 111.304 81.0913 114.261 85.8976 116.018C86.2842 117.881 92.9489 127.049 97.7508 125.542C102.553 124.04 108.857 121.967 111.871 123.003C114.884 124.04 121.005 123.473 125.222 122.524C129.435 121.575 132.207 123.566 132.207 123.566" fill="#EB5944"/>
<path d="M140.375 121.316C140.375 121.316 140.375 121.32 140.37 121.33C140.331 121.413 140.128 121.821 139.579 122.16C139.575 122.164 139.57 122.164 139.57 122.164C139.548 122.177 139.527 122.19 139.505 122.204C130.428 116.589 121.673 108.224 119.467 106.067C118.333 105.048 117.27 103.827 116.444 102.368C114.507 98.937 111.888 92.5316 110.065 87.8394L111.115 79.1012C111.115 79.1012 115.038 96.0108 119.181 101.458C123.324 106.906 140.375 121.316 140.375 121.316" fill="#361C2B"/>
<path d="M77.6688 89.2538L77.1462 87.3689L76.8648 86.354C75.0195 90.9362 71.6195 99.1037 69.2472 103.119C68.3948 104.56 67.3139 105.759 66.1542 106.757C63.9135 108.87 54.9821 117.077 45.8001 122.524L44.9609 121.606C44.9609 121.606 63.0479 106.159 68.3596 100.083C73.6665 94.0072 76.9308 80.7574 76.9308 80.7574L77.6688 89.2538Z" fill="#361C2B"/>
<path d="M142.277 136.525C136.127 139.966 125.938 141.318 114.147 142.035C109.217 141.226 105.699 139.307 105.699 139.307V138.723L89.2896 133.27C89.4288 133.305 92.1257 132.544 92.1257 132.544C99.5968 134.209 118.008 139.227 127.594 137.031C139.927 134.206 140.397 129.018 142.655 126.434C143.538 125.424 144.465 124.91 145.264 124.66C147.984 128.178 147.804 133.441 142.277 136.525" fill="#EB5944"/>
<path d="M105.7 139.305C105.7 139.305 108.283 139.686 109.182 139.879C109.182 139.879 112.808 139.431 114.326 139.525C115.844 139.619 116.64 141.444 117.459 143.424C118.279 145.403 121.564 147.559 122.715 148.804C123.866 150.049 123.863 151.842 123.83 152.221C123.797 152.6 124.541 153.695 124.121 154.574C123.701 155.454 123.27 155.149 122.897 155.04C122.525 154.932 122.275 154.299 122.275 154.299C122.275 154.299 121.318 154.33 120.915 154.143C120.511 153.955 120.862 153.871 119.953 153.792C119.044 153.713 118.558 153.594 118.006 153.355C117.455 153.116 113.722 149.09 111.681 147.995C109.638 146.902 106.454 147.083 106.454 147.083L105.7 139.305" fill="#F6877D"/>
<path d="M144.58 116.884C144.58 116.884 146.724 116.598 147.581 116.631C148.438 116.664 150.156 117.245 151.13 117.429C152.104 117.614 152.593 117.657 152.563 117.803C152.533 117.949 152.201 118.304 151.117 118.434C150.033 118.564 149.113 118.259 148.537 118.237C147.962 118.215 147.826 118.553 147.826 118.553C147.826 118.553 148.379 120.119 150.253 120.485C152.127 120.851 152.873 120.586 153.006 120.321C153.139 120.057 152.375 118.213 152.598 117.535C152.82 116.856 153.137 116.918 153.511 118.011C153.887 119.104 154.557 120.16 154.53 120.87C154.503 121.58 153.278 122.171 153.278 122.171C153.278 122.171 155.617 121.942 156.302 122.605C156.988 123.269 155.591 123.265 154.484 123.345C153.377 123.425 152.336 123.729 151.677 123.63C151.677 123.63 154.644 123.646 155.214 124.133C155.784 124.621 154.595 124.919 153.469 124.875C152.343 124.833 150.814 125.043 150.569 125.034C150.569 125.034 153.204 125.405 153.105 126.063C153.006 126.721 152.533 126.262 151.082 126.378C149.631 126.494 148.431 126.448 147.074 126.003C145.718 125.56 140.376 121.316 140.376 121.316L144.58 116.884" fill="#F6877D"/>
<path d="M107.491 147.355C102.628 147.298 91.2882 147.153 79.4658 146.915C60.3464 146.538 45.1368 141.793 40.7435 137.562C38.6257 135.52 37.3695 132.264 37.8177 129.224C39.4341 130.48 42.558 132.668 48.5152 135.647C58.3034 140.545 76.3775 143.181 90.6907 144.561C104.999 145.94 106.287 145.334 106.287 145.334L107.491 147.355" fill="#EB5944"/>
<path d="M97.4566 34.1578C95.5241 33.2146 92.4679 32.6359 92.4679 32.6359C92.4175 32.393 92.3838 32.1581 92.3674 31.9404C92.6188 30.9383 93.2731 29.6177 94.9787 29.0014C95.2724 28.897 95.5613 28.8213 95.8427 28.7709C95.5197 29.1023 95.1844 29.7181 95.4777 30.7454C95.9767 32.4895 99.3848 35.1011 97.4566 34.1578" fill="#602129"/>
<path d="M95.6565 37.7517C95.6565 37.7517 92.0944 36.4043 88.688 37.7517C85.2808 39.0992 84.8066 42.7373 84.011 43.0967C84.011 43.0967 84.7009 38.216 88.3594 37.1527C92.0184 36.0898 95.6565 37.7517 95.6565 37.7517" fill="#602129"/>
<path d="M98.3513 35.5055L97.0039 38.5437C97.0039 38.5437 98.8452 37.7065 98.3513 35.5055Z" fill="#602129"/>
</svg>
