<svg width="204" height="156" viewBox="0 0 204 156" fill="none" xmlns="http://www.w3.org/2000/svg">
<g clip-path="url(#clip0_60_305)">
<path d="M172.973 107.315C168.664 105.363 168.008 100.667 166.228 98.2243C164.449 95.7821 160.14 94.279 160.14 94.279C160.14 94.279 164.262 91.0854 170.818 91.8367C173.901 92.1902 176.216 93.5814 178.108 95.0928C177.135 92.2637 178.122 90.6328 176.438 87.9418C174.471 84.7988 170.631 83.1007 168.476 77.8811C166.322 72.6608 168.476 67.977 168.476 67.977C168.476 67.977 169.132 69.8554 171.755 71.7344C174.099 73.414 180.707 73.671 184.626 78.7384C182.6 50.1469 162.78 34.5217 149.066 26.3713C137.287 19.3706 129.681 4.75957 97.8552 6.8726C66.03 8.99011 58.944 29.4663 51.059 44.967C46.6934 53.5476 36.824 55.4465 28.5 61.3502C34.6613 59.7339 38.5682 62.7152 43.2094 63.6556C48.7721 64.7828 49.6465 60.8496 54.6416 60.8751C59.6372 60.9001 61.5107 62.6538 61.5107 62.6538C61.5107 62.6538 56.5151 61.9026 54.8918 66.1606C53.2679 70.4193 51.2699 72.0183 46.2743 71.3444C41.2788 70.6692 39.8327 71.0337 37.1839 73.4197C34.535 75.8051 28.4154 74.052 24.9187 74.9286C22.8468 75.4477 20.0303 79.1322 18.0786 82.0489C19.6555 80.7696 21.8142 79.3554 24.7231 78.0537C32.8409 74.4216 43.2094 81.065 43.2094 81.065C43.2094 81.065 35.0345 82.944 30.2888 86.2002C25.5431 89.457 22.171 86.3262 18.9239 87.4533C17.2975 88.0172 15.9847 88.5901 15.079 89.0203C15.0784 89.0331 15.0771 89.0453 15.0763 89.0581C14.4251 99.184 18.2409 108.175 24.7231 115.882C40.5945 134.749 72.4509 145.928 93.8951 147.265C116.323 148.659 155.684 140.303 174.375 115.404C176.029 113.202 177.519 110.867 178.823 108.401C176.954 108.39 174.803 108.144 172.973 107.315Z" fill="#9DA6DB"/>
<path d="M91.9509 48.5313C91.9509 55.0532 86.6788 60.3406 80.1757 60.3406C73.6725 60.3406 68.4004 55.0532 68.4004 48.5313C68.4004 42.0093 73.6725 36.7219 80.1757 36.7219C86.6788 36.7219 91.9509 42.0093 91.9509 48.5313Z" fill="#707AC5"/>
<path d="M165.59 36.7219C165.59 39.0901 163.676 41.0094 161.315 41.0094C158.954 41.0094 157.04 39.0901 157.04 36.7219C157.04 34.3543 158.954 32.4348 161.315 32.4348C163.676 32.4348 165.59 34.3543 165.59 36.7219Z" fill="#707AC5"/>
<path d="M174.374 115.404C155.684 140.303 116.322 148.659 93.8946 147.265C72.4504 145.928 40.594 134.749 24.7227 115.882C30.7679 109.162 46.2237 95.5506 74.7447 91.7235C113.088 86.5768 139.813 117.109 168.788 115.496C170.738 115.386 172.6 115.36 174.374 115.404Z" fill="#707AC5"/>
<path d="M50.0835 36.0384C53.643 25.3298 45.2129 30.2768 42.0284 37.1029C38.8437 43.9292 32.8491 44.6798 32.8491 48.5312C32.8491 52.3833 46.5242 46.7468 50.0835 36.0384Z" stroke="#707AC5" stroke-width="1.33333" stroke-miterlimit="10"/>
<path d="M147.683 22.6019C147.683 22.6019 137.754 14.151 133.727 11.4272C129.699 8.70323 131.479 5.0394 140.705 9.26668C149.931 13.4939 153.865 21.6562 152.647 23.3523C151.429 25.0479 147.683 22.6019 147.683 22.6019Z" stroke="#707AC5" stroke-width="1.33333" stroke-miterlimit="10"/>
<path d="M55.5466 47.89C55.5466 48.2442 55.2602 48.5313 54.9068 48.5313C54.5535 48.5313 54.2671 48.2442 54.2671 47.89C54.2671 47.5358 54.5535 47.2488 54.9068 47.2488C55.2602 47.2488 55.5466 47.5358 55.5466 47.89Z" fill="#4D5EB4"/>
<path d="M60.9167 49.1024C60.9167 49.4566 60.6303 49.7443 60.2769 49.7443C59.9236 49.7443 59.6372 49.4566 59.6372 49.1024C59.6372 48.7483 59.9236 48.4612 60.2769 48.4612C60.6303 48.4612 60.9167 48.7483 60.9167 49.1024Z" fill="#4D5EB4"/>
<path d="M78.8635 29.936C78.8635 30.2904 78.5772 30.5777 78.224 30.5777C77.8709 30.5777 77.584 30.2904 77.584 29.936C77.584 29.5817 77.8709 29.2944 78.224 29.2944C78.5772 29.2944 78.8635 29.5817 78.8635 29.936Z" fill="#4D5EB4"/>
<path d="M162.594 86.8243C162.594 87.1791 162.307 87.4655 161.954 87.4655C161.601 87.4655 161.314 87.1791 161.314 86.8243C161.314 86.4694 161.601 86.1824 161.954 86.1824C162.307 86.1824 162.594 86.4694 162.594 86.8243Z" fill="#4D5EB4"/>
<path d="M164.773 85.0865C164.773 85.4413 164.486 85.7277 164.133 85.7277C163.78 85.7277 163.493 85.4413 163.493 85.0865C163.493 84.7316 163.78 84.4446 164.133 84.4446C164.486 84.4446 164.773 84.7316 164.773 85.0865Z" fill="#4D5EB4"/>
<path d="M59.6371 45.8085C59.6371 46.3788 59.176 46.8417 58.6069 46.8417C58.0377 46.8417 57.5767 46.3788 57.5767 45.8085C57.5767 45.2375 58.0377 44.7747 58.6069 44.7747C59.176 44.7747 59.6371 45.2375 59.6371 45.8085Z" fill="#4D5EB4"/>
<path d="M168.32 52.8097C168.32 53.38 167.859 53.8429 167.289 53.8429C166.721 53.8429 166.259 53.38 166.259 52.8097C166.259 52.2388 166.721 51.7759 167.289 51.7759C167.859 51.7759 168.32 52.2388 168.32 52.8097Z" fill="#4D5EB4"/>
<path d="M57.5767 83.8806C57.5767 84.6203 56.979 85.2201 56.2417 85.2201C55.5045 85.2201 54.9067 84.6203 54.9067 83.8806C54.9067 83.1415 55.5045 82.5425 56.2417 82.5425C56.979 82.5425 57.5767 83.1415 57.5767 83.8806Z" stroke="white" stroke-width="1.33333" stroke-miterlimit="10"/>
<path d="M133.03 26.7865C133.03 27.5259 132.432 28.1253 131.695 28.1253C130.959 28.1253 130.361 27.5259 130.361 26.7865C130.361 26.0474 130.959 25.448 131.695 25.448C132.432 25.448 133.03 26.0474 133.03 26.7865Z" stroke="white" stroke-width="1.33333" stroke-miterlimit="10"/>
<path d="M70.4532 22.5033C70.4532 24.8607 68.5477 26.7719 66.1966 26.7719C63.8455 26.7719 61.9404 24.8607 61.9404 22.5033C61.9404 20.1457 63.8455 18.2344 66.1966 18.2344C68.5477 18.2344 70.4532 20.1457 70.4532 22.5033Z" stroke="white" stroke-width="1.33333" stroke-miterlimit="10"/>
<path d="M190.245 59.2979C190.245 64.1281 186.34 68.0441 181.523 68.0441C176.706 68.0441 172.802 64.1281 172.802 59.2979C172.802 54.467 176.706 50.551 181.523 50.551C186.34 50.551 190.245 54.467 190.245 59.2979Z" stroke="white" stroke-width="1.33333" stroke-miterlimit="10"/>
<path d="M26.7103 101.857C26.7103 106.687 22.8057 110.603 17.9888 110.603C13.1722 110.603 9.26758 106.687 9.26758 101.857C9.26758 97.0263 13.1722 93.1104 17.9888 93.1104C22.8057 93.1104 26.7103 97.0263 26.7103 101.857Z" stroke="white" stroke-width="1.33333" stroke-miterlimit="10"/>
<path d="M84.108 12.8477C84.108 12.8477 82.2708 13.8039 82.1841 17.8388C82.0974 21.8738 85.9517 23.7433 88.3818 23.6999L88.1689 23.0706C88.1689 23.0706 84.0296 22.6132 82.9548 19.091C81.8806 15.5687 84.2221 13.177 84.2221 13.177L84.108 12.8477Z" fill="#35181A"/>
<path d="M151.033 83.2588C151.033 83.2588 150.192 89.6362 139.038 92.0715C127.884 94.5068 116.379 88.1287 116.379 88.1287L118.256 87.942C118.256 87.942 124.761 91.7231 132.566 91.2589C140.371 90.7954 144.79 86.0412 144.79 86.0412L151.033 83.2588Z" fill="#35181A"/>
<path d="M152.742 51.776C152.742 51.776 151.413 47.892 146.326 43.891C141.238 39.8906 137.192 37.6874 137.192 37.6874C153.032 42.6737 153.205 51.776 153.205 51.776H152.742ZM153.783 52.4141C154.477 44.529 143.608 36.4119 130.659 34.322C117.709 32.232 118.644 18.3804 118.644 18.3804L92.7725 33.3101C92.7725 33.3101 91.5785 45.6888 82.955 52.6461C74.3322 59.6035 72.8481 76.0692 76.8943 82.5623C80.9412 89.0562 88.1098 89.5203 99.2674 88.8241C110.425 88.1285 115.597 88.7096 127.999 89.7518C140.402 90.7945 149.245 93.6211 156.778 79.8375C164.309 66.0545 153.783 52.4141 153.783 52.4141Z" fill="#35181A"/>
<path d="M83.855 45.387C83.855 45.387 80.19 48.7032 77.5883 55.6606C74.9867 62.6179 69.4946 84.1856 69.4946 84.1856L78.3731 89.7383L86.9532 66.2123L83.855 45.387Z" fill="#DD5C55"/>
<path d="M119.23 78.8349C117.879 82.8417 118.211 87.2257 120.16 90.9786L120.637 93.0431V93.0469L121.944 98.6891C113.001 106.474 100.578 109.101 92.9373 107.408C85.2924 105.716 83.3474 99.4429 83.3474 99.4429L84.528 91.1532L82.5039 72.7113C82.5039 72.7113 80.9217 70.2869 80.2485 64.7067C79.5708 59.1214 83.8548 45.3876 83.8548 45.3876L97.7721 39.8074L107.922 38.9392L124.851 45.3876L127.04 50.8892C126.962 53.9318 124.728 61.7561 122.394 69.1514C121.288 72.6633 120.16 76.0781 119.23 78.8349Z" fill="#FBCDB7"/>
<path d="M108.017 39.8464C106.427 42.7516 100.75 46.3984 98.4572 45.6012C96.1648 44.8033 98.0225 40.7025 98.0225 40.7025C98.0441 40.1201 98.0652 39.583 98.0811 39.0888C98.1869 35.8084 98.1659 34.4235 98.1659 34.4235L108.017 27.8848C107.787 29.078 107.673 30.4418 107.633 31.8133C107.514 35.8032 108.017 39.8464 108.017 39.8464Z" fill="#DD5C55"/>
<path d="M108.018 27.8848C107.787 29.0779 107.673 30.4418 107.634 31.8133C106.505 33.5118 104.623 36.0583 102.667 37.454C100.647 38.8976 98.9932 39.115 98.0815 39.0888C98.1874 35.8083 98.1663 34.4235 98.1663 34.4235L108.018 27.8848Z" fill="#C64645"/>
<path d="M87.4585 24.4108C87.4585 24.4108 87.7996 32.499 93.479 36.1446C99.1585 39.7901 107.109 32.1574 108.473 27.9424C109.836 23.7274 109.382 14.6138 109.382 14.6138C109.382 14.6138 101.885 9.60132 96.205 9.60132C90.5255 9.60132 87.4585 12.4492 87.4585 12.4492C87.4585 12.4492 87.4585 20.1958 87.4585 24.4108Z" fill="#DD5C55"/>
<path d="M93.9325 9.7607C93.9325 9.7607 93.7636 12.7342 99.2155 16.209C104.668 19.6833 107.624 20.3953 107.624 20.3953L108.779 26.783C108.779 26.783 107.986 28.7876 107.764 29.5164C107.521 30.3118 107.616 32.841 107.616 32.841C107.616 32.841 112.222 32.156 113.812 27.885C113.812 27.885 118.526 24.3541 118.697 17.9746C118.867 11.595 115.573 9.6015 115.573 9.6015C115.573 9.6015 114.725 1.96869 106.317 0.658928C97.9093 -0.651281 91.2072 4.07635 91.2072 4.07635C91.2072 4.07635 87.1183 3.50682 84.903 6.412C82.6883 9.31674 84.108 12.848 84.108 12.848C84.108 12.848 82.177 14.7278 83.3131 17.8036C84.4484 20.8793 87.4587 21.2783 87.4587 21.2783C87.4587 21.2783 87.743 16.0379 89.2762 13.4179C90.8101 10.7976 93.9325 9.7607 93.9325 9.7607Z" fill="#35181A"/>
<path d="M108.019 21.335C108.019 21.335 109.098 18.6582 111.313 18.373C113.528 18.0886 113.699 22.0188 112.165 24.6388C110.631 27.2587 108.473 26.7464 108.473 26.7464L108.019 21.335Z" fill="#DD5C55"/>
<path d="M106.94 18.3586C106.94 18.3586 108.416 22.8158 107.565 26.3474C107.565 26.3474 107.804 26.1105 108.117 25.6531C108.829 24.6117 109.127 20.6517 109.445 19.294L106.94 18.3586Z" fill="#35181A"/>
<path d="M91.0935 4.47483C91.0935 4.47483 92.9486 1.77916 96.4702 0.677632C99.9917 -0.423446 102.945 0.677632 102.945 0.677632L103.513 0.639593C103.513 0.639593 100.219 -0.946813 96.5084 0.188278C92.7975 1.32337 90.2227 4.24735 90.2227 4.24735L91.0935 4.47483Z" fill="#35181A"/>
<path d="M115.573 9.60132C115.573 9.60132 117.535 9.98102 118.703 12.1075C119.871 14.234 118.665 16.3929 118.665 16.3929L118.469 16.1326C118.469 16.1326 119.408 14.3003 118.242 12.2974C117.076 10.2944 115.573 10.3988 115.573 10.3988V9.60132Z" fill="#35181A"/>
<path d="M88.1689 19.9233C88.1689 19.9233 88.4042 19.3845 90.084 19.418C91.7644 19.4515 92.7723 20.3951 92.7723 20.3951C92.7723 20.3951 91.9997 18.9462 90.471 18.7441C88.9422 18.5415 88.2027 19.6876 88.1689 19.9233Z" fill="#35181A"/>
<path d="M93.9324 9.7605C93.9324 9.7605 93.6685 12.6771 95.3725 15.0316C97.0759 17.386 102.112 17.386 102.112 17.386L102.314 17.8389C102.314 17.8389 97.3411 17.8794 95.3343 16.0946C93.3281 14.3101 93.1005 11.3252 93.4792 9.7605H93.9324Z" fill="#35181A"/>
<path d="M97.312 20.1095C97.312 20.1095 97.5842 19.4872 99.5248 19.5261C101.465 19.5649 102.629 20.6549 102.629 20.6549C102.629 20.6549 101.737 18.981 99.971 18.7474C98.2052 18.5142 97.3509 19.8374 97.312 20.1095Z" fill="#35181A"/>
<path d="M92.772 27.7715C92.772 27.7715 93.0276 28.028 93.9934 28.3124C94.9592 28.5976 95.6401 28.3124 95.6401 28.3124C95.6401 28.3124 95.3488 27.7715 94.6003 27.6577C93.8513 27.5436 92.772 27.7715 92.772 27.7715Z" fill="#A13136"/>
<path d="M92.772 20.3953C92.772 20.3953 93.3087 20.9649 93.5076 22.4456C93.7065 23.9269 93.5076 25.0947 93.5076 25.0947C93.5076 25.0947 92.8319 21.2214 92.772 20.3953Z" fill="#C64645"/>
<path d="M88.3818 22.0472C88.3818 22.0472 89.2055 22.4031 90.2421 22.5173C91.2786 22.6311 92.5568 22.3037 92.5568 22.3037C92.5568 22.3037 92.0806 21.0213 90.9803 20.7231C89.2482 20.2529 88.3818 22.0472 88.3818 22.0472Z" fill="#C64645"/>
<path d="M97.312 22.257C97.312 22.257 97.4835 20.9427 99.1589 20.6551C100.835 20.367 102.823 22.1326 102.823 22.1326C102.823 22.1326 99.5273 23.7091 97.312 22.257Z" fill="#C64645"/>
<path d="M90.5159 22.5034C89.399 22.4845 88.3816 22.0471 88.3816 22.0471L88.1687 22.1895C88.0297 22.2824 87.7192 22.3225 87.7192 22.3225C88.0195 22.4538 88.3306 22.4461 88.5206 22.4227C88.9075 22.6445 89.5922 22.9465 90.4688 22.9583C91.8604 22.9776 92.556 22.4935 92.556 22.4935V22.3032C92.556 22.3032 91.6335 22.5218 90.5159 22.5034Z" fill="#35181A"/>
<path d="M102.822 22.1326C102.822 22.1326 101.473 22.5438 100.077 22.5818C98.6805 22.6203 97.3902 22.2083 97.3902 22.2083L97.1301 22.3707C96.9605 22.4767 96.5742 22.5352 96.5742 22.5352C96.9548 22.6592 97.3437 22.6351 97.5802 22.5999C98.073 22.8159 98.9413 23.1016 100.038 23.0684C101.777 23.0164 102.314 22.6019 102.692 22.3531C102.745 22.318 102.822 22.1326 102.822 22.1326Z" fill="#35181A"/>
<path d="M92.7723 30.3538C92.7723 30.3538 93.0598 30.4864 94.2067 30.7142C95.3535 30.9422 98.0814 30.3538 98.0814 30.3538C98.0814 30.3538 96.0682 30.0121 95.4268 30.0498C94.7855 30.0878 94.3501 30.407 94.3501 30.407C94.3501 30.407 93.7636 29.936 93.4034 29.936C93.0439 29.936 92.3809 30.1447 92.3809 30.1447L92.7723 30.3538Z" fill="#A13136"/>
<path d="M93.1841 31.5715C93.1841 31.5715 93.965 32.1031 95.101 32.1411C96.2371 32.1792 97.4674 31.7045 97.4674 31.7045C97.4674 31.7045 96.7834 32.6886 95.3261 32.8408C93.8681 32.9927 93.1841 31.5715 93.1841 31.5715Z" fill="#C64645"/>
<path d="M79.2397 104.464L84.1287 93.9689C84.1287 93.9689 87.3793 97.4047 97.3116 97.7525C107.244 98.101 120.637 93.0476 120.637 93.0476C120.637 93.0476 124.067 101.927 124.067 105.232C124.067 108.537 104.47 121.582 104.47 121.582L92.8497 120.712L79.2397 104.464Z" fill="#772F36"/>
<path d="M78.6836 121.582C78.6836 121.582 75.4725 122.835 74.3729 123.349C74.3729 123.349 69.5763 123.842 67.6511 124.411C65.7252 124.98 65.2394 127.57 64.767 130.366C64.2946 133.161 60.7032 136.912 59.5889 138.857C58.4747 140.803 59.0067 143.116 59.1605 143.595C59.3143 144.074 58.6795 145.707 59.4784 146.717C60.2777 147.728 60.7428 147.207 61.1895 146.957C61.6363 146.707 61.7722 145.817 61.7722 145.817C61.7722 145.817 63.012 145.575 63.4759 145.214C63.9395 144.852 63.4637 144.847 64.6095 144.477C65.7558 144.107 66.3461 143.811 66.9849 143.34C67.6243 142.869 71.2415 136.573 73.546 134.559C75.8512 132.546 80.0013 131.839 80.0013 131.839L78.6836 121.582Z" fill="#DD5C55"/>
<path d="M141.526 132.888C133.695 134.867 116.69 136.26 101.45 137.165C85.7487 138.098 71.9214 138.513 71.9214 138.513L69.5945 131.105L67.5303 124.539L113.17 115.464C113.17 115.464 111.928 105.987 121.87 100.882C121.87 100.882 151.469 101.117 158.639 109.465C165.807 117.814 158.061 128.715 141.526 132.888Z" fill="#772F36"/>
<path d="M96.9715 130.284C96.9715 130.284 100.182 131.537 101.282 132.051C101.282 132.051 106.078 132.543 108.004 133.113C109.93 133.682 110.415 136.271 110.888 139.066C111.36 141.862 114.952 145.613 116.066 147.559C117.18 149.505 116.648 151.817 116.494 152.296C116.34 152.775 116.976 154.407 116.176 155.418C115.377 156.429 114.912 155.908 114.465 155.658C114.018 155.408 113.882 154.518 113.882 154.518C113.882 154.518 112.643 154.276 112.178 153.914C111.716 153.553 112.191 153.549 111.045 153.178C109.899 152.808 109.309 152.512 108.67 152.041C108.03 151.57 104.413 145.274 102.108 143.26C99.8033 141.247 95.6538 140.541 95.6538 140.541L96.9715 130.284Z" fill="#DD5C55"/>
<path d="M81.7504 102.623C81.7504 102.623 42.7278 102.623 36.4843 109.58C30.2406 116.538 33.7094 125.409 38.7388 128.366C43.7686 131.322 96.492 143.15 96.492 143.15L99.267 126.974L91.4889 124.539L95.6536 118.946L81.7504 102.623Z" fill="#772F36"/>
<path d="M81.6348 104.13C81.6348 104.13 89.7782 114.241 94.205 117.245C94.205 117.245 85.104 116.306 81.6348 104.13Z" fill="#5D2129"/>
<path d="M50.1855 112.886C50.1855 112.886 56.9494 113.755 67.5289 116.016C78.1082 118.278 91.4887 124.539 91.4887 124.539C91.4887 124.539 77.7621 115.147 67.0087 112.886C56.2553 110.624 50.1855 112.886 50.1855 112.886Z" fill="#5D2129"/>
<path d="M87.9194 122.257C87.9194 122.257 119.385 112.839 132.566 110.688C132.566 110.688 104.695 119.089 91.4888 124.539L87.9194 122.257Z" fill="#5D2129"/>
<path d="M118.256 103.3C118.256 103.3 103.001 110.851 97.8682 118.507C97.8682 118.507 113.948 110.238 118.256 103.3Z" fill="#5D2129"/>
<path d="M37.7364 103.521C36.0184 104.129 34.0475 103.521 33.7948 103.217C33.5422 102.913 35.4625 101.14 35.4625 99.771C35.4625 99.5574 35.4355 99.3912 35.3915 99.2595C35.6737 99.5555 36.0704 99.8534 36.469 100.024C37.5343 100.48 39.8587 100.731 40.4652 101.087C41.0718 101.443 39.4544 102.913 37.7364 103.521ZM78.3731 89.7384C78.3731 89.7384 75.7823 83.4165 69.7062 83.3596L45.5822 99.7735C45.1171 99.5312 44.3015 99.1949 43.0424 98.9603C40.8694 98.5549 36.5742 98.6048 35.4625 98.4028C34.9263 98.3049 34.8964 98.5728 35.1256 98.9277C34.7717 98.7806 34.2073 99.177 33.7719 99.8215C33.0875 100.835 31.3693 102.724 31.3693 103.782C31.3693 104.839 33.2391 105.903 34.3507 105.953C34.3507 105.953 30.5608 106.917 29.8533 108.285C29.1459 109.653 31.0155 109.451 31.6221 109.146C32.2284 108.843 36.1193 107.778 36.1193 107.778C36.1193 107.778 32.2789 109.907 32.1778 111.376C32.0768 112.846 33.3907 111.984 34.6034 111.376C35.8162 110.768 37.989 109.653 37.989 109.653C37.989 109.653 34.8561 111.934 35.4119 112.947C35.9678 113.961 38.5449 111.646 40.6167 110.701C42.6887 109.754 44.2546 109.616 46.0028 108.935C48.4492 107.981 49.7397 105.928 49.7401 105.928C54.051 104.319 72.5234 97.1158 78.3731 89.7384Z" fill="#DD5C55"/>
<path d="M157.83 68.938C157.83 68.938 160.026 75.6658 158.523 80.6795C157.02 85.6933 151.268 86.8243 151.268 86.8243L152.193 85.6645C152.193 85.6645 157.858 84.7081 158.176 76.91C158.459 69.982 157.83 68.938 157.83 68.938Z" fill="#35181A"/>
<path d="M40.7891 101.007C40.7891 101.007 42.6967 102.094 44.8212 102.094C46.9457 102.094 44.3879 103.051 42.8052 102.573C41.2226 102.094 40.7891 101.007 40.7891 101.007Z" fill="#C64645"/>
<path d="M47.4827 104.791C47.4827 104.791 46.182 104.834 44.3611 105.791C42.5402 106.748 41.5863 109.183 41.1093 108.791C40.6321 108.401 41.9331 104.661 47.4827 104.791Z" fill="#C64645"/>
<path d="M34.9185 105.887C34.9185 105.887 38.9041 109.12 39.3811 109.163C39.8578 109.207 37.7367 106.062 34.9185 105.887Z" fill="#C64645"/>
<path d="M83.9429 71.2024C83.9429 71.2024 85.9096 70.1692 91.904 70.1692C97.899 70.1692 107.877 72.5175 107.877 72.5175C107.877 72.5175 89.4687 72.6115 83.9429 71.2024Z" fill="#FAB8A6"/>
<path d="M120.166 91.0881L120.642 93.1532V93.1577L112.145 95.7879C112.145 95.7879 116.467 85.3104 116.385 77.2924C116.302 69.275 118.911 59.2974 118.911 59.2974L122.399 69.2622C121.293 72.7735 120.166 76.1882 119.234 78.9457C117.884 82.9525 118.216 87.3358 120.166 91.0881Z" fill="#FAB8A6"/>
<path d="M157.202 109.827C155.626 108.909 154.311 107.163 154.972 106.926C155.635 106.69 157.965 106.877 159.096 106.628C159.52 106.534 159.965 106.316 160.297 106.077C160.229 106.199 160.172 106.357 160.132 106.566C159.878 107.912 161.436 110.012 161.131 110.264C160.827 110.516 158.777 110.745 157.202 109.827ZM164.064 115.978C163.622 114.502 160.078 112.849 160.078 112.849C161.18 113.007 163.214 112.31 163.41 111.271C163.606 110.232 162.268 108.055 161.784 106.932C161.475 106.217 160.995 105.723 160.62 105.801C160.911 105.496 160.93 105.226 160.386 105.223C159.256 105.214 155.046 104.363 152.835 104.356C151.944 104.353 151.257 104.439 150.75 104.542L134.589 81.7509C133.696 76.181 132.463 62.0815 131.005 55.8345C129.097 47.6598 124.849 45.387 124.849 45.387C124.849 45.387 119.581 48.5293 118.702 54.6172C117.824 60.705 125.561 87.9417 125.561 87.9417C128.308 95.6906 142.776 108.073 144.791 110.387C144.791 110.387 145.849 112.211 148.076 113.604C149.668 114.599 151.18 115.028 153.041 116.344C154.9 117.66 157.003 120.415 157.738 119.523C158.472 118.631 155.816 115.806 155.816 115.806C155.816 115.806 157.745 117.306 158.823 118.13C159.902 118.954 161.033 120.045 161.206 118.582C161.38 117.119 158.002 114.311 158.002 114.311C158.002 114.311 161.627 116.083 162.166 116.495C162.706 116.907 164.505 117.455 164.064 115.978Z" fill="#DD5C55"/>
<path d="M154.462 107.146C154.462 107.146 152.554 108.233 150.43 108.233C148.305 108.233 150.863 109.189 152.446 108.711C154.028 108.233 154.462 107.146 154.462 107.146Z" fill="#C64645"/>
<path d="M146.39 110.007C146.39 110.007 147.69 110.05 149.511 111.007C151.332 111.964 152.286 114.399 152.763 114.007C153.24 113.616 151.939 109.877 146.39 110.007Z" fill="#C64645"/>
<path d="M158.465 112.218C158.465 112.218 154.48 115.451 154.003 115.494C153.526 115.538 155.647 112.392 158.465 112.218Z" fill="#C64645"/>
<path d="M96.3541 42.3329C96.3541 42.3329 94.46 45.949 97.4671 46.9355C100.475 47.9214 105.626 44.4926 108.249 41.9563C108.249 41.9563 104.784 47.5461 99.1635 48.438C93.5433 49.3311 94.847 43.5623 96.3541 42.3329Z" fill="#FAB8A6"/>
</g>
<defs>
<clipPath id="clip0_60_305">
<rect width="204" height="156" fill="white"/>
</clipPath>
</defs>
</svg>
